SplineFontDB: 3.2
FontName: Untitled1
FullName: Untitled1
FamilyName: Untitled1
Weight: Regular
Copyright: Copyright (c) 2019, yuans
Version: 001.000
ItalicAngle: 0
UnderlinePosition: -100
UnderlineWidth: 50
Ascent: 800
Descent: 200
InvalidEm: 0
sfntRevision: 0x00010000
LayerCount: 2
Layer: 0 0 "Back" 1
Layer: 1 0 "Fore" 0
XUID: [1021 143 1272831465 21913]
StyleMap: 0x0000
FSType: 0
OS2Version: 4
OS2_WeightWidthSlopeOnly: 0
OS2_UseTypoMetrics: 1
CreationTime: 1565774704
ModificationTime: 1565857389
PfmFamily: 17
TTFWeight: 400
TTFWidth: 5
LineGap: 90
VLineGap: 0
Panose: 2 0 5 3 0 0 0 0 0 0
OS2TypoAscent: 800
OS2TypoAOffset: 0
OS2TypoDescent: -200
OS2TypoDOffset: 0
OS2TypoLinegap: 90
OS2WinAscent: 733
OS2WinAOffset: 0
OS2WinDescent: 252
OS2WinDOffset: 0
HheadAscent: 733
HheadAOffset: 0
HheadDescent: -252
HheadDOffset: 0
OS2SubXSize: 650
OS2SubYSize: 699
OS2SubXOff: 0
OS2SubYOff: 140
OS2SupXSize: 650
OS2SupYSize: 699
OS2SupXOff: 0
OS2SupYOff: 479
OS2StrikeYSize: 49
OS2StrikeYPos: 258
OS2Vendor: 'PfEd'
OS2CodePages: 00000001.00000000
OS2UnicodeRanges: 00000003.000000c0.00000000.00000000
DEI: 91125
LangName: 1033 "" "" "" "FontForge 2.0 : Untitled1 : 14-8-2019"
Encoding: UnicodeFull
Compacted: 1
UnicodeInterp: none
NameList: AGL For New Fonts
DisplaySize: -96
AntiAlias: 1
FitToEm: 0
WinInfo: 0 18 9
BeginPrivate: 5
BlueShift 1 0
StdHW 5 [568]
StdVW 5 [555]
StemSnapH 33 [4 13 40 50 54 60 94 100 110 122]
StemSnapV 30 [5 19 52 60 83 94 100 110 555]
EndPrivate
BeginChars: 1114112 193

StartChar: plus
Encoding: 43 43 0
Width: 780
Flags: HMW
LayerCount: 2
Fore
SplineSet
372 -95 m 0
 366 -95 360 -88 360 -81 c 2
 360 220 l 2
 360 223 359 225 356 225 c 2
 64 225 l 2
 57 225 50 231 50 237 c 0
 50 246 56 275 74 275 c 2
 353 275 l 2
 359 275 360 277 360 283 c 2
 360 544 l 2
 360 566 400 575 406 575 c 0
 413 575 420 569 420 562 c 2
 420 281 l 2
 420 276 420 275 422 275 c 2
 717 275 l 2
 724 275 730 271 730 265 c 0
 730 248 718 225 699 225 c 2
 424 225 l 2
 421 225 420 224 420 221 c 2
 420 -71 l 2
 420 -92 381 -95 372 -95 c 0
EndSplineSet
EndChar

StartChar: less
Encoding: 60 60 1
Width: 714
Flags: HMW
LayerCount: 2
Fore
SplineSet
644 -66 m 2
 91 211 l 2
 74 219 50 232 50 238 c 0
 50 247 63 274 83 284 c 2
 646 562 l 2
 649 564 653 565 654 565 c 0
 660 565 663 561 663 555 c 0
 663 543 652 514 632 504 c 2
 129 250 l 2
 127 249 128 246 130 245 c 2
 640 -9 l 2
 659 -18 664 -48 664 -57 c 0
 664 -70 651 -69 644 -66 c 2
EndSplineSet
EndChar

StartChar: equal
Encoding: 61 61 2
Width: 726
Flags: HMW
LayerCount: 2
Fore
SplineSet
64 321 m 2
 57 321 50 327 50 333 c 0
 50 342 56 371 74 371 c 2
 662 371 l 2
 668 371 676 366 676 360 c 0
 676 346 660 321 644 321 c 2
 64 321 l 2
64 130 m 2
 57 130 50 136 50 142 c 0
 50 151 56 180 74 180 c 2
 662 180 l 2
 668 180 676 175 676 169 c 0
 676 151 660 130 644 130 c 2
 64 130 l 2
EndSplineSet
EndChar

StartChar: greater
Encoding: 62 62 3
Width: 714
Flags: HMW
LayerCount: 2
Fore
SplineSet
70 563.09765625 m 2
 623 286.09765625 l 2
 640 278.09765625 664 265.09765625 664 259.09765625 c 0
 664 250.09765625 651 223.09765625 631 213.09765625 c 2
 68 -64.90234375 l 2
 65 -66.90234375 61 -67.90234375 60 -67.90234375 c 0
 54 -67.90234375 51 -63.90234375 51 -57.90234375 c 0
 51 -45.90234375 62 -16.90234375 82 -6.90234375 c 2
 585 247.09765625 l 2
 587 248.09765625 586 251.09765625 584 252.09765625 c 2
 74 506.09765625 l 2
 55 515.09765625 50 545.09765625 50 554.09765625 c 0
 50 567.09765625 63 566.09765625 70 563.09765625 c 2
EndSplineSet
EndChar

StartChar: plusminus
Encoding: 177 177 4
Width: 780
Flags: HMW
LayerCount: 2
Fore
SplineSet
64 -105 m 2
 699 -105 l 2
 718 -105 730 -82 730 -65 c 0
 730 -59 724 -55 717 -55 c 2
 74 -55 l 2
 56 -55 50 -84 50 -93 c 0
 50 -99 57 -105 64 -105 c 2
372 -95 m 0
 381 -95 420 -92 420 -71 c 2
 420 221 l 2
 420 224 421 225 424 225 c 2
 699 225 l 2
 718 225 730 248 730 265 c 0
 730 271 724 275 717 275 c 2
 422 275 l 2
 420 275 420 276 420 281 c 2
 420 562 l 2
 420 569 413 575 406 575 c 0
 400 575 360 566 360 544 c 2
 360 283 l 2
 360 277 359 275 353 275 c 2
 74 275 l 2
 56 275 50 246 50 237 c 0
 50 231 57 225 64 225 c 2
 356 225 l 2
 359 225 360 223 360 220 c 2
 360 -81 l 2
 360 -88 366 -95 372 -95 c 0
EndSplineSet
EndChar

StartChar: multiply
Encoding: 215 215 5
Width: 612
Flags: HMW
LayerCount: 2
Fore
SplineSet
532 -10 m 0
 528 -10 525 -9 522 -6 c 2
 310 207 l 2
 308 209 305 209 303 207 c 2
 90 -6 l 2
 85 -11 76 -11 72 -7 c 0
 67 -2 50 17 50 32 c 0
 50 36 52 41 55 44 c 2
 259 248 l 2
 263 252 262 254 258 258 c 2
 59 456 l 2
 55 460 54 465 54 470 c 0
 54 486 67 507 70 511 c 0
 75 516 84 516 89 511 c 2
 302 299 l 2
 307 294 307 296 309 298 c 2
 523 511 l 2
 526 514 529 516 533 516 c 0
 536 516 540 514 542 511 c 0
 549 498 559 483 559 471 c 0
 559 466 557 461 552 456 c 2
 351 255 l 2
 349 253 349 252 351 250 c 2
 557 44 l 2
 560 41 562 37 562 32 c 0
 562 14 543 -10 532 -10 c 0
EndSplineSet
EndChar

StartChar: divide
Encoding: 247 247 6
Width: 759
Flags: HMW
LayerCount: 2
Fore
SplineSet
376 396 m 0
 351 396 329 417 329 443 c 0
 329 469 351 490 376 490 c 0
 402 490 423 469 423 443 c 0
 423 417 402 396 376 396 c 0
64 225 m 2
 57 225 50 230 50 235 c 0
 50 243 53 276 73 276 c 2
 697 276 l 2
 702 276 709 271 709 266 c 0
 709 247 697 225 679 225 c 2
 64 225 l 2
377 11 m 0
 352 11 330 32 330 58 c 0
 330 84 352 105 377 105 c 0
 403 105 424 84 424 58 c 0
 424 32 403 11 377 11 c 0
EndSplineSet
EndChar

StartChar: element
Encoding: 8712 8712 7
Width: 524
Flags: HMW
LayerCount: 2
Fore
SplineSet
85 275 m 1
 85 225 l 1
 450 225 l 2
 468 225 474 254 474 263 c 0
 474 269 467 275 460 275 c 2
 85 275 l 1
460 4 m 2
 365 4 l 2
 220 4 104 107 104 250 c 0
 104 393 216 498 365 498 c 2
 450 498 l 2
 468 498 474 527 474 536 c 0
 474 542 467 548 460 548 c 2
 365 548 l 2
 157 548 50 405 50 250 c 0
 50 95 157 -46 365 -46 c 2
 450 -46 l 2
 468 -46 474 -17 474 -8 c 0
 474 -2 467 4 460 4 c 2
EndSplineSet
EndChar

StartChar: notelement
Encoding: 8713 8713 8
Width: 524
Flags: HMW
LayerCount: 2
Fore
SplineSet
85 275 m 1
 85 225 l 1
 450 225 l 2
 468 225 474 254 474 263 c 0
 474 269 467 275 460 275 c 2
 85 275 l 1
460 4 m 2
 365 4 l 2
 220 4 104 107 104 250 c 0
 104 393 216 498 365 498 c 2
 450 498 l 2
 468 498 474 527 474 536 c 0
 474 542 467 548 460 548 c 2
 365 548 l 2
 157 548 50 405 50 250 c 0
 50 95 157 -46 365 -46 c 2
 450 -46 l 2
 468 -46 474 -17 474 -8 c 0
 474 -2 467 4 460 4 c 2
448 709 m 2
 450 717 446 725 439 725 c 0
 419 725 396 714 390 694 c 2
 140 -209 l 2
 138 -217 142 -225 149 -225 c 0
 169 -225 192 -214 198 -194 c 2
 448 709 l 2
EndSplineSet
EndChar

StartChar: suchthat
Encoding: 8715 8715 9
Width: 524
Flags: HMW
LayerCount: 2
Fore
SplineSet
439 227 m 1
 64 227 l 2
 57 227 50 233 50 239 c 0
 50 248 56 277 74 277 c 2
 439 277 l 1
 439 227 l 1
64 498 m 2
 57 498 50 504 50 510 c 0
 50 519 56 548 74 548 c 2
 159 548 l 2
 367 548 474 407 474 252 c 0
 474 97 367 -46 159 -46 c 2
 64 -46 l 2
 57 -46 50 -40 50 -34 c 0
 50 -25 56 4 74 4 c 2
 159 4 l 2
 308 4 420 109 420 252 c 0
 420 395 304 498 159 498 c 2
 64 498 l 2
EndSplineSet
EndChar

StartChar: uni220C
Encoding: 8716 8716 10
Width: 524
Flags: HMW
LayerCount: 2
Fore
SplineSet
439 227 m 1
 64 227 l 2
 57 227 50 233 50 239 c 0
 50 248 56 277 74 277 c 2
 439 277 l 1
 439 227 l 1
64 498 m 2
 57 498 50 504 50 510 c 0
 50 519 56 548 74 548 c 2
 159 548 l 2
 367 548 474 407 474 252 c 0
 474 97 367 -46 159 -46 c 2
 64 -46 l 2
 57 -46 50 -40 50 -34 c 0
 50 -25 56 4 74 4 c 2
 159 4 l 2
 308 4 420 109 420 252 c 0
 420 395 304 498 159 498 c 2
 64 498 l 2
388 709 m 2
 138 -194 l 2
 132 -214 109 -225 89 -225 c 0
 82 -225 78 -217 80 -209 c 2
 330 694 l 2
 336 714 359 725 379 725 c 0
 386 725 390 717 388 709 c 2
EndSplineSet
EndChar

StartChar: minus
Encoding: 8722 8722 11
Width: 760
Flags: HMW
LayerCount: 2
Fore
SplineSet
64 220 m 2
 57 220 50 226 50 232 c 0
 50 241 53 280 74 280 c 2
 697 280 l 2
 703 280 710 274 710 268 c 0
 710 246 697 220 679 220 c 2
 64 220 l 2
EndSplineSet
EndChar

StartChar: uni2213
Encoding: 8723 8723 12
Width: 780
Flags: HMW
LayerCount: 2
Fore
SplineSet
716 605 m 2
 723 605 730 599 730 593 c 0
 730 584 724 555 706 555 c 2
 63 555 l 2
 56 555 50 559 50 565 c 0
 50 582 62 605 81 605 c 2
 716 605 l 2
408 595 m 0
 414 595 420 588 420 581 c 2
 420 280 l 2
 420 277 421 275 424 275 c 2
 716 275 l 2
 723 275 730 269 730 263 c 0
 730 254 724 225 706 225 c 2
 427 225 l 2
 421 225 420 223 420 217 c 2
 420 -44 l 2
 420 -66 380 -75 374 -75 c 0
 367 -75 360 -69 360 -62 c 2
 360 219 l 2
 360 224 360 225 358 225 c 2
 63 225 l 2
 56 225 50 229 50 235 c 0
 50 252 62 275 81 275 c 2
 356 275 l 2
 359 275 360 276 360 279 c 2
 360 571 l 2
 360 592 399 595 408 595 c 0
EndSplineSet
EndChar

StartChar: uni2214
Encoding: 8724 8724 13
Width: 780
Flags: HMW
LayerCount: 2
Fore
SplineSet
391 597 m 0
 366 597 341 622 341 647 c 0
 341 672 366 697 391 697 c 0
 416 697 441 672 441 647 c 0
 441 622 416 597 391 597 c 0
372 -95 m 0
 366 -95 360 -88 360 -81 c 2
 360 220 l 2
 360 223 359 225 356 225 c 2
 64 225 l 2
 57 225 50 231 50 237 c 0
 50 246 56 275 74 275 c 2
 353 275 l 2
 359 275 360 277 360 283 c 2
 360 544 l 2
 360 566 400 575 406 575 c 0
 413 575 420 569 420 562 c 2
 420 281 l 2
 420 276 420 275 422 275 c 2
 717 275 l 2
 724 275 730 271 730 265 c 0
 730 248 718 225 699 225 c 2
 424 225 l 2
 421 225 420 224 420 221 c 2
 420 -71 l 2
 420 -92 381 -95 372 -95 c 0
EndSplineSet
EndChar

StartChar: orthogonal
Encoding: 8735 8735 14
Width: 714
Flags: HMW
LayerCount: 2
Fore
SplineSet
632 0 m 2
 79 0 l 2
 62 0 50 5 50 13 c 2
 51 606 l 2
 51 627 71 638 91 638 c 0
 98 638 104 630 104 622 c 2
 104 90 l 2
 104 63 114 50 139 50 c 2
 650 50 l 2
 656 50 664 45 664 39 c 0
 664 21 648 0 632 0 c 2
EndSplineSet
EndChar

StartChar: angle
Encoding: 8736 8736 15
Width: 724
Flags: HMW
LayerCount: 2
Fore
SplineSet
642 1 m 2
 77 1 l 2
 63 1 50 14 50 28 c 2
 50 33 l 2
 50 47 51 54 66 69 c 2
 588 569 l 2
 602 583 631 589 648 589 c 0
 658 589 662 581 662 575 c 0
 662 571 661 567 659 565 c 2
 160 82 l 2
 155 77 151 71 151 66 c 0
 151 58 159 51 181 51 c 2
 660 51 l 2
 666 51 674 46 674 40 c 0
 674 22 658 1 642 1 c 2
EndSplineSet
EndChar

StartChar: uni2221
Encoding: 8737 8737 16
Width: 724
Flags: HMW
LayerCount: 2
Fore
SplineSet
172.407226562 371.413085938 m 1
 334.446289062 339.741210938 456 197.581054688 456 26 c 0
 456 -28.0029296875 443.958984375 -79.091796875 422.404296875 -124.73828125 c 1
 377.084960938 -103.283203125 l 1
 395.630859375 -64.1083984375 406 -20.283203125 406 26 c 0
 406 172.916015625 301.518554688 295.06640625 162.684570312 322.322265625 c 1
 172.407226562 371.413085938 l 1
642 1 m 2
 77 1 l 2
 63 1 50 14 50 28 c 2
 50 33 l 2
 50 47 51 54 66 69 c 2
 588 569 l 2
 602 583 631 589 648 589 c 0
 658 589 662 581 662 575 c 0
 662 571 661 567 659 565 c 2
 160 82 l 2
 155 77 151 71 151 66 c 0
 151 58 159 51 181 51 c 2
 660 51 l 2
 666 51 674 46 674 40 c 0
 674 22 658 1 642 1 c 2
EndSplineSet
EndChar

StartChar: uni2222
Encoding: 8738 8738 17
Width: 714
Flags: HMW
LayerCount: 2
Fore
SplineSet
297.358398438 536.123046875 m 1
 382.294921875 471.974609375 437.000976562 370.107421875 437.000976562 255 c 0
 437.000976562 143.051757812 385.256835938 43.6279296875 304.284179688 -20.755859375 c 1
 272.690429688 18.2548828125 l 1
 342.37109375 73.5390625 387.000976562 158.98046875 387.000976562 255 c 0
 387.000976562 353.409179688 340.123046875 440.706054688 267.442382812 495.815429688 c 1
 297.358398438 536.123046875 l 1
644 -66 m 2
 91 211 l 2
 74 219 50 232 50 238 c 0
 50 247 63 274 83 284 c 2
 646 562 l 2
 649 564 653 565 654 565 c 0
 660 565 663 561 663 555 c 0
 663 543 652 514 632 504 c 2
 129 250 l 2
 127 249 128 246 130 245 c 2
 640 -9 l 2
 659 -18 664 -48 664 -57 c 0
 664 -70 651 -69 644 -66 c 2
EndSplineSet
EndChar

StartChar: logicaland
Encoding: 8743 8743 18
Width: 732
Flags: HMW
LayerCount: 2
Fore
SplineSet
51.90234375 -38.451171875 m 2
 328.90234375 514.548828125 l 2
 336.90234375 531.548828125 349.90234375 555.548828125 355.90234375 555.548828125 c 0
 364.90234375 555.548828125 391.90234375 542.548828125 401.90234375 522.548828125 c 2
 679.90234375 -40.451171875 l 2
 681.90234375 -43.451171875 682.90234375 -47.451171875 682.90234375 -48.451171875 c 0
 682.90234375 -54.451171875 678.90234375 -57.451171875 672.90234375 -57.451171875 c 0
 660.90234375 -57.451171875 631.90234375 -46.451171875 621.90234375 -26.451171875 c 2
 367.90234375 476.548828125 l 2
 366.90234375 478.548828125 363.90234375 477.548828125 362.90234375 475.548828125 c 2
 108.90234375 -34.451171875 l 2
 99.90234375 -53.451171875 69.90234375 -58.451171875 60.90234375 -58.451171875 c 0
 47.90234375 -58.451171875 48.90234375 -45.451171875 51.90234375 -38.451171875 c 2
EndSplineSet
EndChar

StartChar: logicalor
Encoding: 8744 8744 19
Width: 732
Flags: HMW
LayerCount: 2
Fore
SplineSet
681 535.548828125 m 2
 404 -17.451171875 l 2
 396 -34.451171875 383 -58.451171875 377 -58.451171875 c 0
 368 -58.451171875 341 -45.451171875 331 -25.451171875 c 2
 53 537.548828125 l 2
 51 540.548828125 50 544.548828125 50 545.548828125 c 0
 50 551.548828125 54 554.548828125 60 554.548828125 c 0
 72 554.548828125 101 543.548828125 111 523.548828125 c 2
 365 20.548828125 l 2
 366 18.548828125 369 19.548828125 370 21.548828125 c 2
 624 531.548828125 l 2
 633 550.548828125 663 555.548828125 672 555.548828125 c 0
 685 555.548828125 684 542.548828125 681 535.548828125 c 2
EndSplineSet
EndChar

StartChar: intersection
Encoding: 8745 8745 20
Width: 694
Flags: HMW
LayerCount: 2
Fore
SplineSet
100 -42 m 2
 100 -49 94 -56 88 -56 c 0
 79 -56 50 -50 50 -32 c 2
 50 243 l 2
 50 451 191 558 346 558 c 0
 501 558 644 451 644 243 c 2
 644 -42 l 2
 644 -49 638 -56 632 -56 c 0
 623 -56 594 -50 594 -32 c 2
 594 243 l 2
 594 392 489 504 346 504 c 0
 203 504 100 388 100 243 c 2
 100 -42 l 2
EndSplineSet
EndChar

StartChar: union
Encoding: 8746 8746 21
Width: 694
Flags: HMW
LayerCount: 2
Fore
SplineSet
594 544 m 2
 594 551 600 558 606 558 c 0
 615 558 644 552 644 534 c 2
 644 259 l 2
 644 51 503 -56 348 -56 c 0
 193 -56 50 51 50 259 c 2
 50 544 l 2
 50 551 56 558 62 558 c 0
 71 558 100 552 100 534 c 2
 100 259 l 2
 100 110 205 -2 348 -2 c 0
 491 -2 594 114 594 259 c 2
 594 544 l 2
EndSplineSet
EndChar

StartChar: uni2238
Encoding: 8760 8760 22
Width: 760
Flags: HMW
LayerCount: 2
Fore
SplineSet
64 220 m 2
 57 220 50 226 50 232 c 0
 50 241 53 280 74 280 c 2
 697 280 l 2
 703 280 710 274 710 268 c 0
 710 246 697 220 679 220 c 2
 64 220 l 2
376 395 m 0
 351 395 329 416 329 442 c 0
 329 468 351 489 376 489 c 0
 402 489 423 468 423 442 c 0
 423 416 402 395 376 395 c 0
50 234 m 1024
EndSplineSet
EndChar

StartChar: uni2239
Encoding: 8761 8761 23
Width: 759
Flags: HMW
LayerCount: 2
Fore
SplineSet
661 395 m 0
 636 395 614 416 614 442 c 0
 614 468 636 489 661 489 c 0
 687 489 708 468 708 442 c 0
 708 416 687 395 661 395 c 0
64 224 m 2
 57 224 50 229 50 234 c 0
 50 242 53 275 73 275 c 2
 697 275 l 2
 702 275 709 270 709 265 c 0
 709 246 697 224 679 224 c 2
 64 224 l 2
662 10 m 0
 637 10 615 31 615 57 c 0
 615 83 637 104 662 104 c 0
 688 104 709 83 709 57 c 0
 709 31 688 10 662 10 c 0
EndSplineSet
EndChar

StartChar: uni223A
Encoding: 8762 8762 24
Width: 759
Flags: HMW
LayerCount: 2
Fore
SplineSet
661 395 m 4
 636 395 614 416 614 442 c 4
 614 468 636 489 661 489 c 4
 687 489 708 468 708 442 c 4
 708 416 687 395 661 395 c 4
662 10 m 4
 637 10 615 31 615 57 c 4
 615 83 637 104 662 104 c 4
 688 104 709 83 709 57 c 4
 709 31 688 10 662 10 c 4
97 395 m 4
 72 395 50 416 50 442 c 4
 50 468 72 489 97 489 c 4
 123 489 144 468 144 442 c 4
 144 416 123 395 97 395 c 4
64 224 m 6
 57 224 50 229 50 234 c 4
 50 242 53 275 73 275 c 6
 697 275 l 6
 702 275 709 270 709 265 c 4
 709 246 697 224 679 224 c 6
 64 224 l 6
98 10 m 4
 73 10 51 31 51 57 c 4
 51 83 73 104 98 104 c 4
 124 104 145 83 145 57 c 4
 145 31 124 10 98 10 c 4
EndSplineSet
EndChar

StartChar: uni223B
Encoding: 8763 8763 25
Width: 726
Flags: HMW
LayerCount: 2
Fore
SplineSet
359 396 m 0
 334 396 312 417 312 443 c 0
 312 469 334 490 359 490 c 0
 385 490 406 469 406 443 c 0
 406 417 385 396 359 396 c 0
360 11 m 0
 335 11 313 32 313 58 c 0
 313 84 335 105 360 105 c 0
 386 105 407 84 407 58 c 0
 407 32 386 11 360 11 c 0
506 148 m 0
 383 148 318 298 221 298 c 0
 133 298 74 196 69 196 c 0
 61 196 50 203 50 210 c 0
 50 237 121 352 228 352 c 0
 349 352 418 202 506 202 c 0
 588 202 651 313 656 313 c 0
 661 313 676 306 676 293 c 0
 676 252 592 148 506 148 c 0
EndSplineSet
EndChar

StartChar: similar
Encoding: 8764 8764 26
Width: 726
Flags: HMW
LayerCount: 2
Fore
SplineSet
506 148 m 0
 383 148 318 298 221 298 c 0
 133 298 74 196 69 196 c 0
 61 196 50 203 50 210 c 0
 50 237 121 352 228 352 c 0
 349 352 418 202 506 202 c 0
 588 202 651 313 656 313 c 0
 661 313 676 306 676 293 c 0
 676 252 592 148 506 148 c 0
EndSplineSet
EndChar

StartChar: uni223D
Encoding: 8765 8765 27
Width: 726
Flags: HMW
LayerCount: 2
Fore
SplineSet
220 148 m 0
 134 148 50 252 50 293 c 0
 50 306 65 313 70 313 c 0
 75 313 138 202 220 202 c 0
 308 202 377 352 498 352 c 0
 605 352 676 237 676 210 c 0
 676 203 665 196 657 196 c 0
 652 196 593 298 505 298 c 0
 408 298 343 148 220 148 c 0
EndSplineSet
EndChar

StartChar: uni223E
Encoding: 8766 8766 28
Width: 726
Flags: HMW
LayerCount: 2
Fore
SplineSet
506 98 m 0
 383 98 318 348 221 348 c 0
 133 348 74 196 69 196 c 0
 61 196 50 203 50 210 c 0
 50 237 121 402 228 402 c 0
 349 402 418 152 506 152 c 0
 588 152 651 313 656 313 c 0
 661 313 676 306 676 293 c 0
 676 252 592 98 506 98 c 0
EndSplineSet
EndChar

StartChar: uni223F
Encoding: 8767 8767 29
Width: 726
Flags: HMW
LayerCount: 2
Fore
SplineSet
506 99 m 0
 383 99 318 349 221 349 c 0
 133 349 74 197 69 197 c 0
 61 197 50 204 50 211 c 0
 50 238 121 403 228 403 c 0
 349 403 418 153 506 153 c 0
 588 153 651 314 656 314 c 0
 661 314 676 307 676 294 c 0
 676 253 592 99 506 99 c 0
EndSplineSet
EndChar

StartChar: uni2240
Encoding: 8768 8768 30
Width: 304
Flags: HMW
LayerCount: 2
Fore
SplineSet
254 393 m 0
 254 270 104 205 104 108 c 0
 104 20 206 -39 206 -44 c 0
 206 -52 199 -63 192 -63 c 0
 165 -63 50 8 50 115 c 0
 50 236 200 305 200 393 c 0
 200 475 89 538 89 543 c 0
 89 548 96 563 109 563 c 0
 150 563 254 479 254 393 c 0
EndSplineSet
EndChar

StartChar: uni2241
Encoding: 8769 8769 31
Width: 726
Flags: HMW
LayerCount: 2
Fore
SplineSet
473 559 m 2
 307 -44 l 2
 301 -64 278 -75 258 -75 c 0
 251 -75 247 -67 249 -59 c 2
 415 544 l 2
 421 564 444 575 464 575 c 0
 471 575 475 567 473 559 c 2
506 148 m 0
 383 148 318 298 221 298 c 0
 133 298 74 196 69 196 c 0
 61 196 50 203 50 210 c 0
 50 237 121 352 228 352 c 0
 349 352 418 202 506 202 c 0
 588 202 651 313 656 313 c 0
 661 313 676 306 676 293 c 0
 676 252 592 148 506 148 c 0
EndSplineSet
EndChar

StartChar: uni2242
Encoding: 8770 8770 32
Width: 726
Flags: HMW
LayerCount: 2
Fore
SplineSet
506 53 m 0
 383 53 318 203 221 203 c 0
 133 203 74 101 69 101 c 0
 61 101 50 108 50 115 c 0
 50 142 121 257 228 257 c 0
 349 257 418 107 506 107 c 0
 588 107 651 218 656 218 c 0
 661 218 676 211 676 198 c 0
 676 157 592 53 506 53 c 0
64 321 m 2
 57 321 50 327 50 333 c 0
 50 342 56 371 74 371 c 2
 662 371 l 2
 668 371 676 366 676 360 c 0
 676 346 660 321 644 321 c 2
 64 321 l 2
EndSplineSet
EndChar

StartChar: uni2243
Encoding: 8771 8771 33
Width: 726
Flags: HMW
LayerCount: 2
Fore
SplineSet
220 448 m 0
 343 448 408 298 505 298 c 0
 593 298 652 400 657 400 c 0
 665 400 676 393 676 386 c 0
 676 359 605 244 498 244 c 0
 377 244 308 394 220 394 c 0
 138 394 75 283 70 283 c 0
 65 283 50 290 50 303 c 0
 50 344 134 448 220 448 c 0
662 180 m 2
 669 180 676 174 676 168 c 0
 676 159 670 130 652 130 c 2
 64 130 l 2
 58 130 50 135 50 141 c 0
 50 155 66 180 82 180 c 2
 662 180 l 2
EndSplineSet
EndChar

StartChar: uni2244
Encoding: 8772 8772 34
Width: 726
Flags: HMW
LayerCount: 2
Fore
SplineSet
500 634 m 6
 292 -119 l 6
 286 -139 263 -150 243 -150 c 4
 236 -150 232 -142 234 -134 c 6
 442 619 l 6
 448 639 471 650 491 650 c 4
 498 650 502 642 500 634 c 6
220 448 m 0
 343 448 408 298 505 298 c 0
 593 298 652 400 657 400 c 0
 665 400 676 393 676 386 c 0
 676 359 605 244 498 244 c 0
 377 244 308 394 220 394 c 0
 138 394 75 283 70 283 c 0
 65 283 50 290 50 303 c 0
 50 344 134 448 220 448 c 0
662 180 m 2
 669 180 676 174 676 168 c 0
 676 159 670 130 652 130 c 2
 64 130 l 2
 58 130 50 135 50 141 c 0
 50 155 66 180 82 180 c 2
 662 180 l 2
EndSplineSet
EndChar

StartChar: congruent
Encoding: 8773 8773 35
Width: 726
Flags: HMW
LayerCount: 2
Fore
SplineSet
64 55 m 2
 57 55 50 61 50 67 c 0
 50 76 56 105 74 105 c 2
 662 105 l 2
 668 105 676 100 676 94 c 0
 676 80 660 55 644 55 c 2
 64 55 l 2
506 318 m 0
 383 318 318 468 221 468 c 0
 133 468 74 366 69 366 c 0
 61 366 50 373 50 380 c 0
 50 407 121 522 228 522 c 0
 349 522 418 372 506 372 c 0
 588 372 651 483 656 483 c 0
 661 483 676 476 676 463 c 0
 676 422 592 318 506 318 c 0
64 225 m 2
 57 225 50 231 50 237 c 0
 50 246 56 275 74 275 c 2
 662 275 l 2
 668 275 676 270 676 264 c 0
 676 250 660 225 644 225 c 2
 64 225 l 2
EndSplineSet
EndChar

StartChar: uni2246
Encoding: 8774 8774 36
Width: 726
Flags: HMW
LayerCount: 2
Fore
SplineSet
432 306 m 6
 332 -61 l 6
 326 -81 303 -92 283 -92 c 4
 276 -92 272 -84 274 -76 c 6
 374 291 l 6
 379 311 403 322 423 322 c 4
 430 322 434 314 432 306 c 6
64 55 m 6
 57 55 50 61 50 67 c 4
 50 76 56 105 74 105 c 6
 662 105 l 6
 668 105 676 100 676 94 c 4
 676 80 660 55 644 55 c 6
 64 55 l 6
506 318 m 0
 383 318 318 468 221 468 c 0
 133 468 74 366 69 366 c 0
 61 366 50 373 50 380 c 0
 50 407 121 522 228 522 c 0
 349 522 418 372 506 372 c 0
 588 372 651 483 656 483 c 0
 661 483 676 476 676 463 c 0
 676 422 592 318 506 318 c 0
64 225 m 6
 57 225 50 231 50 237 c 4
 50 246 56 275 74 275 c 6
 662 275 l 6
 668 275 676 270 676 264 c 4
 676 250 660 225 644 225 c 6
 64 225 l 6
EndSplineSet
EndChar

StartChar: uni2247
Encoding: 8775 8775 37
Width: 726
Flags: HMW
LayerCount: 2
Fore
SplineSet
510 671 m 2
 282 -156 l 2
 276 -176 253 -187 233 -187 c 0
 226 -187 222 -179 224 -171 c 2
 452 656 l 2
 458 676 481 687 501 687 c 0
 508 687 512 679 510 671 c 2
64 55 m 2
 57 55 50 61 50 67 c 0
 50 76 56 105 74 105 c 2
 662 105 l 2
 668 105 676 100 676 94 c 0
 676 80 660 55 644 55 c 2
 64 55 l 2
506 318 m 0
 383 318 318 468 221 468 c 0
 133 468 74 366 69 366 c 0
 61 366 50 373 50 380 c 0
 50 407 121 522 228 522 c 0
 349 522 418 372 506 372 c 0
 588 372 651 483 656 483 c 0
 661 483 676 476 676 463 c 0
 676 422 592 318 506 318 c 0
64 225 m 2
 57 225 50 231 50 237 c 0
 50 246 56 275 74 275 c 2
 662 275 l 2
 668 275 676 270 676 264 c 0
 676 250 660 225 644 225 c 2
 64 225 l 2
EndSplineSet
EndChar

StartChar: approxequal
Encoding: 8776 8776 38
Width: 726
Flags: HMW
LayerCount: 2
Fore
SplineSet
506 243 m 0
 383 243 318 393 221 393 c 0
 133 393 74 291 69 291 c 0
 61 291 50 298 50 305 c 0
 50 332 121 447 228 447 c 0
 349 447 418 297 506 297 c 0
 588 297 651 408 656 408 c 0
 661 408 676 401 676 388 c 0
 676 347 592 243 506 243 c 0
506 53 m 0
 383 53 318 203 221 203 c 0
 133 203 74 101 69 101 c 0
 61 101 50 108 50 115 c 0
 50 142 121 257 228 257 c 0
 349 257 418 107 506 107 c 0
 588 107 651 218 656 218 c 0
 661 218 676 211 676 198 c 0
 676 157 592 53 506 53 c 0
EndSplineSet
EndChar

StartChar: uni2249
Encoding: 8777 8777 39
Width: 726
Flags: HMW
LayerCount: 2
Fore
SplineSet
500 634 m 6
 292 -119 l 6
 286 -139 263 -150 243 -150 c 4
 236 -150 232 -142 234 -134 c 6
 442 619 l 6
 448 639 471 650 491 650 c 4
 498 650 502 642 500 634 c 6
506 243 m 0
 383 243 318 393 221 393 c 0
 133 393 74 291 69 291 c 0
 61 291 50 298 50 305 c 0
 50 332 121 447 228 447 c 0
 349 447 418 297 506 297 c 0
 588 297 651 408 656 408 c 0
 661 408 676 401 676 388 c 0
 676 347 592 243 506 243 c 0
506 53 m 0
 383 53 318 203 221 203 c 0
 133 203 74 101 69 101 c 0
 61 101 50 108 50 115 c 0
 50 142 121 257 228 257 c 0
 349 257 418 107 506 107 c 0
 588 107 651 218 656 218 c 0
 661 218 676 211 676 198 c 0
 676 157 592 53 506 53 c 0
EndSplineSet
EndChar

StartChar: uni224A
Encoding: 8778 8778 40
Width: 726
Flags: HMW
LayerCount: 2
Fore
SplineSet
64 55 m 2
 57 55 50 61 50 67 c 0
 50 76 56 105 74 105 c 2
 662 105 l 2
 668 105 676 100 676 94 c 0
 676 80 660 55 644 55 c 2
 64 55 l 2
506 318 m 0
 383 318 318 468 221 468 c 0
 133 468 74 366 69 366 c 0
 61 366 50 373 50 380 c 0
 50 407 121 522 228 522 c 0
 349 522 418 372 506 372 c 0
 588 372 651 483 656 483 c 0
 661 483 676 476 676 463 c 0
 676 422 592 318 506 318 c 0
506 148 m 0
 383 148 318 298 221 298 c 0
 133 298 74 196 69 196 c 0
 61 196 50 203 50 210 c 0
 50 237 121 352 228 352 c 0
 349 352 418 202 506 202 c 0
 588 202 651 313 656 313 c 0
 661 313 676 306 676 293 c 0
 676 252 592 148 506 148 c 0
EndSplineSet
EndChar

StartChar: uni224B
Encoding: 8779 8779 41
Width: 726
Flags: HMW
LayerCount: 2
Fore
SplineSet
506 -22 m 0
 383 -22 318 128 221 128 c 0
 133 128 74 26 69 26 c 0
 61 26 50 33 50 40 c 0
 50 67 121 182 228 182 c 0
 349 182 418 32 506 32 c 0
 588 32 651 143 656 143 c 0
 661 143 676 136 676 123 c 0
 676 82 592 -22 506 -22 c 0
506 318 m 0
 383 318 318 468 221 468 c 0
 133 468 74 366 69 366 c 0
 61 366 50 373 50 380 c 0
 50 407 121 522 228 522 c 0
 349 522 418 372 506 372 c 0
 588 372 651 483 656 483 c 0
 661 483 676 476 676 463 c 0
 676 422 592 318 506 318 c 0
506 148 m 4
 383 148 318 298 221 298 c 0
 133 298 74 196 69 196 c 0
 61 196 50 203 50 210 c 0
 50 237 121 352 228 352 c 0
 349 352 418 202 506 202 c 0
 588 202 651 313 656 313 c 0
 661 313 676 306 676 293 c 0
 676 252 592 148 506 148 c 4
EndSplineSet
EndChar

StartChar: uni224C
Encoding: 8780 8780 42
Width: 726
Flags: HMW
LayerCount: 2
Fore
SplineSet
220 318 m 0
 134 318 50 422 50 463 c 0
 50 476 65 483 70 483 c 0
 75 483 138 372 220 372 c 0
 308 372 377 522 498 522 c 0
 605 522 676 407 676 380 c 0
 676 373 665 366 657 366 c 0
 652 366 593 468 505 468 c 0
 408 468 343 318 220 318 c 0
64 55 m 2
 57 55 50 61 50 67 c 0
 50 76 56 105 74 105 c 2
 662 105 l 2
 668 105 676 100 676 94 c 0
 676 80 660 55 644 55 c 2
 64 55 l 2
64 225 m 2
 57 225 50 231 50 237 c 0
 50 246 56 275 74 275 c 2
 662 275 l 2
 668 275 676 270 676 264 c 0
 676 250 660 225 644 225 c 2
 64 225 l 2
EndSplineSet
EndChar

StartChar: uni224D
Encoding: 8781 8781 43
Width: 706
Flags: HMW
LayerCount: 2
Fore
SplineSet
79 327 m 0
 59 337 50 365 50 387 c 0
 50 394 56.9270406128 396.881324281 65 392 c 0
 151 340 252 320 353 320 c 0
 454 320 554 340 641 392 c 0
 649.097773254 396.840048381 656 394 656 387 c 0
 656 365 647.048075241 336.903266083 627 327 c 0
 544 286 449 271 353 271 c 0
 257 271 161 286 79 327 c 0
79 173 m 0
 161 214 257 230 353 230 c 0
 449 230 544 214 627 173 c 0
 647.048075241 163.096733917 656 135 656 113 c 0
 656 106 649.097773254 103.159951619 641 108 c 0
 554 160 454 181 353 181 c 0
 252 181 151 160 65 108 c 0
 56.9270406128 103.118675719 50 106 50 113 c 0
 50 135 59 163 79 173 c 0
EndSplineSet
EndChar

StartChar: uni224E
Encoding: 8782 8782 44
Width: 726
Flags: HMW
LayerCount: 2
Fore
SplineSet
363 18 m 0
 436.5703125 18 500 74.7373046875 500 155 c 0
 500 163.544921875 499.228515625 171.899414062 497.751953125 180 c 1
 662 180 l 2
 669 180 676 174 676 168 c 0
 676 159 670 130 652 130 c 2
 548.376953125 130 l 1
 536.318359375 38.009765625 458.515625 -32 363 -32 c 0
 267.484375 -32 189.681640625 38.009765625 177.623046875 130 c 1
 64 130 l 2
 58 130 50 135 50 141 c 0
 50 155 66 180 82 180 c 2
 228.248046875 180 l 1
 226.771484375 171.899414062 226 163.544921875 226 155 c 0
 226 74.6689453125 289.443359375 18 363 18 c 0
363 483 m 0
 289.429312065 483 226 426.262328699 226 346 c 0
 226 337.455264924 226.771080739 329.100139866 228.247867043 321 c 1
 64 321 l 2
 57 321 50 327 50 333 c 0
 50 342 56 371 74 371 c 2
 177.623504732 371 l 1
 189.682033272 462.989883243 267.484315119 533 363 533 c 0
 458.515684881 533 536.317966728 462.989883243 548.376495268 371 c 1
 662 371 l 2
 668 371 676 366 676 360 c 0
 676 346 660 321 644 321 c 2
 497.752132957 321 l 1
 499.228919261 329.100139866 500 337.455264924 500 346 c 0
 500 426.331017756 436.556817288 483 363 483 c 0
676 169 m 1024
50 142 m 1024
EndSplineSet
EndChar

StartChar: uni224F
Encoding: 8783 8783 45
Width: 726
Flags: HMW
LayerCount: 2
Fore
SplineSet
363 483 m 0
 289.429312065 483 226 426.262328699 226 346 c 0
 226 337.455264924 226.771080739 329.100139866 228.247867043 321 c 1
 64 321 l 2
 57 321 50 327 50 333 c 0
 50 342 56 371 74 371 c 2
 177.623504732 371 l 1
 189.682033272 462.989883243 267.484315119 533 363 533 c 0
 458.515684881 533 536.317966728 462.989883243 548.376495268 371 c 1
 662 371 l 2
 668 371 676 366 676 360 c 0
 676 346 660 321 644 321 c 2
 497.752132957 321 l 1
 499.228919261 329.100139866 500 337.455264924 500 346 c 0
 500 426.331017756 436.556817288 483 363 483 c 0
64 130 m 2
 57 130 50 136 50 142 c 0
 50 151 56 180 74 180 c 2
 662 180 l 2
 668 180 676 175 676 169 c 0
 676 151 660 130 644 130 c 2
 64 130 l 2
EndSplineSet
EndChar

StartChar: uni2250
Encoding: 8784 8784 46
Width: 726
Flags: HMW
LayerCount: 2
Fore
SplineSet
363 481 m 4
 338 481 316 502 316 528 c 4
 316 554 338 575 363 575 c 4
 389 575 410 554 410 528 c 4
 410 502 389 481 363 481 c 4
64 311 m 2
 57 311 50 317 50 323 c 0
 50 332 56 361 74 361 c 2
 662 361 l 2
 668 361 676 356 676 350 c 0
 676 336 660 311 644 311 c 2
 64 311 l 2
64 140 m 2
 57 140 50 146 50 152 c 0
 50 161 56 190 74 190 c 2
 662 190 l 2
 668 190 676 185 676 179 c 0
 676 161 660 140 644 140 c 2
 64 140 l 2
EndSplineSet
EndChar

StartChar: uni2251
Encoding: 8785 8785 47
Width: 726
Flags: HMW
LayerCount: 2
Fore
SplineSet
363 20 m 0
 388 20 410 -1 410 -27 c 0
 410 -53 388 -74 363 -74 c 0
 337 -74 316 -53 316 -27 c 0
 316 -1 337 20 363 20 c 0
363 481 m 0
 338 481 316 502 316 528 c 0
 316 554 338 575 363 575 c 0
 389 575 410 554 410 528 c 0
 410 502 389 481 363 481 c 0
64 311 m 2
 57 311 50 317 50 323 c 0
 50 332 56 361 74 361 c 2
 662 361 l 2
 668 361 676 356 676 350 c 0
 676 336 660 311 644 311 c 2
 64 311 l 2
64 140 m 2
 57 140 50 146 50 152 c 0
 50 161 56 190 74 190 c 2
 662 190 l 2
 668 190 676 185 676 179 c 0
 676 161 660 140 644 140 c 2
 64 140 l 2
EndSplineSet
EndChar

StartChar: uni2252
Encoding: 8786 8786 48
Width: 726
Flags: HMW
LayerCount: 2
Fore
SplineSet
629 20 m 0
 654 20 676 -1 676 -27 c 0
 676 -53 654 -74 629 -74 c 0
 603 -74 582 -53 582 -27 c 0
 582 -1 603 20 629 20 c 0
97 481 m 0
 72 481 50 502 50 528 c 0
 50 554 72 575 97 575 c 0
 123 575 144 554 144 528 c 0
 144 502 123 481 97 481 c 0
64 311 m 2
 57 311 50 317 50 323 c 0
 50 332 56 361 74 361 c 2
 662 361 l 2
 668 361 676 356 676 350 c 0
 676 336 660 311 644 311 c 2
 64 311 l 2
64 140 m 2
 57 140 50 146 50 152 c 0
 50 161 56 190 74 190 c 2
 662 190 l 2
 668 190 676 185 676 179 c 0
 676 161 660 140 644 140 c 2
 64 140 l 2
EndSplineSet
EndChar

StartChar: uni2253
Encoding: 8787 8787 49
Width: 726
Flags: HMW
LayerCount: 2
Fore
SplineSet
97 20 m 0
 122 20 144 -1 144 -27 c 0
 144 -53 122 -74 97 -74 c 0
 71 -74 50 -53 50 -27 c 0
 50 -1 71 20 97 20 c 0
629 481 m 0
 604 481 582 502 582 528 c 0
 582 554 604 575 629 575 c 0
 655 575 676 554 676 528 c 0
 676 502 655 481 629 481 c 0
64 311 m 2
 57 311 50 317 50 323 c 0
 50 332 56 361 74 361 c 2
 662 361 l 2
 668 361 676 356 676 350 c 0
 676 336 660 311 644 311 c 2
 64 311 l 2
64 140 m 2
 57 140 50 146 50 152 c 0
 50 161 56 190 74 190 c 2
 662 190 l 2
 668 190 676 185 676 179 c 0
 676 161 660 140 644 140 c 2
 64 140 l 2
EndSplineSet
EndChar

StartChar: uni2254
Encoding: 8788 8788 50
Width: 956
Flags: HMW
LayerCount: 2
Fore
SplineSet
105 57 m 4
 75 57 50 82 50 112 c 4
 50 142 75 167 105 167 c 4
 135 167 160 142 160 112 c 4
 160 82 135 57 105 57 c 4
105 333 m 4
 75 333 50 358 50 388 c 4
 50 418 75 443 105 443 c 4
 135 443 160 418 160 388 c 4
 160 358 135 333 105 333 c 4
294 321 m 2
 287 321 280 327 280 333 c 0
 280 342 286 371 304 371 c 2
 892 371 l 2
 898 371 906 366 906 360 c 0
 906 346 890 321 874 321 c 2
 294 321 l 2
294 130 m 2
 287 130 280 136 280 142 c 0
 280 151 286 180 304 180 c 2
 892 180 l 2
 898 180 906 175 906 169 c 0
 906 151 890 130 874 130 c 2
 294 130 l 2
EndSplineSet
EndChar

StartChar: uni2255
Encoding: 8789 8789 51
Width: 956
Flags: HMW
LayerCount: 2
Fore
SplineSet
851 57 m 0
 821 57 796 82 796 112 c 0
 796 142 821 167 851 167 c 0
 881 167 906 142 906 112 c 0
 906 82 881 57 851 57 c 0
851 333 m 0
 821 333 796 358 796 388 c 0
 796 418 821 443 851 443 c 0
 881 443 906 418 906 388 c 0
 906 358 881 333 851 333 c 0
64 321 m 2
 57 321 50 327 50 333 c 0
 50 342 56 371 74 371 c 2
 662 371 l 2
 668 371 676 366 676 360 c 0
 676 346 660 321 644 321 c 2
 64 321 l 2
64 130 m 2
 57 130 50 136 50 142 c 0
 50 151 56 180 74 180 c 2
 662 180 l 2
 668 180 676 175 676 169 c 0
 676 151 660 130 644 130 c 2
 64 130 l 2
EndSplineSet
EndChar

StartChar: uni2256
Encoding: 8790 8790 52
Width: 726
Flags: HMW
LayerCount: 2
Fore
SplineSet
295 250 m 0
 295 287 326 318 363 318 c 0
 400 318 431 287 431 250 c 0
 431 213 400 182 363 182 c 0
 326 182 295 213 295 250 c 0
245 250 m 0
 245 185 298 132 363 132 c 0
 428 132 481 185 481 250 c 0
 481 315 428 368 363 368 c 0
 298 368 245 315 245 250 c 0
64 321 m 2
 644 321 l 2
 660 321 676 346 676 360 c 0
 676 366 668 371 662 371 c 2
 74 371 l 2
 56 371 50 342 50 333 c 0
 50 327 57 321 64 321 c 2
64 130 m 2
 644 130 l 2
 660 130 676 151 676 169 c 0
 676 175 668 180 662 180 c 2
 74 180 l 2
 56 180 50 151 50 142 c 0
 50 136 57 130 64 130 c 2
EndSplineSet
EndChar

StartChar: notequal
Encoding: 8800 8800 53
Width: 726
Flags: HMW
LayerCount: 2
Fore
SplineSet
500 634 m 2
 292 -119 l 2
 286 -139 263 -150 243 -150 c 0
 236 -150 232 -142 234 -134 c 2
 442 619 l 2
 448 639 471 650 491 650 c 0
 498 650 502 642 500 634 c 2
64 321 m 2
 57 321 50 327 50 333 c 0
 50 342 56 371 74 371 c 2
 662 371 l 2
 668 371 676 366 676 360 c 0
 676 346 660 321 644 321 c 2
 64 321 l 2
64 130 m 2
 57 130 50 136 50 142 c 0
 50 151 56 180 74 180 c 2
 662 180 l 2
 668 180 676 175 676 169 c 0
 676 151 660 130 644 130 c 2
 64 130 l 2
EndSplineSet
EndChar

StartChar: equivalence
Encoding: 8801 8801 54
Width: 726
Flags: HMW
LayerCount: 2
Fore
SplineSet
64 55 m 6
 57 55 50 61 50 67 c 4
 50 76 56 105 74 105 c 6
 662 105 l 6
 668 105 676 100 676 94 c 4
 676 80 660 55 644 55 c 6
 64 55 l 6
64 395 m 2
 57 395 50 401 50 407 c 0
 50 416 56 445 74 445 c 2
 662 445 l 2
 668 445 676 440 676 434 c 0
 676 420 660 395 644 395 c 2
 64 395 l 2
64 225 m 2
 57 225 50 231 50 237 c 0
 50 246 56 275 74 275 c 2
 662 275 l 2
 668 275 676 270 676 264 c 0
 676 250 660 225 644 225 c 2
 64 225 l 2
EndSplineSet
EndChar

StartChar: uni2262
Encoding: 8802 8802 55
Width: 726
Flags: HMW
LayerCount: 2
Fore
SplineSet
510 671 m 6
 282 -156 l 6
 276 -176 253 -187 233 -187 c 4
 226 -187 222 -179 224 -171 c 6
 452 656 l 6
 458 676 481 687 501 687 c 4
 508 687 512 679 510 671 c 6
64 55 m 2
 57 55 50 61 50 67 c 0
 50 76 56 105 74 105 c 2
 662 105 l 2
 668 105 676 100 676 94 c 0
 676 80 660 55 644 55 c 2
 64 55 l 2
64 395 m 2
 57 395 50 401 50 407 c 0
 50 416 56 445 74 445 c 2
 662 445 l 2
 668 445 676 440 676 434 c 0
 676 420 660 395 644 395 c 2
 64 395 l 2
64 225 m 2
 57 225 50 231 50 237 c 0
 50 246 56 275 74 275 c 2
 662 275 l 2
 668 275 676 270 676 264 c 0
 676 250 660 225 644 225 c 2
 64 225 l 2
EndSplineSet
EndChar

StartChar: uni2263
Encoding: 8803 8803 56
Width: 726
Flags: HMW
LayerCount: 2
Fore
SplineSet
64 -1 m 6
 57 -1 50 5 50 11 c 4
 50 20 56 49 74 49 c 6
 662 49 l 6
 668 49 676 44 676 38 c 4
 676 20 660 -1 644 -1 c 6
 64 -1 l 6
64 300 m 6
 57 300 50 306 50 312 c 4
 50 321 56 350 74 350 c 6
 662 350 l 6
 668 350 676 345 676 339 c 4
 676 325 660 300 644 300 c 6
 64 300 l 6
64 450 m 6
 57 450 50 456 50 462 c 4
 50 471 56 500 74 500 c 6
 662 500 l 6
 668 500 676 495 676 489 c 4
 676 475 660 450 644 450 c 6
 64 450 l 6
64 149 m 6
 57 149 50 155 50 161 c 4
 50 170 56 199 74 199 c 6
 662 199 l 6
 668 199 676 194 676 188 c 4
 676 170 660 149 644 149 c 6
 64 149 l 6
EndSplineSet
EndChar

StartChar: lessequal
Encoding: 8804 8804 57
Width: 719
Flags: HMW
LayerCount: 2
Fore
SplineSet
658 14 m 0
 657 14 656 15 655 15 c 2
 96 267 l 2
 78 275 55 288 55 294 c 0
 55 303 68 331 88 340 c 2
 655 592 l 2
 659 592 668 595 668 583 c 0
 668 571 659 541 637 532 c 2
 134 306 l 2
 131 305 132 302 135 301 c 2
 645 75 l 2
 664 67 669 36 669 27 c 0
 669 22 664 14 658 14 c 0
655 -42 m 2
 662 -42 669 -48 669 -54 c 0
 669 -63 666 -92 645 -92 c 2
 63 -92 l 2
 57 -92 50 -87 50 -81 c 0
 50 -59 63 -42 80 -42 c 2
 655 -42 l 2
EndSplineSet
EndChar

StartChar: greaterequal
Encoding: 8805 8805 58
Width: 719
Flags: HMW
LayerCount: 2
Fore
SplineSet
61 592 m 0
 62 592 63 591 64 591 c 2
 623 339 l 2
 641 331 664 318 664 312 c 0
 664 303 651 275 631 266 c 2
 64 14 l 2
 60 14 51 11 51 23 c 0
 51 35 60 65 82 74 c 2
 585 300 l 2
 588 301 587 304 584 305 c 2
 74 531 l 2
 55 539 50 570 50 579 c 0
 50 584 55 592 61 592 c 0
64 -92 m 2
 57 -92 50 -86 50 -80 c 0
 50 -71 53 -42 74 -42 c 2
 656 -42 l 2
 662 -42 669 -47 669 -53 c 0
 669 -75 656 -92 639 -92 c 2
 64 -92 l 2
EndSplineSet
EndChar

StartChar: uni2266
Encoding: 8806 8806 59
Width: 719
Flags: HMW
LayerCount: 2
Fore
SplineSet
655 -117 m 2
 662 -117 669 -123 669 -129 c 0
 669 -138 666 -167 645 -167 c 2
 63 -167 l 2
 57 -167 50 -162 50 -156 c 0
 50 -134 63 -117 80 -117 c 2
 655 -117 l 2
658 89 m 0
 657 89 656 90 655 90 c 2
 96 342 l 2
 78 350 55 363 55 369 c 0
 55 378 68 406 88 415 c 2
 655 667 l 2
 659 667 668 670 668 658 c 0
 668 646 659 616 637 607 c 2
 134 381 l 2
 131 380 132 377 135 376 c 2
 645 150 l 2
 664 142 669 111 669 102 c 0
 669 97 664 89 658 89 c 0
655 33 m 2
 662 33 669 27 669 21 c 0
 669 12 666 -17 645 -17 c 2
 63 -17 l 2
 57 -17 50 -12 50 -6 c 0
 50 16 63 33 80 33 c 2
 655 33 l 2
EndSplineSet
EndChar

StartChar: uni2267
Encoding: 8807 8807 60
Width: 719
Flags: HMW
LayerCount: 2
Fore
SplineSet
64 -167 m 6
 57 -167 50 -161 50 -155 c 4
 50 -146 53 -117 74 -117 c 6
 656 -117 l 6
 662 -117 669 -122 669 -128 c 4
 669 -150 656 -167 639 -167 c 6
 64 -167 l 6
61 667 m 4
 62 667 63 666 64 666 c 6
 623 414 l 6
 641 406 664 393 664 387 c 4
 664 378 651 350 631 341 c 6
 64 89 l 6
 60 89 51 86 51 98 c 4
 51 110 60 140 82 149 c 6
 585 375 l 6
 588 376 587 379 584 380 c 6
 74 606 l 6
 55 614 50 645 50 654 c 4
 50 659 55 667 61 667 c 4
64 -17 m 6
 57 -17 50 -11 50 -5 c 4
 50 4 53 33 74 33 c 6
 656 33 l 6
 662 33 669 28 669 22 c 4
 669 0 656 -17 639 -17 c 6
 64 -17 l 6
EndSplineSet
EndChar

StartChar: uni2268
Encoding: 8808 8808 61
Width: 719
Flags: HMW
LayerCount: 2
Fore
SplineSet
432 74 m 2
 332 -293 l 2
 326 -313 303 -324 283 -324 c 0
 276 -324 272 -316 274 -308 c 2
 374 59 l 2
 379 79 403 90 423 90 c 0
 430 90 434 82 432 74 c 2
655 -117 m 2
 662 -117 669 -123 669 -129 c 0
 669 -138 666 -167 645 -167 c 2
 63 -167 l 2
 57 -167 50 -162 50 -156 c 0
 50 -134 63 -117 80 -117 c 2
 655 -117 l 2
658 89 m 0
 657 89 656 90 655 90 c 2
 96 342 l 2
 78 350 55 363 55 369 c 0
 55 378 68 406 88 415 c 2
 655 667 l 2
 659 667 668 670 668 658 c 0
 668 646 659 616 637 607 c 2
 134 381 l 2
 131 380 132 377 135 376 c 2
 645 150 l 2
 664 142 669 111 669 102 c 0
 669 97 664 89 658 89 c 0
655 33 m 2
 662 33 669 27 669 21 c 0
 669 12 666 -17 645 -17 c 2
 63 -17 l 2
 57 -17 50 -12 50 -6 c 0
 50 16 63 33 80 33 c 2
 655 33 l 2
EndSplineSet
EndChar

StartChar: uni2269
Encoding: 8809 8809 62
Width: 719
Flags: HMW
LayerCount: 2
Fore
SplineSet
432 74 m 2
 332 -293 l 2
 326 -313 303 -324 283 -324 c 0
 276 -324 272 -316 274 -308 c 2
 374 59 l 2
 379 79 403 90 423 90 c 0
 430 90 434 82 432 74 c 2
64 -167 m 2
 57 -167 50 -161 50 -155 c 0
 50 -146 53 -117 74 -117 c 2
 656 -117 l 2
 662 -117 669 -122 669 -128 c 0
 669 -150 656 -167 639 -167 c 2
 64 -167 l 2
61 667 m 0
 62 667 63 666 64 666 c 2
 623 414 l 2
 641 406 664 393 664 387 c 0
 664 378 651 350 631 341 c 2
 64 89 l 2
 60 89 51 86 51 98 c 0
 51 110 60 140 82 149 c 2
 585 375 l 2
 588 376 587 379 584 380 c 2
 74 606 l 2
 55 614 50 645 50 654 c 0
 50 659 55 667 61 667 c 0
64 -17 m 2
 57 -17 50 -11 50 -5 c 0
 50 4 53 33 74 33 c 2
 656 33 l 2
 662 33 669 28 669 22 c 0
 669 0 656 -17 639 -17 c 2
 64 -17 l 2
EndSplineSet
EndChar

StartChar: uni226A
Encoding: 8810 8810 63
Width: 1114
Flags: HMW
LayerCount: 2
Fore
SplineSet
1044 -66 m 2
 491 211 l 2
 474 219 450 232 450 238 c 0
 450 247 463 274 483 284 c 2
 1046 562 l 2
 1049 564 1053 565 1054 565 c 0
 1060 565 1063 561 1063 555 c 0
 1063 543 1052 514 1032 504 c 2
 529 250 l 2
 527 249 528 246 530 245 c 2
 1040 -9 l 2
 1059 -18 1064 -48 1064 -57 c 0
 1064 -70 1051 -69 1044 -66 c 2
644 -66 m 2
 91 211 l 2
 74 219 50 232 50 238 c 0
 50 247 63 274 83 284 c 2
 646 562 l 2
 649 564 653 565 654 565 c 0
 660 565 663 561 663 555 c 0
 663 543 652 514 632 504 c 2
 129 250 l 2
 127 249 128 246 130 245 c 2
 640 -9 l 2
 659 -18 664 -48 664 -57 c 0
 664 -70 651 -69 644 -66 c 2
EndSplineSet
EndChar

StartChar: uni226B
Encoding: 8811 8811 64
Width: 1114
Flags: HMW
LayerCount: 2
Fore
SplineSet
70 563.09765625 m 2
 623 286.09765625 l 2
 640 278.09765625 664 265.09765625 664 259.09765625 c 0
 664 250.09765625 651 223.09765625 631 213.09765625 c 2
 68 -64.90234375 l 2
 65 -66.90234375 61 -67.90234375 60 -67.90234375 c 0
 54 -67.90234375 51 -63.90234375 51 -57.90234375 c 0
 51 -45.90234375 62 -16.90234375 82 -6.90234375 c 2
 585 247.09765625 l 2
 587 248.09765625 586 251.09765625 584 252.09765625 c 2
 74 506.09765625 l 2
 55 515.09765625 50 545.09765625 50 554.09765625 c 0
 50 567.09765625 63 566.09765625 70 563.09765625 c 2
470 563.09765625 m 2
 1023 286.09765625 l 2
 1040 278.09765625 1064 265.09765625 1064 259.09765625 c 0
 1064 250.09765625 1051 223.09765625 1031 213.09765625 c 2
 468 -64.90234375 l 2
 465 -66.90234375 461 -67.90234375 460 -67.90234375 c 0
 454 -67.90234375 451 -63.90234375 451 -57.90234375 c 0
 451 -45.90234375 462 -16.90234375 482 -6.90234375 c 2
 985 247.09765625 l 2
 987 248.09765625 986 251.09765625 984 252.09765625 c 2
 474 506.09765625 l 2
 455 515.09765625 450 545.09765625 450 554.09765625 c 0
 450 567.09765625 463 566.09765625 470 563.09765625 c 2
EndSplineSet
EndChar

StartChar: uni226D
Encoding: 8813 8813 65
Width: 706
Flags: HMW
LayerCount: 2
Fore
SplineSet
492 634 m 2
 284 -119 l 2
 278 -139 255 -150 235 -150 c 0
 228 -150 224 -142 226 -134 c 2
 434 619 l 2
 440 639 463 650 483 650 c 0
 490 650 494 642 492 634 c 2
79 327 m 0
 59 337 50 365 50 387 c 0
 50 394 56.9270406128 396.881324281 65 392 c 0
 151 340 252 320 353 320 c 0
 454 320 554 340 641 392 c 0
 649.097773254 396.840048381 656 394 656 387 c 0
 656 365 647.048075241 336.903266083 627 327 c 0
 544 286 449 271 353 271 c 0
 257 271 161 286 79 327 c 0
79 173 m 0
 161 214 257 230 353 230 c 0
 449 230 544 214 627 173 c 0
 647.048075241 163.096733917 656 135 656 113 c 0
 656 106 649.097773254 103.159951619 641 108 c 0
 554 160 454 181 353 181 c 0
 252 181 151 160 65 108 c 0
 56.9270406128 103.118675719 50 106 50 113 c 0
 50 135 59 163 79 173 c 0
EndSplineSet
EndChar

StartChar: uni226E
Encoding: 8814 8814 66
Width: 714
Flags: HMW
LayerCount: 2
Fore
SplineSet
560 671 m 6
 332 -156 l 6
 326 -176 303 -187 283 -187 c 4
 276 -187 272 -179 274 -171 c 6
 502 656 l 6
 508 676 531 687 551 687 c 4
 558 687 562 679 560 671 c 6
644 -66 m 2
 91 211 l 2
 74 219 50 232 50 238 c 0
 50 247 63 274 83 284 c 2
 646 562 l 2
 649 564 653 565 654 565 c 0
 660 565 663 561 663 555 c 0
 663 543 652 514 632 504 c 2
 129 250 l 2
 127 249 128 246 130 245 c 2
 640 -9 l 2
 659 -18 664 -48 664 -57 c 0
 664 -70 651 -69 644 -66 c 2
EndSplineSet
EndChar

StartChar: uni226F
Encoding: 8815 8815 67
Width: 714
Flags: HMW
LayerCount: 2
Fore
SplineSet
420 671 m 6
 192 -156 l 6
 186 -176 163 -187 143 -187 c 4
 136 -187 132 -179 134 -171 c 6
 362 656 l 6
 368 676 391 687 411 687 c 4
 418 687 422 679 420 671 c 6
70 563.09765625 m 2
 623 286.09765625 l 2
 640 278.09765625 664 265.09765625 664 259.09765625 c 0
 664 250.09765625 651 223.09765625 631 213.09765625 c 2
 68 -64.90234375 l 2
 65 -66.90234375 61 -67.90234375 60 -67.90234375 c 0
 54 -67.90234375 51 -63.90234375 51 -57.90234375 c 0
 51 -45.90234375 62 -16.90234375 82 -6.90234375 c 2
 585 247.09765625 l 2
 587 248.09765625 586 251.09765625 584 252.09765625 c 2
 74 506.09765625 l 2
 55 515.09765625 50 545.09765625 50 554.09765625 c 0
 50 567.09765625 63 566.09765625 70 563.09765625 c 2
EndSplineSet
EndChar

StartChar: uni2270
Encoding: 8816 8816 68
Width: 719
Flags: HMW
LayerCount: 2
Fore
SplineSet
568 709 m 6
 318 -194 l 6
 312 -214 289 -225 269 -225 c 4
 262 -225 258 -217 260 -209 c 6
 510 694 l 6
 516 714 539 725 559 725 c 4
 566 725 570 717 568 709 c 6
658 14 m 0
 657 14 656 15 655 15 c 2
 96 267 l 2
 78 275 55 288 55 294 c 0
 55 303 68 331 88 340 c 2
 655 592 l 2
 659 592 668 595 668 583 c 0
 668 571 659 541 637 532 c 2
 134 306 l 2
 131 305 132 302 135 301 c 2
 645 75 l 2
 664 67 669 36 669 27 c 0
 669 22 664 14 658 14 c 0
655 -42 m 2
 662 -42 669 -48 669 -54 c 0
 669 -63 666 -92 645 -92 c 2
 63 -92 l 2
 57 -92 50 -87 50 -81 c 0
 50 -59 63 -42 80 -42 c 2
 655 -42 l 2
EndSplineSet
EndChar

StartChar: uni2271
Encoding: 8817 8817 69
Width: 719
Flags: HMW
LayerCount: 2
Fore
SplineSet
478 709 m 2
 228 -194 l 2
 222 -214 199 -225 179 -225 c 0
 172 -225 168 -217 170 -209 c 2
 420 694 l 2
 426 714 449 725 469 725 c 0
 476 725 480 717 478 709 c 2
61 592 m 0
 62 592 63 591 64 591 c 2
 623 339 l 2
 641 331 664 318 664 312 c 0
 664 303 651 275 631 266 c 2
 64 14 l 2
 60 14 51 11 51 23 c 0
 51 35 60 65 82 74 c 2
 585 300 l 2
 588 301 587 304 584 305 c 2
 74 531 l 2
 55 539 50 570 50 579 c 0
 50 584 55 592 61 592 c 0
64 -92 m 2
 57 -92 50 -86 50 -80 c 0
 50 -71 53 -42 74 -42 c 2
 656 -42 l 2
 662 -42 669 -47 669 -53 c 0
 669 -75 656 -92 639 -92 c 2
 64 -92 l 2
EndSplineSet
EndChar

StartChar: uni2272
Encoding: 8818 8818 70
Width: 726
Flags: HMW
LayerCount: 2
Fore
SplineSet
658 14 m 0
 657 14 656 15 655 15 c 2
 96 267 l 2
 78 275 55 288 55 294 c 0
 55 303 68 331 88 340 c 2
 655 592 l 2
 659 592 668 595 668 583 c 0
 668 571 659 541 637 532 c 2
 134 306 l 2
 131 305 132 302 135 301 c 2
 645 75 l 2
 664 67 669 36 669 27 c 0
 669 22 664 14 658 14 c 0
506 -175 m 4
 383 -175 318 -25 221 -25 c 4
 133 -25 74 -127 69 -127 c 4
 61 -127 50 -120 50 -113 c 4
 50 -86 121 28 228 28 c 4
 349 28 418 -122 506 -122 c 4
 588 -122 651 -10 656 -10 c 4
 661 -10 676 -17 676 -30 c 4
 676 -71 592 -175 506 -175 c 4
EndSplineSet
EndChar

StartChar: uni2273
Encoding: 8819 8819 71
Width: 726
Flags: HMW
LayerCount: 2
Fore
SplineSet
506 -175 m 0
 383 -175 318 -25 221 -25 c 0
 133 -25 74 -127 69 -127 c 0
 61 -127 50 -120 50 -113 c 0
 50 -86 121 28 228 28 c 0
 349 28 418 -122 506 -122 c 0
 588 -122 651 -10 656 -10 c 0
 661 -10 676 -17 676 -30 c 0
 676 -71 592 -175 506 -175 c 0
61 592 m 0
 62 592 63 591 64 591 c 2
 623 339 l 2
 641 331 664 318 664 312 c 0
 664 303 651 275 631 266 c 2
 64 14 l 2
 60 14 51 11 51 23 c 0
 51 35 60 65 82 74 c 2
 585 300 l 2
 588 301 587 304 584 305 c 2
 74 531 l 2
 55 539 50 570 50 579 c 0
 50 584 55 592 61 592 c 0
EndSplineSet
EndChar

StartChar: uni2274
Encoding: 8820 8820 72
Width: 726
Flags: HMW
LayerCount: 2
Fore
SplineSet
568 709 m 6
 318 -194 l 6
 312 -214 289 -225 269 -225 c 4
 262 -225 258 -217 260 -209 c 6
 510 694 l 6
 516 714 539 725 559 725 c 4
 566 725 570 717 568 709 c 6
658 14 m 0
 657 14 656 15 655 15 c 2
 96 267 l 2
 78 275 55 288 55 294 c 0
 55 303 68 331 88 340 c 2
 655 592 l 2
 659 592 668 595 668 583 c 0
 668 571 659 541 637 532 c 2
 134 306 l 2
 131 305 132 302 135 301 c 2
 645 75 l 2
 664 67 669 36 669 27 c 0
 669 22 664 14 658 14 c 0
506 -175 m 0
 383 -175 318 -25 221 -25 c 0
 133 -25 74 -127 69 -127 c 0
 61 -127 50 -120 50 -113 c 0
 50 -86 121 28 228 28 c 0
 349 28 418 -122 506 -122 c 0
 588 -122 651 -10 656 -10 c 0
 661 -10 676 -17 676 -30 c 0
 676 -71 592 -175 506 -175 c 0
EndSplineSet
EndChar

StartChar: uni2275
Encoding: 8821 8821 73
Width: 726
Flags: HMW
LayerCount: 2
Fore
SplineSet
488 709 m 6
 238 -194 l 6
 232 -214 209 -225 189 -225 c 4
 182 -225 178 -217 180 -209 c 6
 430 694 l 6
 436 714 459 725 479 725 c 4
 486 725 490 717 488 709 c 6
506 -175 m 0
 383 -175 318 -25 221 -25 c 0
 133 -25 74 -127 69 -127 c 0
 61 -127 50 -120 50 -113 c 0
 50 -86 121 28 228 28 c 0
 349 28 418 -122 506 -122 c 0
 588 -122 651 -10 656 -10 c 0
 661 -10 676 -17 676 -30 c 0
 676 -71 592 -175 506 -175 c 0
61 592 m 0
 62 592 63 591 64 591 c 2
 623 339 l 2
 641 331 664 318 664 312 c 0
 664 303 651 275 631 266 c 2
 64 14 l 2
 60 14 51 11 51 23 c 0
 51 35 60 65 82 74 c 2
 585 300 l 2
 588 301 587 304 584 305 c 2
 74 531 l 2
 55 539 50 570 50 579 c 0
 50 584 55 592 61 592 c 0
EndSplineSet
EndChar

StartChar: uni2276
Encoding: 8822 8822 74
Width: 719
Flags: HMW
LayerCount: 2
Fore
SplineSet
658 734 m 0
 664 734 669 726 669 721 c 0
 669 712 664 681 645 673 c 2
 135 447 l 2
 132 446 131 443 134 442 c 2
 637 216 l 2
 659 207 668 177 668 165 c 0
 668 153 659 156 655 156 c 2
 88 408 l 2
 68 417 55 445 55 454 c 0
 55 460 78 473 96 481 c 2
 655 733 l 2
 656 733 657 734 658 734 c 0
61 -234 m 0
 55 -234 50 -226 50 -221 c 0
 50 -212 55 -181 74 -173 c 2
 584 53 l 2
 587 54 588 57 585 58 c 2
 82 284 l 2
 60 293 51 323 51 335 c 0
 51 347 60 344 64 344 c 2
 631 92 l 2
 651 83 664 55 664 46 c 0
 664 40 641 27 623 19 c 2
 64 -233 l 2
 63 -233 62 -234 61 -234 c 0
EndSplineSet
EndChar

StartChar: uni2277
Encoding: 8823 8823 75
Width: 719
Flags: HMW
LayerCount: 2
Fore
SplineSet
61 734 m 0
 62 734 63 733 64 733 c 2
 623 481 l 2
 641 473 664 460 664 454 c 0
 664 445 651 417 631 408 c 2
 64 156 l 2
 60 156 51 153 51 165 c 0
 51 177 60 207 82 216 c 2
 585 442 l 2
 588 443 587 446 584 447 c 2
 74 673 l 2
 55 681 50 712 50 721 c 0
 50 726 55 734 61 734 c 0
658 -234 m 0
 657 -234 656 -233 655 -233 c 2
 96 19 l 2
 78 27 55 40 55 46 c 0
 55 55 68 83 88 92 c 2
 655 344 l 2
 659 344 668 347 668 335 c 0
 668 323 659 293 637 284 c 2
 134 58 l 2
 131 57 132 54 135 53 c 2
 645 -173 l 2
 664 -181 669 -212 669 -221 c 0
 669 -226 664 -234 658 -234 c 0
EndSplineSet
EndChar

StartChar: uni2278
Encoding: 8824 8824 76
Width: 719
Flags: HMW
LayerCount: 2
Fore
SplineSet
658 734 m 0
 664 734 669 726 669 721 c 0
 669 712 664 681 645 673 c 2
 135 447 l 2
 132 446 131 443 134 442 c 2
 637 216 l 2
 659 207 668 177 668 165 c 0
 668 153 659 156 655 156 c 2
 88 408 l 2
 68 417 55 445 55 454 c 0
 55 460 78 473 96 481 c 2
 655 733 l 2
 656 733 657 734 658 734 c 0
61 -234 m 0
 55 -234 50 -226 50 -221 c 0
 50 -212 55 -181 74 -173 c 2
 584 53 l 2
 587 54 588 57 585 58 c 2
 82 284 l 2
 60 293 51 323 51 335 c 0
 51 347 60 344 64 344 c 2
 631 92 l 2
 651 83 664 55 664 46 c 0
 664 40 641 27 623 19 c 2
 64 -233 l 2
 63 -233 62 -234 61 -234 c 0
524 834 m 6
 252 -319 l 6
 247 -339 224 -350 204 -350 c 4
 197 -350 193 -342 195 -334 c 6
 466 819 l 6
 471 839 494 850 514 850 c 4
 521 850 526 842 524 834 c 6
EndSplineSet
EndChar

StartChar: uni2279
Encoding: 8825 8825 77
Width: 719
Flags: HMW
LayerCount: 2
Fore
SplineSet
524 834 m 2
 252 -319 l 2
 247 -339 224 -350 204 -350 c 0
 197 -350 193 -342 195 -334 c 2
 466 819 l 2
 471 839 494 850 514 850 c 0
 521 850 526 842 524 834 c 2
61 734 m 0
 62 734 63 733 64 733 c 2
 623 481 l 2
 641 473 664 460 664 454 c 0
 664 445 651 417 631 408 c 2
 64 156 l 2
 60 156 51 153 51 165 c 0
 51 177 60 207 82 216 c 2
 585 442 l 2
 588 443 587 446 584 447 c 2
 74 673 l 2
 55 681 50 712 50 721 c 0
 50 726 55 734 61 734 c 0
658 -234 m 0
 657 -234 656 -233 655 -233 c 2
 96 19 l 2
 78 27 55 40 55 46 c 0
 55 55 68 83 88 92 c 2
 655 344 l 2
 659 344 668 347 668 335 c 0
 668 323 659 293 637 284 c 2
 134 58 l 2
 131 57 132 54 135 53 c 2
 645 -173 l 2
 664 -181 669 -212 669 -221 c 0
 669 -226 664 -234 658 -234 c 0
EndSplineSet
EndChar

StartChar: uni227A
Encoding: 8826 8826 78
Width: 699
Flags: HMW
LayerCount: 2
Fore
SplineSet
214 251 m 0
 207.721679688 250.237304688 207.717773438 246.734375 214 246 c 0
 394.697265625 224.869140625 567 160 645 -38 c 0
 648.505859375 -46.8984375 655.625 -67 639 -67 c 0
 630 -67 598.24609375 -60.357421875 590 -42 c 0
 506 145 369 182 65 223 c 0
 57.009765625 224.077148438 50 231 50 237 c 0
 50 255 60.0703125 274.454101562 79 277 c 0
 369 316 506 353 591 541 c 0
 599.291015625 559.337890625 630 565 639 565 c 0
 655.590820312 565 648.495117188 544.872070312 645 536 c 0
 567 338 395 273 214 251 c 0
EndSplineSet
EndChar

StartChar: uni227B
Encoding: 8827 8827 79
Width: 699
Flags: HMW
LayerCount: 2
Fore
SplineSet
485.5546875 247 m 0
 491.833007812 247.762695312 491.836914062 251.265625 485.5546875 252 c 0
 304.857421875 273.130859375 132.5546875 338 54.5546875 536 c 0
 51.048828125 544.8984375 43.9296875 565 60.5546875 565 c 0
 69.5546875 565 101.30859375 558.357421875 109.5546875 540 c 0
 193.5546875 353 330.5546875 316 634.5546875 275 c 0
 642.544921875 273.922851562 649.5546875 267 649.5546875 261 c 0
 649.5546875 243 639.484375 223.545898438 620.5546875 221 c 0
 330.5546875 182 193.5546875 145 108.5546875 -43 c 0
 100.263671875 -61.337890625 69.5546875 -67 60.5546875 -67 c 0
 43.9638671875 -67 51.0595703125 -46.8720703125 54.5546875 -38 c 0
 132.5546875 160 304.5546875 225 485.5546875 247 c 0
EndSplineSet
EndChar

StartChar: uni227C
Encoding: 8828 8828 80
Width: 699
Flags: HMW
LayerCount: 2
Fore
SplineSet
80 158 m 0
 61.0869140625 160.702148438 50 180 50 199 c 0
 50 205 58.01171875 211.092773438 66 210 c 0
 395 165 497 124 580 -83 c 0
 583 -90.4833984375 582 -103 569 -103 c 0
 560 -103 528.158203125 -97.6748046875 521 -79 c 0
 452 101 332 122 80 158 c 0
214 305 m 0
 207.703125 304.408203125 207.697265625 300.52734375 214 300 c 0
 394.697265625 284.869140625 567 239 645 41 c 0
 648.505859375 32.1015625 655.625 12 639 12 c 0
 630 12 598.24609375 18.642578125 590 37 c 0
 506 224 369 236 65 277 c 0
 57.009765625 278.077148438 50 285 50 291 c 0
 50 309 60.0703125 328.454101562 79 331 c 0
 369 370 506 382 591 570 c 0
 599.291015625 588.337890625 630 594 639 594 c 0
 655.590820312 594 648.495117188 573.872070312 645 565 c 0
 567 367 395 322 214 305 c 0
EndSplineSet
EndChar

StartChar: uni227D
Encoding: 8829 8829 81
Width: 699
Flags: HMW
LayerCount: 2
Fore
SplineSet
619.5546875 158 m 0
 367.5546875 122 247.5546875 101 178.5546875 -79 c 0
 171.396484375 -97.6748046875 139.5546875 -103 130.5546875 -103 c 0
 117.5546875 -103 116.5546875 -90.4833984375 119.5546875 -83 c 0
 202.5546875 124 304.5546875 165 633.5546875 210 c 0
 641.54296875 211.092773438 649.5546875 205 649.5546875 199 c 0
 649.5546875 180 638.467773438 160.702148438 619.5546875 158 c 0
485.5546875 301 m 0
 491.8515625 301.591796875 491.857421875 305.47265625 485.5546875 306 c 0
 304.857421875 321.130859375 132.5546875 367 54.5546875 565 c 0
 51.048828125 573.8984375 43.9296875 594 60.5546875 594 c 0
 69.5546875 594 101.30859375 587.357421875 109.5546875 569 c 0
 193.5546875 382 330.5546875 370 634.5546875 329 c 0
 642.544921875 327.922851562 649.5546875 321 649.5546875 315 c 0
 649.5546875 297 639.484375 277.545898438 620.5546875 275 c 0
 330.5546875 236 193.5546875 224 108.5546875 36 c 0
 100.263671875 17.662109375 69.5546875 12 60.5546875 12 c 0
 43.9638671875 12 51.0595703125 32.1279296875 54.5546875 41 c 0
 132.5546875 239 304.5546875 284 485.5546875 301 c 0
EndSplineSet
EndChar

StartChar: uni227E
Encoding: 8830 8830 82
Width: 726
Flags: HMW
LayerCount: 2
Fore
SplineSet
506 -175 m 0
 383 -175 318 -25 221 -25 c 0
 133 -25 74 -127 69 -127 c 0
 61 -127 50 -120 50 -113 c 0
 50 -86 121 28 228 28 c 0
 349 28 418 -122 506 -122 c 0
 588 -122 651 -10 656 -10 c 0
 661 -10 676 -17 676 -30 c 0
 676 -71 592 -175 506 -175 c 0
214 305 m 0
 207.703125 304.408203125 207.697265625 300.52734375 214 300 c 0
 394.697265625 284.869140625 567 239 645 41 c 0
 648.505859375 32.1015625 655.625 12 639 12 c 0
 630 12 598.24609375 18.642578125 590 37 c 0
 506 224 369 236 65 277 c 0
 57.009765625 278.077148438 50 285 50 291 c 0
 50 309 60.0703125 328.454101562 79 331 c 0
 369 370 506 382 591 570 c 0
 599.291015625 588.337890625 630 594 639 594 c 0
 655.590820312 594 648.495117188 573.872070312 645 565 c 0
 567 367 395 322 214 305 c 0
EndSplineSet
EndChar

StartChar: uni227F
Encoding: 8831 8831 83
Width: 726
Flags: HMW
LayerCount: 2
Fore
SplineSet
506 -175 m 0
 383 -175 318 -25 221 -25 c 0
 133 -25 74 -127 69 -127 c 0
 61 -127 50 -120 50 -113 c 0
 50 -86 121 28 228 28 c 0
 349 28 418 -122 506 -122 c 0
 588 -122 651 -10 656 -10 c 0
 661 -10 676 -17 676 -30 c 0
 676 -71 592 -175 506 -175 c 0
485.5546875 301 m 0
 491.8515625 301.591796875 491.857421875 305.47265625 485.5546875 306 c 0
 304.857421875 321.130859375 132.5546875 367 54.5546875 565 c 0
 51.048828125 573.8984375 43.9296875 594 60.5546875 594 c 0
 69.5546875 594 101.30859375 587.357421875 109.5546875 569 c 0
 193.5546875 382 330.5546875 370 634.5546875 329 c 0
 642.544921875 327.922851562 649.5546875 321 649.5546875 315 c 0
 649.5546875 297 639.484375 277.545898438 620.5546875 275 c 0
 330.5546875 236 193.5546875 224 108.5546875 36 c 0
 100.263671875 17.662109375 69.5546875 12 60.5546875 12 c 0
 43.9638671875 12 51.0595703125 32.1279296875 54.5546875 41 c 0
 132.5546875 239 304.5546875 284 485.5546875 301 c 0
EndSplineSet
EndChar

StartChar: uni2280
Encoding: 8832 8832 84
Width: 699
Flags: HMW
LayerCount: 2
Fore
SplineSet
214 251 m 0
 207.721679688 250.237304688 207.717773438 246.734375 214 246 c 0
 394.697265625 224.869140625 567 160 645 -38 c 0
 648.505859375 -46.8984375 655.625 -67 639 -67 c 0
 630 -67 598.24609375 -60.357421875 590 -42 c 0
 506 145 369 182 65 223 c 0
 57.009765625 224.077148438 50 231 50 237 c 0
 50 255 60.0703125 274.454101562 79 277 c 0
 369 316 506 353 591 541 c 0
 599.291015625 559.337890625 630 565 639 565 c 0
 655.590820312 565 648.495117188 544.872070312 645 536 c 0
 567 338 395 273 214 251 c 0
560 671 m 2
 332 -156 l 2
 326 -176 303 -187 283 -187 c 0
 276 -187 272 -179 274 -171 c 2
 502 656 l 2
 508 676 531 687 551 687 c 0
 558 687 562 679 560 671 c 2
EndSplineSet
EndChar

StartChar: uni2281
Encoding: 8833 8833 85
Width: 699
Flags: HMW
LayerCount: 2
Fore
SplineSet
485.5546875 247 m 0
 491.833007812 247.762695312 491.836914062 251.265625 485.5546875 252 c 0
 304.857421875 273.130859375 132.5546875 338 54.5546875 536 c 0
 51.048828125 544.8984375 43.9296875 565 60.5546875 565 c 0
 69.5546875 565 101.30859375 558.357421875 109.5546875 540 c 0
 193.5546875 353 330.5546875 316 634.5546875 275 c 0
 642.544921875 273.922851562 649.5546875 267 649.5546875 261 c 0
 649.5546875 243 639.484375 223.545898438 620.5546875 221 c 0
 330.5546875 182 193.5546875 145 108.5546875 -43 c 0
 100.263671875 -61.337890625 69.5546875 -67 60.5546875 -67 c 0
 43.9638671875 -67 51.0595703125 -46.8720703125 54.5546875 -38 c 0
 132.5546875 160 304.5546875 225 485.5546875 247 c 0
420 671 m 2
 192 -156 l 2
 186 -176 163 -187 143 -187 c 0
 136 -187 132 -179 134 -171 c 2
 362 656 l 2
 368 676 391 687 411 687 c 0
 418 687 422 679 420 671 c 2
EndSplineSet
EndChar

StartChar: propersubset
Encoding: 8834 8834 86
Width: 714
Flags: HMW
LayerCount: 2
Fore
SplineSet
650 4 m 2
 657 4 664 -2 664 -8 c 0
 664 -17 658 -46 640 -46 c 2
 365 -46 l 2
 157 -46 50 95 50 250 c 0
 50 405 157 548 365 548 c 2
 650 548 l 2
 657 548 664 542 664 536 c 0
 664 527 658 498 640 498 c 2
 365 498 l 2
 216 498 104 393 104 250 c 0
 104 107 220 4 365 4 c 2
 650 4 l 2
EndSplineSet
EndChar

StartChar: propersuperset
Encoding: 8835 8835 87
Width: 714
Flags: HMW
LayerCount: 2
Fore
SplineSet
64 498 m 2
 57 498 50 504 50 510 c 0
 50 519 56 548 74 548 c 2
 349 548 l 2
 557 548 664 407 664 252 c 0
 664 97 557 -46 349 -46 c 2
 64 -46 l 2
 57 -46 50 -40 50 -34 c 0
 50 -25 56 4 74 4 c 2
 349 4 l 2
 498 4 610 109 610 252 c 0
 610 395 494 498 349 498 c 2
 64 498 l 2
EndSplineSet
EndChar

StartChar: notsubset
Encoding: 8836 8836 88
Width: 714
Flags: HMW
LayerCount: 2
Fore
SplineSet
568 709 m 2
 570 717 566 725 559 725 c 0
 539 725 516 714 510 694 c 2
 260 -209 l 2
 258 -217 262 -225 269 -225 c 0
 289 -225 312 -214 318 -194 c 2
 568 709 l 2
650 4 m 2
 365 4 l 2
 220 4 104 107 104 250 c 0
 104 393 216 498 365 498 c 2
 640 498 l 2
 658 498 664 527 664 536 c 0
 664 542 657 548 650 548 c 2
 365 548 l 2
 157 548 50 405 50 250 c 0
 50 95 157 -46 365 -46 c 2
 640 -46 l 2
 658 -46 664 -17 664 -8 c 0
 664 -2 657 4 650 4 c 2
EndSplineSet
EndChar

StartChar: uni2285
Encoding: 8837 8837 89
Width: 714
Flags: HMW
LayerCount: 2
Fore
SplineSet
458 709 m 6
 208 -194 l 6
 202 -214 179 -225 159 -225 c 4
 152 -225 148 -217 150 -209 c 6
 400 694 l 6
 406 714 429 725 449 725 c 4
 456 725 460 717 458 709 c 6
64 498 m 2
 57 498 50 504 50 510 c 0
 50 519 56 548 74 548 c 2
 349 548 l 2
 557 548 664 407 664 252 c 0
 664 97 557 -46 349 -46 c 2
 64 -46 l 2
 57 -46 50 -40 50 -34 c 0
 50 -25 56 4 74 4 c 2
 349 4 l 2
 498 4 610 109 610 252 c 0
 610 395 494 498 349 498 c 2
 64 498 l 2
EndSplineSet
EndChar

StartChar: reflexsubset
Encoding: 8838 8838 90
Width: 715
Flags: HMW
LayerCount: 2
Fore
SplineSet
650 112 m 2
 657 112 664 106 664 100 c 0
 664 91 658 62 640 62 c 2
 355 62 l 2
 152.997070312 62 50 160 50 309 c 0
 50 458 152.987304688 558 355 558 c 2
 650 558 l 2
 657 558 664 552 664 546 c 0
 664 537 658 508 640 508 c 2
 355 508 l 2
 212 508 105 446 105 309 c 0
 105 172 216 112 355 112 c 2
 650 112 l 2
651 -8 m 2
 658 -8 665 -14 665 -20 c 0
 665 -29 662 -58 641 -58 c 2
 109 -58 l 2
 103 -58 96 -53 96 -47 c 0
 96 -25 109 -8 126 -8 c 2
 651 -8 l 2
EndSplineSet
EndChar

StartChar: reflexsuperset
Encoding: 8839 8839 91
Width: 715
Flags: HMW
LayerCount: 2
Fore
SplineSet
65 508 m 2
 58 508 51 514 51 520 c 0
 51 529 57 558 75 558 c 2
 360 558 l 2
 562.002929688 558 665 460 665 311 c 0
 665 162 562.012695312 62 360 62 c 2
 65 62 l 2
 58 62 51 68 51 74 c 0
 51 83 57 112 75 112 c 2
 360 112 l 2
 503 112 610 174 610 311 c 0
 610 448 499 508 360 508 c 2
 65 508 l 2
605 -8 m 2
 612 -8 619 -14 619 -20 c 0
 619 -29 616 -58 595 -58 c 2
 63 -58 l 2
 57 -58 50 -53 50 -47 c 0
 50 -25 63 -8 80 -8 c 2
 605 -8 l 2
EndSplineSet
EndChar

StartChar: uni2288
Encoding: 8840 8840 92
Width: 715
Flags: HMW
LayerCount: 2
Fore
SplineSet
650 112 m 2
 657 112 664 106 664 100 c 0
 664 91 658 62 640 62 c 2
 355 62 l 2
 152.997070312 62 50 160 50 309 c 0
 50 458 152.987304688 558 355 558 c 2
 650 558 l 2
 657 558 664 552 664 546 c 0
 664 537 658 508 640 508 c 2
 355 508 l 2
 212 508 105 446 105 309 c 0
 105 172 216 112 355 112 c 2
 650 112 l 2
651 -8 m 2
 658 -8 665 -14 665 -20 c 0
 665 -29 662 -58 641 -58 c 2
 109 -58 l 2
 103 -58 96 -53 96 -47 c 0
 96 -25 109 -8 126 -8 c 2
 651 -8 l 2
568 709 m 6
 318 -194 l 6
 312 -214 289 -225 269 -225 c 4
 262 -225 258 -217 260 -209 c 6
 510 694 l 6
 516 714 539 725 559 725 c 4
 566 725 570 717 568 709 c 6
EndSplineSet
EndChar

StartChar: uni2289
Encoding: 8841 8841 93
Width: 715
Flags: HMW
LayerCount: 2
Fore
SplineSet
65 508 m 2
 58 508 51 514 51 520 c 0
 51 529 57 558 75 558 c 2
 360 558 l 2
 562.002929688 558 665 460 665 311 c 0
 665 162 562.012695312 62 360 62 c 2
 65 62 l 2
 58 62 51 68 51 74 c 0
 51 83 57 112 75 112 c 2
 360 112 l 2
 503 112 610 174 610 311 c 0
 610 448 499 508 360 508 c 2
 65 508 l 2
605 -8 m 2
 612 -8 619 -14 619 -20 c 0
 619 -29 616 -58 595 -58 c 2
 63 -58 l 2
 57 -58 50 -53 50 -47 c 0
 50 -25 63 -8 80 -8 c 2
 605 -8 l 2
458 709 m 2
 208 -194 l 2
 202 -214 179 -225 159 -225 c 0
 152 -225 148 -217 150 -209 c 2
 400 694 l 2
 406 714 429 725 449 725 c 0
 456 725 460 717 458 709 c 2
EndSplineSet
EndChar

StartChar: uni228A
Encoding: 8842 8842 94
Width: 715
Flags: HMW
LayerCount: 2
Fore
SplineSet
420 31 m 6
 364 -176 l 6
 359 -196 335 -207 315 -207 c 4
 308 -207 304 -199 306 -191 c 6
 362 16 l 6
 367 36 391 47 411 47 c 4
 418 47 422 39 420 31 c 6
650 112 m 2
 657 112 664 106 664 100 c 0
 664 91 658 62 640 62 c 2
 355 62 l 2
 152.997070312 62 50 160 50 309 c 0
 50 458 152.987304688 558 355 558 c 2
 650 558 l 2
 657 558 664 552 664 546 c 0
 664 537 658 508 640 508 c 2
 355 508 l 2
 212 508 105 446 105 309 c 0
 105 172 216 112 355 112 c 2
 650 112 l 2
651 -8 m 2
 658 -8 665 -14 665 -20 c 0
 665 -29 662 -58 641 -58 c 2
 109 -58 l 2
 103 -58 96 -53 96 -47 c 0
 96 -25 109 -8 126 -8 c 2
 651 -8 l 2
EndSplineSet
EndChar

StartChar: uni228B
Encoding: 8843 8843 95
Width: 715
Flags: HMW
LayerCount: 2
Fore
SplineSet
393 31 m 2
 337 -176 l 2
 332 -196 308 -207 288 -207 c 0
 281 -207 277 -199 279 -191 c 2
 335 16 l 2
 340 36 364 47 384 47 c 0
 391 47 395 39 393 31 c 2
65 508 m 2
 58 508 51 514 51 520 c 0
 51 529 57 558 75 558 c 2
 360 558 l 2
 562.002929688 558 665 460 665 311 c 0
 665 162 562.012695312 62 360 62 c 2
 65 62 l 2
 58 62 51 68 51 74 c 0
 51 83 57 112 75 112 c 2
 360 112 l 2
 503 112 610 174 610 311 c 0
 610 448 499 508 360 508 c 2
 65 508 l 2
64 -58 m 2
 57 -58 50 -52 50 -46 c 0
 50 -37 53 -8 74 -8 c 2
 606 -8 l 2
 612 -8 619 -13 619 -19 c 0
 619 -41 606 -58 589 -58 c 2
 64 -58 l 2
EndSplineSet
EndChar

StartChar: uni228C
Encoding: 8844 8844 96
Width: 694
Flags: HMW
LayerCount: 2
Fore
SplineSet
594 544 m 2
 594 551 600 558 606 558 c 0
 615 558 644 552 644 534 c 2
 644 259 l 2
 644 51 503 -56 348 -56 c 0
 193 -56 50 51 50 259 c 2
 50 544 l 2
 50 551 56 558 62 558 c 0
 71 558 100 552 100 534 c 2
 100 259 l 2
 100 110 205 -2 348 -2 c 0
 491 -2 594 114 594 259 c 2
 594 544 l 2
325 262 m 0
 321 257 322 255 329 255 c 2
 481 255 l 2
 488 255 494 250 494 244 c 0
 494 228 485 211 468 211 c 2
 329 211 l 2
 322 211 321 209 325 204 c 0
 344 182 345 172 362 128 c 0
 363 126 363 126 363 125 c 0
 363 121 360 119 355 119 c 0
 348 119 338 123 333 128 c 0
 287 175 272 191 210 223 c 0
 200 228 200 228 200 233 c 0
 200 238 203 239 210 243 c 0
 272 275 286 291 332 338 c 0
 337 343 347 347 354 347 c 0
 360 347 363 343 357 329 c 0
 343 294 343 282 325 262 c 0
EndSplineSet
EndChar

StartChar: uni228D
Encoding: 8845 8845 97
Width: 694
Flags: HMW
LayerCount: 2
Fore
SplineSet
594 544 m 2
 594 551 600 558 606 558 c 0
 615 558 644 552 644 534 c 2
 644 259 l 2
 644 51 503 -56 348 -56 c 0
 193 -56 50 51 50 259 c 2
 50 544 l 2
 50 551 56 558 62 558 c 0
 71 558 100 552 100 534 c 2
 100 259 l 2
 100 110 205 -2 348 -2 c 0
 491 -2 594 114 594 259 c 2
 594 544 l 2
348 180 m 0
 318 180 293 205 293 235 c 0
 293 265 318 290 348 290 c 0
 378 290 403 265 403 235 c 0
 403 205 378 180 348 180 c 0
EndSplineSet
EndChar

StartChar: uni228E
Encoding: 8846 8846 98
Width: 694
Flags: HMW
LayerCount: 2
Fore
SplineSet
594 544 m 2
 594 551 600 558 606 558 c 0
 615 558 644 552 644 534 c 2
 644 259 l 2
 644 51 503 -56 348 -56 c 0
 193 -56 50 51 50 259 c 2
 50 544 l 2
 50 551 56 558 62 558 c 0
 71 558 100 552 100 534 c 2
 100 259 l 2
 100 110 205 -2 348 -2 c 0
 491 -2 594 114 594 259 c 2
 594 544 l 2
335 95 m 0
 329 95 323 102 323 109 c 2
 323 205 l 2
 323 208 322 210 319 210 c 2
 214 210 l 2
 207 210 200 216 200 222 c 0
 200 231 206 256 224 256 c 2
 316 256 l 2
 322 256 323 258 323 264 c 2
 323 347 l 2
 323 369 355 378 361 378 c 0
 368 378 375 372 375 365 c 2
 375 262 l 2
 375 257 375 256 377 256 c 2
 481 256 l 2
 488 256 494 252 494 246 c 0
 494 229 482 210 463 210 c 2
 379 210 l 2
 376 210 375 209 375 206 c 2
 375 119 l 2
 375 98 344 95 335 95 c 0
EndSplineSet
EndChar

StartChar: uni228F
Encoding: 8847 8847 99
Width: 714
Flags: HMW
LayerCount: 2
Fore
SplineSet
118 497 m 2
 107 497 103 490 103 481 c 2
 103 44 l 2
 103 17 114 4 139 4 c 2
 650 4 l 2
 657 4 664 -2 664 -8 c 0
 664 -17 658 -46 640 -46 c 2
 79 -46 l 2
 62 -46 50 -41 50 -33 c 0
 50 64 50 359 51 520 c 0
 51 542 63 547 83 547 c 2
 650 547 l 2
 657 547 664 541 664 535 c 0
 664 526 658 497 640 497 c 2
 118 497 l 2
EndSplineSet
EndChar

StartChar: uni2290
Encoding: 8848 8848 100
Width: 714
Flags: HMW
LayerCount: 2
Fore
SplineSet
596 4 m 2
 607 4 611 11 611 20 c 2
 611 457 l 2
 611 484 600 497 575 497 c 2
 64 497 l 2
 57 497 50 503 50 509 c 0
 50 518 56 547 74 547 c 2
 635 547 l 2
 652 547 664 542 664 534 c 0
 664 437 664 142 663 -19 c 0
 663 -41 651 -46 631 -46 c 2
 64 -46 l 2
 57 -46 50 -40 50 -34 c 0
 50 -25 56 4 74 4 c 2
 596 4 l 2
EndSplineSet
EndChar

StartChar: uni2291
Encoding: 8849 8849 101
Width: 719
Flags: HMW
LayerCount: 2
Fore
SplineSet
122 508 m 2
 111 508 107 501 107 492 c 2
 107 152 l 2
 107 125 118 112 143 112 c 2
 654 112 l 2
 661 112 668 106 668 100 c 0
 668 91 662 62 644 62 c 2
 83 62 l 2
 66 62 54 67 54 75 c 0
 54 172 54 370 55 531 c 0
 55 553 67 558 87 558 c 2
 654 558 l 2
 661 558 668 552 668 546 c 0
 668 537 662 508 644 508 c 2
 122 508 l 2
655 -8 m 2
 662 -8 669 -14 669 -20 c 0
 669 -29 666 -58 645 -58 c 2
 63 -58 l 2
 57 -58 50 -53 50 -47 c 0
 50 -25 63 -8 80 -8 c 2
 655 -8 l 2
EndSplineSet
EndChar

StartChar: uni2292
Encoding: 8850 8850 102
Width: 719
Flags: HMW
LayerCount: 2
Fore
SplineSet
597 112 m 2
 608 112 612 119 612 128 c 2
 612 468 l 2
 612 495 601 508 576 508 c 2
 65 508 l 2
 58 508 51 514 51 520 c 0
 51 529 57 558 75 558 c 2
 636 558 l 2
 653 558 665 553 665 545 c 0
 665 448 665 250 664 89 c 0
 664 67 652 62 632 62 c 2
 65 62 l 2
 58 62 51 68 51 74 c 0
 51 83 57 112 75 112 c 2
 597 112 l 2
64 -58 m 2
 57 -58 50 -52 50 -46 c 0
 50 -37 53 -8 74 -8 c 2
 656 -8 l 2
 662 -8 669 -13 669 -19 c 0
 669 -41 656 -58 639 -58 c 2
 64 -58 l 2
EndSplineSet
EndChar

StartChar: uni2293
Encoding: 8851 8851 103
Width: 693
Flags: HMW
LayerCount: 2
Fore
SplineSet
593 489.5 m 2
 593 500.5 586 504.5 577 504.5 c 2
 140 504.5 l 2
 113 504.5 100 493.5 100 468.5 c 2
 100 -42.5 l 2
 100 -49.5 94 -56.5 88 -56.5 c 0
 79 -56.5 50 -50.5 50 -32.5 c 2
 50 528.5 l 2
 50 545.5 55 557.5 63 557.5 c 0
 160 557.5 455 557.5 616 556.5 c 0
 638 556.5 643 544.5 643 524.5 c 2
 643 -42.5 l 2
 643 -49.5 637 -56.5 631 -56.5 c 0
 622 -56.5 593 -50.5 593 -32.5 c 2
 593 489.5 l 2
EndSplineSet
EndChar

StartChar: uni2294
Encoding: 8852 8852 104
Width: 693
Flags: HMW
LayerCount: 2
Fore
SplineSet
100 11.5 m 2
 100 0.5 107 -3.5 116 -3.5 c 2
 553 -3.5 l 2
 580 -3.5 593 7.5 593 32.5 c 2
 593 543.5 l 2
 593 550.5 599 557.5 605 557.5 c 0
 614 557.5 643 551.5 643 533.5 c 2
 643 -27.5 l 2
 643 -44.5 638 -56.5 630 -56.5 c 0
 533 -56.5 238 -56.5 77 -55.5 c 0
 55 -55.5 50 -43.5 50 -23.5 c 2
 50 543.5 l 2
 50 550.5 56 557.5 62 557.5 c 0
 71 557.5 100 551.5 100 533.5 c 2
 100 11.5 l 2
EndSplineSet
EndChar

StartChar: circleplus
Encoding: 8853 8853 105
Width: 886
Flags: HMW
LayerCount: 2
Fore
SplineSet
50 250 m 0
 50 466.844726562 226.1875 643.032226562 443.032226562 643.032226562 c 0
 659.876953125 643.032226562 836.064453125 466.844726562 836.064453125 250 c 0
 836.064453125 33.1552734375 659.876953125 -143.032226562 443.032226562 -143.032226562 c 0
 226.1875 -143.032226562 50 33.1552734375 50 250 c 0
100.357421875 250 m 0
 100.357421875 60.939453125 253.971679688 -92.6748046875 443.032226562 -92.6748046875 c 0
 632.092773438 -92.6748046875 785.70703125 60.939453125 785.70703125 250 c 0
 785.70703125 439.060546875 632.092773438 592.674804688 443.032226562 592.674804688 c 0
 253.971679688 592.674804688 100.357421875 439.060546875 100.357421875 250 c 0
425.032226562 -95 m 0
 419.032226562 -95 413.032226562 -88 413.032226562 -81 c 2
 413.032226562 220 l 2
 413.032226562 223 412.032226562 225 409.032226562 225 c 2
 117.032226562 225 l 2
 110.032226562 225 103.032226562 231 103.032226562 237 c 0
 103.032226562 246 109.032226562 275 127.032226562 275 c 2
 406.032226562 275 l 2
 412.032226562 275 413.032226562 277 413.032226562 283 c 2
 413.032226562 544 l 2
 413.032226562 566 453.032226562 575 459.032226562 575 c 0
 466.032226562 575 473.032226562 569 473.032226562 562 c 2
 473.032226562 281 l 2
 473.032226562 276 473.032226562 275 475.032226562 275 c 2
 770.032226562 275 l 2
 777.032226562 275 783.032226562 271 783.032226562 265 c 0
 783.032226562 248 771.032226562 225 752.032226562 225 c 2
 477.032226562 225 l 2
 474.032226562 225 473.032226562 224 473.032226562 221 c 2
 473.032226562 -71 l 2
 473.032226562 -92 434.032226562 -95 425.032226562 -95 c 0
EndSplineSet
EndChar

StartChar: uni2296
Encoding: 8854 8854 106
Width: 886
Flags: HMW
LayerCount: 2
Fore
SplineSet
127.032226562 220 m 2
 120.032226562 220 113.032226562 226 113.032226562 232 c 0
 113.032226562 241 116.032226562 280 137.032226562 280 c 2
 760.032226562 280 l 2
 766.032226562 280 773.032226562 274 773.032226562 268 c 0
 773.032226562 246 760.032226562 220 742.032226562 220 c 2
 127.032226562 220 l 2
50 250 m 0
 50 466.844726562 226.1875 643.032226562 443.032226562 643.032226562 c 0
 659.876953125 643.032226562 836.064453125 466.844726562 836.064453125 250 c 0
 836.064453125 33.1552734375 659.876953125 -143.032226562 443.032226562 -143.032226562 c 0
 226.1875 -143.032226562 50 33.1552734375 50 250 c 0
100.357421875 250 m 0
 100.357421875 60.939453125 253.971679688 -92.6748046875 443.032226562 -92.6748046875 c 0
 632.092773438 -92.6748046875 785.70703125 60.939453125 785.70703125 250 c 0
 785.70703125 439.060546875 632.092773438 592.674804688 443.032226562 592.674804688 c 0
 253.971679688 592.674804688 100.357421875 439.060546875 100.357421875 250 c 0
EndSplineSet
EndChar

StartChar: circlemultiply
Encoding: 8855 8855 107
Width: 886
Flags: HMW
LayerCount: 2
Fore
SplineSet
668.032226562 -13 m 0
 664.032226562 -13 661.032226562 -12 658.032226562 -9 c 2
 446.032226562 204 l 2
 444.032226562 206 441.032226562 206 439.032226562 204 c 2
 226.032226562 -9 l 2
 221.032226562 -14 212.032226562 -14 208.032226562 -10 c 0
 203.032226562 -5 186.032226562 14 186.032226562 29 c 0
 186.032226562 33 188.032226562 38 191.032226562 41 c 2
 395.032226562 245 l 2
 399.032226562 249 398.032226562 251 394.032226562 255 c 2
 195.032226562 453 l 2
 191.032226562 457 190.032226562 462 190.032226562 467 c 0
 190.032226562 483 203.032226562 504 206.032226562 508 c 0
 211.032226562 513 220.032226562 513 225.032226562 508 c 2
 438.032226562 296 l 2
 443.032226562 291 443.032226562 293 445.032226562 295 c 2
 659.032226562 508 l 2
 662.032226562 511 665.032226562 513 669.032226562 513 c 0
 672.032226562 513 676.032226562 511 678.032226562 508 c 0
 685.032226562 495 695.032226562 480 695.032226562 468 c 0
 695.032226562 463 693.032226562 458 688.032226562 453 c 2
 487.032226562 252 l 2
 485.032226562 250 485.032226562 249 487.032226562 247 c 2
 693.032226562 41 l 2
 696.032226562 38 698.032226562 34 698.032226562 29 c 0
 698.032226562 11 679.032226562 -13 668.032226562 -13 c 0
50 250 m 0
 50 466.844726562 226.1875 643.032226562 443.032226562 643.032226562 c 0
 659.876953125 643.032226562 836.064453125 466.844726562 836.064453125 250 c 0
 836.064453125 33.1552734375 659.876953125 -143.032226562 443.032226562 -143.032226562 c 0
 226.1875 -143.032226562 50 33.1552734375 50 250 c 0
100.357421875 250 m 0
 100.357421875 60.939453125 253.971679688 -92.6748046875 443.032226562 -92.6748046875 c 0
 632.092773438 -92.6748046875 785.70703125 60.939453125 785.70703125 250 c 0
 785.70703125 439.060546875 632.092773438 592.674804688 443.032226562 592.674804688 c 0
 253.971679688 592.674804688 100.357421875 439.060546875 100.357421875 250 c 0
EndSplineSet
EndChar

StartChar: uni2298
Encoding: 8856 8856 108
Width: 886
Flags: HMW
LayerCount: 2
Fore
SplineSet
565.748046875 596 m 1
 369.180664062 -114 l 1
 318.1015625 -104 l 1
 516.883789062 614 l 1
 565.748046875 596 l 1
50 250 m 0
 50 466.844726562 226.1875 643.032226562 443.032226562 643.032226562 c 0
 659.876953125 643.032226562 836.064453125 466.844726562 836.064453125 250 c 0
 836.064453125 33.1552734375 659.876953125 -143.032226562 443.032226562 -143.032226562 c 0
 226.1875 -143.032226562 50 33.1552734375 50 250 c 0
100.357421875 250 m 0
 100.357421875 60.939453125 253.971679688 -92.6748046875 443.032226562 -92.6748046875 c 0
 632.092773438 -92.6748046875 785.70703125 60.939453125 785.70703125 250 c 0
 785.70703125 439.060546875 632.092773438 592.674804688 443.032226562 592.674804688 c 0
 253.971679688 592.674804688 100.357421875 439.060546875 100.357421875 250 c 0
EndSplineSet
EndChar

StartChar: uni2299
Encoding: 8857 8857 109
Width: 886
Flags: HMW
LayerCount: 2
Fore
SplineSet
499.032226562 250 m 0
 499.032226562 219 474.032226562 194 443.032226562 194 c 0
 412.032226562 194 387.032226562 219 387.032226562 250 c 0
 387.032226562 281 412.032226562 306 443.032226562 306 c 0
 474.032226562 306 499.032226562 281 499.032226562 250 c 0
50 250 m 0
 50 466.844726562 226.1875 643.032226562 443.032226562 643.032226562 c 0
 659.876953125 643.032226562 836.064453125 466.844726562 836.064453125 250 c 0
 836.064453125 33.1552734375 659.876953125 -143.032226562 443.032226562 -143.032226562 c 0
 226.1875 -143.032226562 50 33.1552734375 50 250 c 0
100.357421875 250 m 0
 100.357421875 60.939453125 253.971679688 -92.6748046875 443.032226562 -92.6748046875 c 0
 632.092773438 -92.6748046875 785.70703125 60.939453125 785.70703125 250 c 0
 785.70703125 439.060546875 632.092773438 592.674804688 443.032226562 592.674804688 c 0
 253.971679688 592.674804688 100.357421875 439.060546875 100.357421875 250 c 0
EndSplineSet
EndChar

StartChar: uni229A
Encoding: 8858 8858 110
Width: 886
Flags: HMW
LayerCount: 2
Fore
SplineSet
246.516601562 250 m 0
 246.516601562 358.421875 334.610351562 446.515625 443.032226562 446.515625 c 0
 551.454101562 446.515625 639.547851562 358.421875 639.547851562 250 c 0
 639.547851562 141.578125 551.454101562 53.484375 443.032226562 53.484375 c 0
 334.610351562 53.484375 246.516601562 141.578125 246.516601562 250 c 0
294.18359375 250 m 4
 294.18359375 167.875976562 360.908203125 101.151367188 443.032226562 101.151367188 c 4
 525.15625 101.151367188 591.880859375 167.875976562 591.880859375 250 c 4
 591.880859375 332.124023438 525.15625 398.848632812 443.032226562 398.848632812 c 4
 360.908203125 398.848632812 294.18359375 332.124023438 294.18359375 250 c 4
50 250 m 0
 50 466.844726562 226.1875 643.032226562 443.032226562 643.032226562 c 0
 659.876953125 643.032226562 836.064453125 466.844726562 836.064453125 250 c 0
 836.064453125 33.1552734375 659.876953125 -143.032226562 443.032226562 -143.032226562 c 0
 226.1875 -143.032226562 50 33.1552734375 50 250 c 0
100.357421875 250 m 0
 100.357421875 60.939453125 253.971679688 -92.6748046875 443.032226562 -92.6748046875 c 0
 632.092773438 -92.6748046875 785.70703125 60.939453125 785.70703125 250 c 0
 785.70703125 439.060546875 632.092773438 592.674804688 443.032226562 592.674804688 c 0
 253.971679688 592.674804688 100.357421875 439.060546875 100.357421875 250 c 0
EndSplineSet
EndChar

StartChar: uni229B
Encoding: 8859 8859 111
Width: 886
Flags: HMW
LayerCount: 2
Fore
SplineSet
50 250 m 0
 50 466.844726562 226.1875 643.032226562 443.032226562 643.032226562 c 0
 659.876953125 643.032226562 836.064453125 466.844726562 836.064453125 250 c 0
 836.064453125 33.1552734375 659.876953125 -143.032226562 443.032226562 -143.032226562 c 0
 226.1875 -143.032226562 50 33.1552734375 50 250 c 0
100.357421875 250 m 0
 100.357421875 60.939453125 253.971679688 -92.6748046875 443.032226562 -92.6748046875 c 0
 632.092773438 -92.6748046875 785.70703125 60.939453125 785.70703125 250 c 0
 785.70703125 439.060546875 632.092773438 592.674804688 443.032226562 592.674804688 c 0
 253.971679688 592.674804688 100.357421875 439.060546875 100.357421875 250 c 0
470.182617188 -33.900390625 m 0
 455.857421875 -33.900390625 444.638671875 -21.466796875 442.323242188 -5.263671875 c 2
 418.913085938 161.2109375 l 2
 417.068359375 172.282226562 407.505859375 177.7265625 396.618164062 170.46875 c 0
 355.174804688 141.9765625 307.25390625 113.479492188 253.951171875 82.27734375 c 2
 253.286132812 81.8876953125 l 1
 252.740234375 81.3427734375 l 2
 248.955078125 77.55859375 242.7265625 75.2998046875 236.182617188 75.2998046875 c 0
 221.185546875 75.2998046875 207.08203125 81.248046875 207.08203125 95.2998046875 c 0
 207.08203125 119.751953125 229.3828125 131.125976562 251.534179688 147.739257812 c 2
 354.330078125 228.4140625 l 2
 364.33984375 236.422851562 360.93359375 247.6328125 350.56640625 252.81640625 c 0
 307.540039062 272.374023438 264.9765625 293.012695312 214.467773438 321.50390625 c 0
 198.688476562 330.709960938 183.682617188 340.973632812 183.682617188 359.200195312 c 0
 183.682617188 373.770507812 195.600585938 379.200195312 210.182617188 379.200195312 c 0
 215.12109375 379.200195312 220.64453125 378.89453125 223.811523438 378.205078125 c 0
 282.127929688 351.770507812 334.172851562 334.079101562 380.774414062 314.662109375 c 2
 380.9765625 314.577148438 l 1
 381.184570312 314.5078125 l 2
 391.779296875 310.975585938 400.782226562 316.546875 400.782226562 328 c 2
 400.782226562 328.298828125 l 1
 400.752929688 328.596679688 l 2
 395.569335938 380.427734375 391.67578125 436.282226562 390.381835938 498.362304688 c 0
 390.381835938 517.943359375 398.458007812 533.900390625 416.881835938 533.900390625 c 0
 431.206054688 533.900390625 442.427734375 521.452148438 444.73828125 505.283203125 c 2
 466.846679688 337.514648438 l 2
 468.700195312 326.39453125 478.262695312 320.975585938 489.146484375 328.231445312 c 0
 530.587890625 356.72265625 578.525390625 385.229492188 633.151367188 417.745117188 c 2
 633.794921875 418.127929688 l 1
 634.32421875 418.657226562 l 2
 638.109375 422.44140625 644.337890625 424.700195312 650.881835938 424.700195312 c 0
 665.87890625 424.700195312 679.982421875 418.751953125 679.982421875 404.700195312 c 0
 679.982421875 378.967773438 656.481445312 367.6484375 634.229492188 350.9609375 c 2
 531.434570312 270.28515625 l 2
 521.423828125 262.27734375 524.83203125 251.067382812 535.198242188 245.883789062 c 0
 578.224609375 226.326171875 620.788085938 205.6875 671.296875 177.196289062 c 0
 687.344726562 167.833984375 703.381835938 157.376953125 703.381835938 140.799804688 c 0
 703.381835938 124.982421875 690.219726562 119.5 675.58203125 119.5 c 0
 670.190429688 119.5 666.458007812 119.860351562 664.609375 121.092773438 c 2
 664.138671875 121.40625 l 1
 663.616210938 121.626953125 l 2
 604.88671875 146.423828125 551.521484375 164.650390625 504.990234375 184.038085938 c 2
 504.788085938 184.123046875 l 1
 504.579101562 184.192382812 l 2
 493.984375 187.72265625 484.982421875 182.154296875 484.982421875 170.700195312 c 2
 484.982421875 170.401367188 l 1
 485.01171875 170.103515625 l 2
 490.19140625 118.315429688 494.098632812 62.2763671875 496.682617188 1.572265625 c 0
 496.682617188 -17.888671875 488.606445312 -33.900390625 470.182617188 -33.900390625 c 0
EndSplineSet
EndChar

StartChar: uni229C
Encoding: 8860 8860 112
Width: 886
Flags: HMW
LayerCount: 2
Fore
SplineSet
143.032226562 321 m 2
 136.032226562 321 129.032226562 327 129.032226562 333 c 0
 129.032226562 342 135.032226562 371 153.032226562 371 c 2
 741.032226562 371 l 2
 747.032226562 371 755.032226562 366 755.032226562 360 c 0
 755.032226562 346 739.032226562 321 723.032226562 321 c 2
 143.032226562 321 l 2
143.032226562 130 m 2
 136.032226562 130 129.032226562 136 129.032226562 142 c 0
 129.032226562 151 135.032226562 180 153.032226562 180 c 2
 741.032226562 180 l 2
 747.032226562 180 755.032226562 175 755.032226562 169 c 0
 755.032226562 151 739.032226562 130 723.032226562 130 c 2
 143.032226562 130 l 2
50 250 m 0
 50 466.844726562 226.1875 643.032226562 443.032226562 643.032226562 c 0
 659.876953125 643.032226562 836.064453125 466.844726562 836.064453125 250 c 0
 836.064453125 33.1552734375 659.876953125 -143.032226562 443.032226562 -143.032226562 c 0
 226.1875 -143.032226562 50 33.1552734375 50 250 c 0
100.357421875 250 m 0
 100.357421875 60.939453125 253.971679688 -92.6748046875 443.032226562 -92.6748046875 c 0
 632.092773438 -92.6748046875 785.70703125 60.939453125 785.70703125 250 c 0
 785.70703125 439.060546875 632.092773438 592.674804688 443.032226562 592.674804688 c 0
 253.971679688 592.674804688 100.357421875 439.060546875 100.357421875 250 c 0
EndSplineSet
EndChar

StartChar: uni229D
Encoding: 8861 8861 113
Width: 886
Flags: HMW
LayerCount: 2
Fore
SplineSet
127.032226562 220 m 2
 120.032226562 220 113.032226562 226 113.032226562 232 c 0
 113.032226562 241 116.032226562 280 137.032226562 280 c 2
 760.032226562 280 l 2
 766.032226562 280 773.032226562 274 773.032226562 268 c 0
 773.032226562 246 760.032226562 220 742.032226562 220 c 2
 127.032226562 220 l 2
50 250 m 0
 50 466.844726562 226.1875 643.032226562 443.032226562 643.032226562 c 0
 659.876953125 643.032226562 836.064453125 466.844726562 836.064453125 250 c 0
 836.064453125 33.1552734375 659.876953125 -143.032226562 443.032226562 -143.032226562 c 0
 226.1875 -143.032226562 50 33.1552734375 50 250 c 0
100.357421875 250 m 0
 100.357421875 60.939453125 253.971679688 -92.6748046875 443.032226562 -92.6748046875 c 0
 632.092773438 -92.6748046875 785.70703125 60.939453125 785.70703125 250 c 0
 785.70703125 439.060546875 632.092773438 592.674804688 443.032226562 592.674804688 c 0
 253.971679688 592.674804688 100.357421875 439.060546875 100.357421875 250 c 0
EndSplineSet
EndChar

StartChar: uni229E
Encoding: 8862 8862 114
Width: 834
Flags: HMW
LayerCount: 2
Fore
SplineSet
139 -67 m 2
 668 -67 l 2
 724 -67 733 -58 733 -10 c 2
 733 543 l 2
 733 563 726 567 704 567 c 2
 118 567 l 2
 107 567 103 560 103 551 c 2
 103 -27 l 2
 103 -54 114 -67 139 -67 c 2
79 -117 m 2
 62 -117 50 -112 50 -104 c 0
 50 -7 50 149 51 590 c 0
 51 612 63 617 83 617 c 2
 755 617 l 2
 774 617 784 612 784 589 c 2
 784 -82 l 2
 784 -112 772 -117 755 -117 c 2
 79 -117 l 2
398 -95 m 0
 392 -95 386 -88 386 -81 c 2
 386 220 l 2
 386 223 385 225 382 225 c 2
 90 225 l 2
 83 225 76 231 76 237 c 0
 76 246 82 275 100 275 c 2
 379 275 l 2
 385 275 386 277 386 283 c 2
 386 544 l 2
 386 566 426 575 432 575 c 0
 439 575 446 569 446 562 c 2
 446 281 l 2
 446 276 446 275 448 275 c 2
 743 275 l 2
 750 275 756 271 756 265 c 0
 756 248 744 225 725 225 c 2
 450 225 l 2
 447 225 446 224 446 221 c 2
 446 -71 l 2
 446 -92 407 -95 398 -95 c 0
EndSplineSet
EndChar

StartChar: uni229F
Encoding: 8863 8863 115
Width: 834
Flags: HMW
LayerCount: 2
Fore
SplineSet
139 -67 m 2
 668 -67 l 2
 724 -67 733 -58 733 -10 c 2
 733 543 l 2
 733 563 726 567 704 567 c 2
 118 567 l 2
 107 567 103 560 103 551 c 2
 103 -27 l 2
 103 -54 114 -67 139 -67 c 2
79 -117 m 2
 62 -117 50 -112 50 -104 c 0
 50 -7 50 149 51 590 c 0
 51 612 63 617 83 617 c 2
 755 617 l 2
 774 617 784 612 784 589 c 2
 784 -82 l 2
 784 -112 772 -117 755 -117 c 2
 79 -117 l 2
100 220 m 2
 93 220 86 226 86 232 c 0
 86 241 89 280 110 280 c 2
 733 280 l 2
 739 280 746 274 746 268 c 0
 746 246 733 220 715 220 c 2
 100 220 l 2
EndSplineSet
EndChar

StartChar: uni22A0
Encoding: 8864 8864 116
Width: 834
Flags: HMW
LayerCount: 2
Fore
SplineSet
139 -67 m 2
 668 -67 l 2
 724 -67 733 -58 733 -10 c 2
 733 543 l 2
 733 563 726 567 704 567 c 2
 118 567 l 2
 107 567 103 560 103 551 c 2
 103 -27 l 2
 103 -54 114 -67 139 -67 c 2
79 -117 m 2
 62 -117 50 -112 50 -104 c 0
 50 -7 50 149 51 590 c 0
 51 612 63 617 83 617 c 2
 755 617 l 2
 774 617 784 612 784 589 c 2
 784 -82 l 2
 784 -112 772 -117 755 -117 c 2
 79 -117 l 2
641 -13 m 0
 637 -13 634 -12 631 -9 c 2
 419 204 l 2
 417 206 414 206 412 204 c 2
 199 -9 l 2
 194 -14 185 -14 181 -10 c 0
 176 -5 159 14 159 29 c 0
 159 33 161 38 164 41 c 2
 368 245 l 2
 372 249 371 251 367 255 c 2
 168 453 l 2
 164 457 163 462 163 467 c 0
 163 483 176 504 179 508 c 0
 184 513 193 513 198 508 c 2
 411 296 l 2
 416 291 416 293 418 295 c 2
 632 508 l 2
 635 511 638 513 642 513 c 0
 645 513 649 511 651 508 c 0
 658 495 668 480 668 468 c 0
 668 463 666 458 661 453 c 2
 460 252 l 2
 458 250 458 249 460 247 c 2
 666 41 l 2
 669 38 671 34 671 29 c 0
 671 11 652 -13 641 -13 c 0
EndSplineSet
EndChar

StartChar: uni22A1
Encoding: 8865 8865 117
Width: 834
Flags: HMW
LayerCount: 2
Fore
SplineSet
139 -67 m 2
 668 -67 l 2
 724 -67 733 -58 733 -10 c 2
 733 543 l 2
 733 563 726 567 704 567 c 2
 118 567 l 2
 107 567 103 560 103 551 c 2
 103 -27 l 2
 103 -54 114 -67 139 -67 c 2
79 -117 m 2
 62 -117 50 -112 50 -104 c 0
 50 -7 50 149 51 590 c 0
 51 612 63 617 83 617 c 2
 755 617 l 2
 774 617 784 612 784 589 c 2
 784 -82 l 2
 784 -112 772 -117 755 -117 c 2
 79 -117 l 2
416 195 m 0
 386 195 361 220 361 250 c 0
 361 280 386 305 416 305 c 0
 446 305 471 280 471 250 c 0
 471 220 446 195 416 195 c 0
EndSplineSet
EndChar

StartChar: uni22A2
Encoding: 8866 8866 118
Width: 713
Flags: HMW
LayerCount: 2
Fore
SplineSet
50 -59 m 2
 50 544 l 2
 50 564 69 575 89 575 c 0
 95 575 102 567 102 559 c 2
 102 285 l 2
 102 278 105 275 112 275 c 2
 649 275 l 2
 655 275 663 270 663 264 c 0
 663 250 647 225 631 225 c 2
 112 225 l 2
 105 225 102 221 102 215 c 2
 102 -44 l 2
 102 -64 83 -75 63 -75 c 0
 57 -75 50 -67 50 -59 c 2
EndSplineSet
EndChar

StartChar: uni22A3
Encoding: 8867 8867 119
Width: 713
Flags: HMW
LayerCount: 2
Fore
SplineSet
663 559 m 2
 663 -44 l 2
 663 -64 644 -75 624 -75 c 0
 618 -75 611 -67 611 -59 c 2
 611 215 l 2
 611 222 608 225 601 225 c 2
 64 225 l 2
 58 225 50 230 50 236 c 0
 50 250 66 275 82 275 c 2
 601 275 l 2
 608 275 611 279 611 285 c 2
 611 544 l 2
 611 564 630 575 650 575 c 0
 656 575 663 567 663 559 c 2
EndSplineSet
EndChar

StartChar: uni22A4
Encoding: 8868 8868 120
Width: 750
Flags: HMW
LayerCount: 2
Fore
SplineSet
66 556.5 m 2
 669 556.5 l 2
 689 556.5 700 537.5 700 517.5 c 0
 700 511.5 692 504.5 684 504.5 c 2
 410 504.5 l 2
 403 504.5 400 501.5 400 494.5 c 2
 400 -42.5 l 2
 400 -48.5 395 -56.5 389 -56.5 c 0
 375 -56.5 350 -40.5 350 -24.5 c 2
 350 494.5 l 2
 350 501.5 346 504.5 340 504.5 c 2
 81 504.5 l 2
 61 504.5 50 523.5 50 543.5 c 0
 50 549.5 58 556.5 66 556.5 c 2
EndSplineSet
EndChar

StartChar: perpendicular
Encoding: 8869 8869 121
Width: 750
Flags: HMW
LayerCount: 2
Fore
SplineSet
684 -56.5 m 2
 81 -56.5 l 2
 61 -56.5 50 -37.5 50 -17.5 c 0
 50 -11.5 58 -4.5 66 -4.5 c 2
 340 -4.5 l 2
 347 -4.5 350 -1.5 350 5.5 c 2
 350 542.5 l 2
 350 548.5 355 556.5 361 556.5 c 0
 375 556.5 400 540.5 400 524.5 c 2
 400 5.5 l 2
 400 -1.5 404 -4.5 410 -4.5 c 2
 669 -4.5 l 2
 689 -4.5 700 -23.5 700 -43.5 c 0
 700 -49.5 692 -56.5 684 -56.5 c 2
EndSplineSet
EndChar

StartChar: uni22A6
Encoding: 8870 8870 122
Width: 433
Flags: HMW
LayerCount: 2
Fore
SplineSet
50 -59 m 2
 50 544 l 2
 50 564 69 575 89 575 c 0
 95 575 102 567 102 559 c 2
 102 285 l 2
 102 278 105 275 112 275 c 2
 369 275 l 2
 375 275 383 270 383 264 c 0
 383 250 367 225 351 225 c 2
 112 225 l 2
 105 225 102 221 102 215 c 2
 102 -44 l 2
 102 -64 83 -75 63 -75 c 0
 57 -75 50 -67 50 -59 c 2
EndSplineSet
EndChar

StartChar: uni22A7
Encoding: 8871 8871 123
Width: 433
Flags: HMW
LayerCount: 2
Fore
SplineSet
63 -75 m 0
 57 -75 50 -67 50 -59 c 2
 50 544 l 2
 50 564 69 575 89 575 c 0
 95 575 102 567 102 559 c 2
 102 374 l 2
 102 367 105 364 112 364 c 2
 369 364 l 2
 375 364 383 359 383 353 c 0
 383 339 367 314 351 314 c 2
 112 314 l 2
 105 314 102 310 102 304 c 2
 102 203 l 2
 102 196 105 193 112 193 c 2
 369 193 l 2
 375 193 383 188 383 182 c 0
 383 164 367 143 351 143 c 2
 112 143 l 2
 105 143 102 139 102 133 c 2
 102 -44 l 2
 102 -64 83 -75 63 -75 c 0
EndSplineSet
EndChar

StartChar: uni22A8
Encoding: 8872 8872 124
Width: 713
Flags: HMW
LayerCount: 2
Fore
SplineSet
63 -75 m 0
 57 -75 50 -67 50 -59 c 2
 50 544 l 2
 50 564 69 575 89 575 c 0
 95 575 102 567 102 559 c 2
 102 374 l 2
 102 367 105 364 112 364 c 2
 649 364 l 2
 655 364 663 359 663 353 c 0
 663 339 647 314 631 314 c 2
 112 314 l 2
 105 314 102 310 102 304 c 2
 102 203 l 2
 102 196 105 193 112 193 c 2
 649 193 l 2
 655 193 663 188 663 182 c 0
 663 164 647 143 631 143 c 2
 112 143 l 2
 105 143 102 139 102 133 c 2
 102 -44 l 2
 102 -64 83 -75 63 -75 c 0
EndSplineSet
EndChar

StartChar: uni22A9
Encoding: 8873 8873 125
Width: 733
Flags: HMW
LayerCount: 2
Fore
SplineSet
50 -59 m 2
 50 544 l 2
 50 564 69 575 89 575 c 0
 95 575 102 567 102 559 c 2
 102 -44 l 2
 102 -64 83 -75 63 -75 c 0
 57 -75 50 -67 50 -59 c 2
234 -59 m 2
 234 544 l 2
 234 564 253 575 273 575 c 0
 279 575 286 567 286 559 c 2
 286 285 l 2
 286 278 289 275 296 275 c 2
 669 275 l 2
 675 275 683 270 683 264 c 0
 683 250 667 225 651 225 c 2
 296 225 l 2
 289 225 286 221 286 215 c 2
 286 -44 l 2
 286 -64 267 -75 247 -75 c 0
 241 -75 234 -67 234 -59 c 2
EndSplineSet
EndChar

StartChar: uni22AA
Encoding: 8874 8874 126
Width: 919
Flags: HMW
LayerCount: 2
Fore
SplineSet
50 -139 m 2
 50 624 l 2
 50 644 69 655 89 655 c 0
 95 655 102 649 102 641 c 2
 102 -122 l 2
 102 -142 83 -155 63 -155 c 0
 57 -155 50 -147 50 -139 c 2
200 -139 m 2
 200 624 l 2
 200 644 219 655 239 655 c 0
 245 655 252 649 252 641 c 2
 252 -122 l 2
 252 -142 233 -155 213 -155 c 0
 207 -155 200 -147 200 -139 c 2
350 -139 m 2
 350 624 l 2
 350 644 369 655 389 655 c 0
 395 655 402 647 402 639 c 2
 402 285 l 2
 402 278 405 275 412 275 c 2
 855 275 l 2
 861 275 869 270 869 264 c 0
 869 250 853 225 837 225 c 2
 412 225 l 2
 405 225 402 221 402 215 c 2
 402 -124 l 2
 402 -144 383 -155 363 -155 c 0
 357 -155 350 -147 350 -139 c 2
EndSplineSet
EndChar

StartChar: uni22AB
Encoding: 8875 8875 127
Width: 733
Flags: HMW
LayerCount: 2
Fore
SplineSet
234 -59 m 2
 234 544 l 2
 234 564 253 575 273 575 c 0
 279 575 286 567 286 559 c 2
 286 374 l 2
 286 367 289 364 296 364 c 2
 669 364 l 2
 675 364 683 359 683 353 c 0
 683 339 667 314 651 314 c 2
 296 314 l 2
 289 314 286 310 286 304 c 2
 286 203 l 2
 286 196 289 193 296 193 c 2
 669 193 l 2
 675 193 683 188 683 182 c 0
 683 164 667 143 651 143 c 2
 296 143 l 2
 289 143 286 139 286 133 c 2
 286 -44 l 2
 286 -64 267 -75 247 -75 c 0
 241 -75 234 -67 234 -59 c 2
63 -75 m 0
 57 -75 50 -67 50 -59 c 2
 50 544 l 2
 50 564 69 575 89 575 c 0
 95 575 102 567 102 559 c 2
 102 -44 l 2
 102 -64 83 -75 63 -75 c 0
EndSplineSet
EndChar

StartChar: uni22AC
Encoding: 8876 8876 128
Width: 713
Flags: HMW
LayerCount: 2
Fore
SplineSet
498 709 m 6
 248 -194 l 6
 242 -214 219 -225 199 -225 c 4
 192 -225 188 -217 190 -209 c 6
 440 694 l 6
 446 714 469 725 489 725 c 4
 496 725 500 717 498 709 c 6
50 -59 m 2
 50 544 l 2
 50 564 69 575 89 575 c 0
 95 575 102 567 102 559 c 2
 102 285 l 2
 102 278 105 275 112 275 c 2
 649 275 l 2
 655 275 663 270 663 264 c 0
 663 250 647 225 631 225 c 2
 112 225 l 2
 105 225 102 221 102 215 c 2
 102 -44 l 2
 102 -64 83 -75 63 -75 c 0
 57 -75 50 -67 50 -59 c 2
EndSplineSet
EndChar

StartChar: uni22AD
Encoding: 8877 8877 129
Width: 713
Flags: HMW
LayerCount: 2
Fore
SplineSet
493 709 m 6
 243 -194 l 6
 237 -214 214 -225 194 -225 c 4
 187 -225 183 -217 185 -209 c 6
 435 694 l 6
 441 714 464 725 484 725 c 4
 491 725 495 717 493 709 c 6
63 -75 m 0
 57 -75 50 -67 50 -59 c 2
 50 544 l 2
 50 564 69 575 89 575 c 0
 95 575 102 567 102 559 c 2
 102 374 l 2
 102 367 105 364 112 364 c 2
 649 364 l 2
 655 364 663 359 663 353 c 0
 663 339 647 314 631 314 c 2
 112 314 l 2
 105 314 102 310 102 304 c 2
 102 203 l 2
 102 196 105 193 112 193 c 2
 649 193 l 2
 655 193 663 188 663 182 c 0
 663 164 647 143 631 143 c 2
 112 143 l 2
 105 143 102 139 102 133 c 2
 102 -44 l 2
 102 -64 83 -75 63 -75 c 0
EndSplineSet
EndChar

StartChar: uni22AE
Encoding: 8878 8878 130
Width: 733
Flags: HMW
LayerCount: 2
Fore
SplineSet
498 709 m 6
 500 717 496 725 489 725 c 0
 469 725 446 714 440 694 c 2
 190 -209 l 2
 188 -217 192 -225 199 -225 c 0
 219 -225 242 -214 248 -194 c 6
 498 709 l 6
50 -59 m 2
 50 544 l 2
 50 564 69 575 89 575 c 0
 95 575 102 567 102 559 c 2
 102 -44 l 2
 102 -64 83 -75 63 -75 c 0
 57 -75 50 -67 50 -59 c 2
234 -59 m 2
 234 -67 241 -75 247 -75 c 0
 267 -75 286 -64 286 -44 c 2
 286 215 l 2
 286 221 289 225 296 225 c 2
 651 225 l 2
 667 225 683 250 683 264 c 0
 683 270 675 275 669 275 c 2
 296 275 l 2
 289 275 286 278 286 285 c 2
 286 559 l 2
 286 567 279 575 273 575 c 0
 253 575 234 564 234 544 c 2
 234 -59 l 2
EndSplineSet
EndChar

StartChar: uni22AF
Encoding: 8879 8879 131
Width: 733
Flags: HMW
LayerCount: 2
Fore
SplineSet
498 709 m 2
 500 717 496 725 489 725 c 0
 469 725 446 714 440 694 c 2
 190 -209 l 2
 188 -217 192 -225 199 -225 c 0
 219 -225 242 -214 248 -194 c 2
 498 709 l 2
234 -59 m 2
 234 -67 241 -75 247 -75 c 0
 267 -75 286 -64 286 -44 c 2
 286 133 l 2
 286 139 289 143 296 143 c 2
 651 143 l 2
 667 143 683 164 683 182 c 0
 683 188 675 193 669 193 c 2
 296 193 l 2
 289 193 286 196 286 203 c 2
 286 304 l 2
 286 310 289 314 296 314 c 2
 651 314 l 2
 667 314 683 339 683 353 c 0
 683 359 675 364 669 364 c 2
 296 364 l 2
 289 364 286 367 286 374 c 2
 286 559 l 2
 286 567 279 575 273 575 c 0
 253 575 234 564 234 544 c 2
 234 -59 l 2
63 -75 m 0
 57 -75 50 -67 50 -59 c 2
 50 544 l 2
 50 564 69 575 89 575 c 0
 95 575 102 567 102 559 c 2
 102 -44 l 2
 102 -64 83 -75 63 -75 c 0
EndSplineSet
EndChar

StartChar: uni22B0
Encoding: 8880 8880 132
Width: 702
Flags: HMW
LayerCount: 2
Fore
SplineSet
65 224 m 0
 57.0810546875 225.515625 50 232 50 238 c 0
 50 256 60.21484375 274.520507812 79 278 c 0
 185.87109375 297.795898438 328.639648438 320.9375 437 357.845703125 c 0
 530.413085938 389.662109375 598 431.22265625 598 484 c 0
 598 559 455 573 409 574 c 0
 402 575 394 581 394 587 c 0
 394 605 403 624 421 624 c 0
 514.120117188 624 652 589.250976562 652 482 c 0
 652 336 347 277 214 252 c 0
 207.784179688 250.83203125 208.021484375 248.124023438 214 247 c 0
 347 222 652 163 652 17 c 0
 652 -91 519 -123 409 -125 c 0
 400.939453125 -125.146484375 394 -119 394 -113 c 0
 394 -94 405 -77 424 -75 c 0
 468 -71 598 -56 598 15 c 0
 598 67.55859375 530.870117188 109.943359375 437 141.473632812 c 0
 329.389648438 177.619140625 186.819335938 200.685546875 65 224 c 0
EndSplineSet
EndChar

StartChar: uni22B1
Encoding: 8881 8881 133
Width: 702
Flags: HMW
LayerCount: 2
Fore
SplineSet
637 274.997070312 m 0
 644.918945312 273.481445312 652 266.997070312 652 260.997070312 c 0
 652 242.997070312 641.78515625 224.4765625 623 220.997070312 c 0
 516.12890625 201.201171875 373.360351562 178.059570312 265 141.151367188 c 0
 171.586914062 109.334960938 104 67.7744140625 104 14.9970703125 c 0
 104 -60.0029296875 247 -74.0029296875 293 -75.0029296875 c 0
 300 -76.0029296875 308 -82.0029296875 308 -88.0029296875 c 0
 308 -106.002929688 299 -125.002929688 281 -125.002929688 c 0
 187.879882812 -125.002929688 50 -90.25390625 50 16.9970703125 c 0
 50 162.997070312 355 221.997070312 488 246.997070312 c 0
 494.215820312 248.165039062 493.978515625 250.874023438 488 251.997070312 c 0
 355 276.997070312 50 335.997070312 50 481.997070312 c 0
 50 589.997070312 183 621.997070312 293 623.997070312 c 0
 301.060546875 624.143554688 308 617.997070312 308 611.997070312 c 0
 308 592.997070312 297 575.997070312 278 573.997070312 c 0
 234 569.997070312 104 554.997070312 104 483.997070312 c 0
 104 431.439453125 171.129882812 389.053710938 265 357.5234375 c 0
 372.610351562 321.377929688 515.180664062 298.3125 637 274.997070312 c 0
EndSplineSet
EndChar

StartChar: uni22B2
Encoding: 8882 8882 134
Width: 712
Flags: HMW
LayerCount: 2
Fore
SplineSet
606 49 m 2
 606 93 l 2
 606 137 607 347 607 389 c 0
 607 443 605 484 596 484 c 0
 576 484 364 370 141 259 c 0
 128.989257812 253.021484375 128 253 128 250 c 0
 128 248 129 247 140 241 c 2
 577 24 l 2
 597 14 605 27 606 49 c 2
661 -2 m 0
 661 -9 662 -14 662 -20 c 0
 662 -41 660 -57 643 -57 c 0
 635 -57 625 -54 610 -47 c 0
 439 35 220 145 75 220 c 0
 60 227 50 240 50 253 c 0
 50 264 59 276 81 287 c 0
 240 363 531 511 622 555 c 0
 630 558 636 560 642 560 c 0
 654 560 659 549 659 518 c 0
 659 479 661 22 661 -2 c 0
EndSplineSet
EndChar

StartChar: uni22B3
Encoding: 8883 8883 135
Width: 712
Flags: HMW
LayerCount: 2
Fore
SplineSet
106 454 m 2
 106 410 l 2
 106 366 105 156 105 114 c 0
 105 60 107 19 116 19 c 0
 136 19 348 133 571 244 c 0
 583.010742188 249.978515625 584 250 584 253 c 0
 584 255 583 256 572 262 c 2
 135 479 l 2
 115 489 107 476 106 454 c 2
51 505 m 0
 51 512 50 517 50 523 c 0
 50 544 52 560 69 560 c 0
 77 560 87 557 102 550 c 0
 273 468 492 358 637 283 c 0
 652 276 662 263 662 250 c 0
 662 239 653 227 631 216 c 0
 472 140 181 -8 90 -52 c 0
 82 -55 76 -57 70 -57 c 0
 58 -57 53 -46 53 -15 c 0
 53 24 51 481 51 505 c 0
EndSplineSet
EndChar

StartChar: uni22B4
Encoding: 8884 8884 136
Width: 720
Flags: HMW
LayerCount: 2
Fore
SplineSet
655 -37 m 2
 662 -37 669 -43 669 -49 c 0
 669 -58 666 -87 645 -87 c 2
 63 -87 l 2
 57 -87 50 -82 50 -76 c 0
 50 -54 63 -37 80 -37 c 2
 655 -37 l 2
615 137 m 0
 614 150 614 164 614 179 c 0
 614 220 615 402 615 436 c 0
 615 480 613 512 605 512 c 0
 576 512 363 407 150 317 c 0
 138 312 141 311 141 308 c 0
 141 306 137 304 149 299 c 2
 585 111 l 2
 606 103 613 114 615 137 c 0
670 86 m 2
 670 65 l 2
 670 45 668 31 651 31 c 0
 644 31 633 34 619 41 c 0
 448 117 229 205 84 280 c 0
 68 287 58 298 58 311 c 0
 58 322 67 334 90 345 c 0
 249 421 540 549 631 583 c 0
 638 586 645 587 650 587 c 0
 662 587 668 577 668 546 c 0
 668 507 670 110 670 86 c 2
EndSplineSet
EndChar

StartChar: uni22B5
Encoding: 8885 8885 137
Width: 720
Flags: HMW
LayerCount: 2
Fore
SplineSet
65 -87 m 2
 58 -87 51 -81 51 -75 c 0
 51 -66 54 -37 75 -37 c 2
 657 -37 l 2
 663 -37 670 -42 670 -48 c 0
 670 -70 657 -87 640 -87 c 2
 65 -87 l 2
105 486 m 0
 106 473 106 459 106 444 c 0
 106 403 105 221 105 187 c 0
 105 143 107 111 115 111 c 0
 144 111 357 216 570 306 c 0
 582 311 579 312 579 315 c 0
 579 317 583 319 571 324 c 2
 135 512 l 2
 114 520 107 509 105 486 c 0
50 532 m 2
 50 553 l 2
 50 573 52 587 69 587 c 0
 76 587 87 584 101 577 c 0
 272 501 491 413 636 338 c 0
 652 331 662 320 662 307 c 0
 662 296 653 284 630 273 c 0
 471 197 180 69 89 35 c 0
 82 32 75 31 70 31 c 0
 58 31 52 41 52 72 c 0
 52 111 50 508 50 532 c 2
EndSplineSet
EndChar

StartChar: uni22BB
Encoding: 8891 8891 138
Width: 732
Flags: HMW
LayerCount: 2
Fore
SplineSet
681 625.548828125 m 2
 404 72.548828125 l 2
 396 55.548828125 383 31.548828125 377 31.548828125 c 0
 368 31.548828125 341 44.548828125 331 64.548828125 c 2
 53 627.548828125 l 2
 51 630.548828125 50 634.548828125 50 635.548828125 c 0
 50 641.548828125 54 644.548828125 60 644.548828125 c 0
 72 644.548828125 101 633.548828125 111 613.548828125 c 2
 365 110.548828125 l 2
 366 108.548828125 369 109.548828125 370 111.548828125 c 2
 624 621.548828125 l 2
 633 640.548828125 663 645.548828125 672 645.548828125 c 0
 685 645.548828125 684 632.548828125 681 625.548828125 c 2
64.451171875 -90 m 2
 57.451171875 -90 50.451171875 -84 50.451171875 -78 c 0
 50.451171875 -69 53.451171875 -40 74.451171875 -40 c 2
 667.451171875 -40 l 2
 673.451171875 -40 680.451171875 -44 680.451171875 -50 c 0
 680.451171875 -72 667.451171875 -90 650.451171875 -90 c 2
 64.451171875 -90 l 2
EndSplineSet
EndChar

StartChar: uni22BC
Encoding: 8892 8892 139
Width: 732
Flags: HMW
LayerCount: 2
Fore
SplineSet
51.90234375 -70 m 2
 328.90234375 483 l 2
 336.90234375 500 349.90234375 524 355.90234375 524 c 0
 364.90234375 524 391.90234375 511 401.90234375 491 c 2
 679.90234375 -72 l 2
 681.90234375 -75 682.90234375 -79 682.90234375 -80 c 0
 682.90234375 -86 678.90234375 -89 672.90234375 -89 c 0
 660.90234375 -89 631.90234375 -78 621.90234375 -58 c 2
 367.90234375 445 l 2
 366.90234375 447 363.90234375 446 362.90234375 444 c 2
 108.90234375 -66 l 2
 99.90234375 -85 69.90234375 -90 60.90234375 -90 c 0
 47.90234375 -90 48.90234375 -77 51.90234375 -70 c 2
668.451171875 645.548828125 m 2
 675.451171875 645.548828125 682.451171875 639.548828125 682.451171875 633.548828125 c 0
 682.451171875 624.548828125 679.451171875 595.548828125 658.451171875 595.548828125 c 2
 65.451171875 595.548828125 l 2
 59.451171875 595.548828125 52.451171875 599.548828125 52.451171875 605.548828125 c 0
 52.451171875 627.548828125 65.451171875 645.548828125 82.451171875 645.548828125 c 2
 668.451171875 645.548828125 l 2
EndSplineSet
EndChar

StartChar: uni22BD
Encoding: 8893 8893 140
Width: 732
Flags: HMW
LayerCount: 2
Fore
SplineSet
681 504 m 2
 404 -49 l 2
 396 -66 383 -90 377 -90 c 0
 368 -90 341 -77 331 -57 c 2
 53 506 l 2
 51 509 50 513 50 514 c 0
 50 520 54 523 60 523 c 0
 72 523 101 512 111 492 c 2
 365 -11 l 2
 366 -13 369 -12 370 -10 c 2
 624 500 l 2
 633 519 663 524 672 524 c 0
 685 524 684 511 681 504 c 2
666.548828125 645.548828125 m 2
 673.548828125 645.548828125 680.548828125 639.548828125 680.548828125 633.548828125 c 0
 680.548828125 624.548828125 677.548828125 595.548828125 656.548828125 595.548828125 c 2
 63.548828125 595.548828125 l 2
 57.548828125 595.548828125 50.548828125 599.548828125 50.548828125 605.548828125 c 0
 50.548828125 627.548828125 63.548828125 645.548828125 80.548828125 645.548828125 c 2
 666.548828125 645.548828125 l 2
EndSplineSet
EndChar

StartChar: uni22BE
Encoding: 8894 8894 141
Width: 714
Flags: HMW
LayerCount: 2
Fore
SplineSet
379.180664062 26 m 0
 429.268554688 26 l 0
 429.268554688 219.61328125 270.61328125 378.268554688 77 378.268554688 c 0
 77 328.180664062 l 0
 243.083984375 328.180664062 379.180664062 192.083984375 379.180664062 26 c 0
139 50 m 2
 114 50 104 63 104 90 c 2
 104 622 l 2
 104 630 98 638 91 638 c 0
 71 638 51 627 51 606 c 2
 50 13 l 2
 50 5 62 0 79 0 c 2
 632 0 l 2
 648 0 664 21 664 39 c 0
 664 45 656 50 650 50 c 2
 139 50 l 2
EndSplineSet
EndChar

StartChar: uni22BF
Encoding: 8895 8895 142
Width: 687
Flags: HMW
LayerCount: 2
Fore
SplineSet
57 0 m 2
 53 0 50 3 50 6 c 0
 50 26 60 52 72 70 c 2
 563 579 l 2
 579 595 609 604 630 604 c 0
 633 604 636 600 636 597 c 2
 637 13 l 2
 637 5 625 0 608 0 c 2
 57 0 l 2
583 518 m 2
 583 524 581 525 576 520 c 2
 133 57 l 2
 129 51 129 50 136 50 c 2
 548 50 l 2
 573 50 583 63 583 90 c 2
 583 518 l 2
EndSplineSet
EndChar

StartChar: uni22C7
Encoding: 8903 8903 143
Width: 759
Flags: HMW
LayerCount: 2
Fore
SplineSet
376 396 m 0
 351 396 329 417 329 443 c 0
 329 469 351 490 376 490 c 0
 402 490 423 469 423 443 c 0
 423 417 402 396 376 396 c 0
64 225 m 2
 57 225 50 230 50 235 c 0
 50 243 53 276 73 276 c 2
 697 276 l 2
 702 276 709 271 709 266 c 0
 709 247 697 225 679 225 c 2
 64 225 l 2
377 11 m 0
 352 11 330 32 330 58 c 0
 330 84 352 105 377 105 c 0
 403 105 424 84 424 58 c 0
 424 32 403 11 377 11 c 0
602 -10 m 0
 598 -10 595 -9 592 -6 c 2
 380 207 l 2
 378 209 375 209 373 207 c 2
 160 -6 l 2
 155 -11 146 -11 142 -7 c 0
 137 -2 120 17 120 32 c 0
 120 36 122 41 125 44 c 2
 329 248 l 2
 333 252 332 254 328 258 c 2
 129 456 l 2
 125 460 124 465 124 470 c 0
 124 486 137 507 140 511 c 0
 145 516 154 516 159 511 c 2
 372 299 l 2
 377 294 377 296 379 298 c 2
 593 511 l 2
 596 514 599 516 603 516 c 0
 606 516 610 514 612 511 c 0
 619 498 629 483 629 471 c 0
 629 466 627 461 622 456 c 2
 421 255 l 2
 419 253 419 252 421 250 c 2
 627 44 l 2
 630 41 632 37 632 32 c 0
 632 14 613 -10 602 -10 c 0
EndSplineSet
EndChar

StartChar: uni22C8
Encoding: 8904 8904 144
Width: 662
Flags: HMW
LayerCount: 2
Fore
SplineSet
542 84 m 2
 547 79 547 80 549 87 c 2
 549 417 l 2
 549 424 547 425 542 420 c 2
 378 256 l 2
 374 252 375 250 379 246 c 2
 542 84 l 2
120 419 m 2
 115 424 113 423 113 416 c 2
 113 86 l 2
 115 79 115 78 120 83 c 2
 284 247 l 2
 288 251 287 253 283 257 c 2
 120 419 l 2
612 -19 m 2
 611 -22 610 -25 607 -25 c 0
 602 -25 598 -26 594 -26 c 0
 578 -26 563 -24 552 -12 c 2
 335 205 l 2
 330 210 333 211 328 206 c 2
 110 -12 l 2
 100 -22 76 -25 55 -25 c 0
 52 -25 51 -21 50 -18 c 2
 50 522 l 2
 50 525 52 528 55 528 c 0
 76 528 100 525 110 515 c 2
 327 298 l 2
 332 293 329 292 334 297 c 2
 552 515 l 2
 563 526 578 528 594 528 c 2
 607 528 l 2
 610 528 612 524 612 521 c 2
 612 -19 l 2
EndSplineSet
EndChar

StartChar: uni22C9
Encoding: 8905 8905 145
Width: 647
Flags: HMW
LayerCount: 2
Fore
SplineSet
50 522 m 2
 50 525 52 528 55 528 c 0
 76 528 100 525 110 515 c 2
 327 297 l 2
 329 295 332 295 334 297 c 2
 557 520 l 2
 562 525 571 525 575 521 c 0
 580 516 597 497 597 482 c 0
 597 478 595 473 592 470 c 2
 378 256 l 2
 374 252 375 250 379 246 c 2
 588 38 l 2
 592 34 593 29 593 24 c 0
 593 19 592 14 590 9 c 0
 584 -8 582 -22 570 -22 c 0
 566 -22 560 -20 558 -17 c 2
 335 205 l 2
 330 210 330 208 328 206 c 2
 110 -12 l 2
 100 -22 76 -25 55 -25 c 0
 52 -25 50 -21 50 -18 c 2
 50 522 l 2
113 86 m 2
 113 79 115 78 120 83 c 2
 286 249 l 2
 288 251 288 252 286 254 c 2
 120 420 l 2
 115 425 113 424 113 417 c 2
 113 86 l 2
EndSplineSet
EndChar

StartChar: uni22CA
Encoding: 8906 8906 146
Width: 647
Flags: HMW
LayerCount: 2
Fore
SplineSet
597 -18 m 2
 597 -21 595 -24 592 -24 c 0
 571 -24 547 -21 537 -11 c 2
 320 207 l 2
 318 209 315 209 313 207 c 2
 90 -16 l 2
 85 -21 76 -21 72 -17 c 0
 67 -12 50 7 50 22 c 0
 50 26 52 31 55 34 c 2
 269 248 l 2
 273 252 272 254 268 258 c 2
 59 466 l 2
 55 470 54 475 54 480 c 0
 54 485 55 490 57 495 c 0
 62 511 64 525 76 525 c 0
 80 525 86 523 89 521 c 2
 312 299 l 2
 317 294 317 296 319 298 c 2
 537 516 l 2
 547 526 571 529 592 529 c 0
 595 529 597 525 597 522 c 2
 597 -18 l 2
534 418 m 2
 534 425 532 426 527 421 c 2
 361 255 l 2
 359 253 359 252 361 250 c 2
 527 84 l 2
 532 79 534 80 534 87 c 2
 534 418 l 2
EndSplineSet
EndChar

StartChar: uni22CB
Encoding: 8907 8907 147
Width: 632
Flags: HMW
LayerCount: 2
Fore
SplineSet
577 34 m 2
 580 31 582 27 582 22 c 0
 582 4 563 -20 552 -20 c 0
 548 -20 545 -19 542 -16 c 2
 320 207 l 2
 318 209 315 209 313 207 c 2
 90 -16 l 2
 85 -21 76 -21 72 -17 c 0
 67 -12 50 7 50 22 c 0
 50 26 52 31 55 34 c 2
 269 248 l 2
 273 252 272 254 268 258 c 2
 59 466 l 2
 55 470 54 475 54 480 c 0
 54 496 67 517 70 521 c 0
 75 526 84 526 89 521 c 2
 577 34 l 2
EndSplineSet
EndChar

StartChar: uni22CC
Encoding: 8908 8908 148
Width: 632
Flags: HMW
LayerCount: 2
Fore
SplineSet
552 -20 m 0
 548 -20 545 -19 542 -16 c 2
 320 207 l 2
 318 209 315 209 313 207 c 2
 90 -16 l 2
 85 -21 76 -21 72 -17 c 0
 67 -12 50 7 50 22 c 0
 50 26 52 31 55 34 c 2
 543 521 l 2
 546 524 549 526 553 526 c 0
 556 526 560 524 562 521 c 0
 569 508 579 493 579 481 c 0
 579 476 577 471 572 466 c 2
 361 255 l 2
 359 253 359 252 361 250 c 2
 577 34 l 2
 580 31 582 27 582 22 c 0
 582 4 563 -20 552 -20 c 0
EndSplineSet
EndChar

StartChar: uni22CD
Encoding: 8909 8909 149
Width: 726
Flags: HMW
LayerCount: 2
Fore
SplineSet
220 244 m 0
 134 244 50 348 50 389 c 0
 50 402 65 409 70 409 c 0
 75 409 138 298 220 298 c 0
 308 298 377 448 498 448 c 0
 605 448 676 333 676 306 c 0
 676 299 665 292 657 292 c 0
 652 292 593 394 505 394 c 0
 408 394 343 244 220 244 c 0
662 180 m 2
 669 180 676 174 676 168 c 0
 676 159 670 130 652 130 c 2
 64 130 l 2
 58 130 50 135 50 141 c 0
 50 155 66 180 82 180 c 2
 662 180 l 2
EndSplineSet
EndChar

StartChar: uni22CE
Encoding: 8910 8910 150
Width: 732
Flags: HMW
LayerCount: 2
Fore
SplineSet
364 113.22265625 m 0
 364.762695312 106.944335938 368.265625 106.940429688 369 113.22265625 c 0
 390.130859375 293.919921875 455 466.22265625 653 544.22265625 c 0
 661.8984375 547.728515625 682 554.84765625 682 538.22265625 c 0
 682 529.22265625 675.357421875 497.46875 657 489.22265625 c 0
 470 405.22265625 433 268.22265625 392 -35.77734375 c 0
 390.922851562 -43.767578125 384 -50.77734375 378 -50.77734375 c 0
 360 -50.77734375 340.545898438 -40.70703125 338 -21.77734375 c 0
 299 268.22265625 262 405.22265625 74 490.22265625 c 0
 55.662109375 498.513671875 50 529.22265625 50 538.22265625 c 0
 50 554.813476562 70.1279296875 547.717773438 79 544.22265625 c 0
 277 466.22265625 342 294.22265625 364 113.22265625 c 0
EndSplineSet
EndChar

StartChar: uni22CF
Encoding: 8911 8911 151
Width: 732
Flags: HMW
LayerCount: 2
Fore
SplineSet
368 384.77734375 m 0
 367.237304688 391.055664062 363.734375 391.059570312 363 384.77734375 c 0
 341.869140625 204.080078125 277 31.77734375 79 -46.22265625 c 0
 70.1015625 -49.728515625 50 -56.84765625 50 -40.22265625 c 0
 50 -31.22265625 56.642578125 0.53125 75 8.77734375 c 0
 262 92.77734375 299 229.77734375 340 533.77734375 c 0
 341.077148438 541.767578125 348 548.77734375 354 548.77734375 c 0
 372 548.77734375 391.454101562 538.70703125 394 519.77734375 c 0
 433 229.77734375 470 92.77734375 658 7.77734375 c 0
 676.337890625 -0.513671875 682 -31.22265625 682 -40.22265625 c 0
 682 -56.8134765625 661.872070312 -49.7177734375 653 -46.22265625 c 0
 455 31.77734375 390 203.77734375 368 384.77734375 c 0
EndSplineSet
EndChar

StartChar: uni22D0
Encoding: 8912 8912 152
Width: 714
Flags: HMW
LayerCount: 2
Fore
SplineSet
650 114 m 2
 657 114 664 108 664 102 c 0
 664 93 658 64 640 64 c 2
 365 64 l 2
 232 64 170 155 170 250 c 0
 170 345 232 438 365 438 c 2
 650 438 l 2
 657 438 664 432 664 426 c 0
 664 417 658 388 640 388 c 2
 365 388 l 2
 291 388 224 333 224 250 c 0
 224 167 295 114 365 114 c 2
 650 114 l 2
650 4 m 2
 657 4 664 -2 664 -8 c 0
 664 -17 658 -46 640 -46 c 2
 365 -46 l 2
 157 -46 50 95 50 250 c 0
 50 405 157 548 365 548 c 2
 650 548 l 2
 657 548 664 542 664 536 c 0
 664 527 658 498 640 498 c 2
 365 498 l 2
 216 498 104 393 104 250 c 0
 104 107 220 4 365 4 c 2
 650 4 l 2
EndSplineSet
EndChar

StartChar: uni22D1
Encoding: 8913 8913 153
Width: 714
Flags: HMW
LayerCount: 2
Fore
SplineSet
64 388 m 2
 57 388 50 394 50 400 c 0
 50 409 56 438 74 438 c 2
 349 438 l 2
 482 438 544 347 544 252 c 0
 544 157 482 64 349 64 c 2
 64 64 l 2
 57 64 50 70 50 76 c 0
 50 85 56 114 74 114 c 2
 349 114 l 2
 423 114 490 169 490 252 c 0
 490 335 419 388 349 388 c 2
 64 388 l 2
64 498 m 2
 57 498 50 504 50 510 c 0
 50 519 56 548 74 548 c 2
 349 548 l 2
 557 548 664 407 664 252 c 0
 664 97 557 -46 349 -46 c 2
 64 -46 l 2
 57 -46 50 -40 50 -34 c 0
 50 -25 56 4 74 4 c 2
 349 4 l 2
 498 4 610 109 610 252 c 0
 610 395 494 498 349 498 c 2
 64 498 l 2
EndSplineSet
EndChar

StartChar: uni22D2
Encoding: 8914 8914 154
Width: 694
Flags: HMW
LayerCount: 2
Fore
SplineSet
210 -42 m 2
 210 -49 204 -56 198 -56 c 0
 189 -56 160 -50 160 -32 c 2
 160 243 l 2
 160 376 251 438 346 438 c 0
 441 438 534 376 534 243 c 2
 534 -42 l 2
 534 -49 528 -56 522 -56 c 0
 513 -56 484 -50 484 -32 c 2
 484 243 l 2
 484 317 429 384 346 384 c 0
 263 384 210 313 210 243 c 2
 210 -42 l 2
100 -42 m 2
 100 -49 94 -56 88 -56 c 0
 79 -56 50 -50 50 -32 c 2
 50 243 l 2
 50 451 191 558 346 558 c 0
 501 558 644 451 644 243 c 2
 644 -42 l 2
 644 -49 638 -56 632 -56 c 0
 623 -56 594 -50 594 -32 c 2
 594 243 l 2
 594 392 489 504 346 504 c 0
 203 504 100 388 100 243 c 2
 100 -42 l 2
EndSplineSet
EndChar

StartChar: uni22D3
Encoding: 8915 8915 155
Width: 694
Flags: HMW
LayerCount: 2
Fore
SplineSet
484 544 m 2
 484 551 490 558 496 558 c 0
 505 558 534 552 534 534 c 2
 534 259 l 2
 534 126 443 64 348 64 c 0
 253 64 160 126 160 259 c 2
 160 544 l 2
 160 551 166 558 172 558 c 0
 181 558 210 552 210 534 c 2
 210 259 l 2
 210 185 265 118 348 118 c 0
 431 118 484 189 484 259 c 2
 484 544 l 2
594 544 m 2
 594 551 600 558 606 558 c 0
 615 558 644 552 644 534 c 2
 644 259 l 2
 644 51 503 -56 348 -56 c 0
 193 -56 50 51 50 259 c 2
 50 544 l 2
 50 551 56 558 62 558 c 0
 71 558 100 552 100 534 c 2
 100 259 l 2
 100 110 205 -2 348 -2 c 0
 491 -2 594 114 594 259 c 2
 594 544 l 2
EndSplineSet
EndChar

StartChar: uni22D4
Encoding: 8916 8916 156
Width: 694
Flags: HMW
LayerCount: 2
Fore
SplineSet
321 745 m 2
 321 753 328 761 334 761 c 0
 354 761 373 750 373 730 c 2
 373 -39 l 2
 373 -47 366 -55 360 -55 c 0
 340 -55 321 -44 321 -24 c 2
 321 745 l 2
100 -42 m 2
 100 -49 94 -56 88 -56 c 0
 79 -56 50 -50 50 -32 c 2
 50 243 l 2
 50 451 191 558 346 558 c 0
 501 558 644 451 644 243 c 2
 644 -42 l 2
 644 -49 638 -56 632 -56 c 0
 623 -56 594 -50 594 -32 c 2
 594 243 l 2
 594 392 489 504 346 504 c 0
 203 504 100 388 100 243 c 2
 100 -42 l 2
EndSplineSet
EndChar

StartChar: uni22D5
Encoding: 8917 8917 157
Width: 726
Flags: HMW
LayerCount: 2
Fore
SplineSet
64 130 m 2
 57 130 50 136 50 142 c 0
 50 151 56 180 74 180 c 2
 255 180 l 2
 261 180 265 183 265 190 c 2
 265 311 l 2
 265 317 261 321 255 321 c 2
 64 321 l 2
 57 321 50 327 50 333 c 0
 50 342 56 371 74 371 c 2
 255 371 l 2
 261 371 265 374 265 381 c 2
 265 594 l 2
 265 614 284 625 304 625 c 0
 310 625 317 617 317 609 c 2
 317 381 l 2
 317 374 320 371 327 371 c 2
 399 371 l 2
 405 371 409 374 409 381 c 2
 409 594 l 2
 409 614 428 625 448 625 c 0
 454 625 461 617 461 609 c 2
 461 381 l 2
 461 374 464 371 471 371 c 2
 662 371 l 2
 668 371 676 366 676 360 c 0
 676 346 660 321 644 321 c 2
 471 321 l 2
 464 321 461 317 461 311 c 2
 461 190 l 2
 461 183 464 180 471 180 c 2
 662 180 l 2
 668 180 676 175 676 169 c 0
 676 151 660 130 644 130 c 2
 471 130 l 2
 464 130 461 126 461 120 c 2
 461 -94 l 2
 461 -114 442 -125 422 -125 c 0
 416 -125 409 -117 409 -109 c 2
 409 120 l 2
 409 126 405 130 399 130 c 2
 327 130 l 2
 320 130 317 126 317 120 c 2
 317 -94 l 2
 317 -114 298 -125 278 -125 c 0
 272 -125 265 -117 265 -109 c 2
 265 120 l 2
 265 126 261 130 255 130 c 2
 64 130 l 2
317 190 m 2
 317 183 320 180 327 180 c 2
 399 180 l 2
 405 180 409 183 409 190 c 2
 409 311 l 2
 409 317 405 321 399 321 c 2
 327 321 l 2
 320 321 317 317 317 311 c 2
 317 190 l 2
EndSplineSet
EndChar

StartChar: uni22D6
Encoding: 8918 8918 158
Width: 714
Flags: HMW
LayerCount: 2
Fore
SplineSet
537 249 m 4
 537 218 512 193 481 193 c 4
 450 193 425 218 425 249 c 4
 425 280 450 305 481 305 c 4
 512 305 537 280 537 249 c 4
644 -66 m 2
 91 211 l 2
 74 219 50 232 50 238 c 0
 50 247 63 274 83 284 c 2
 646 562 l 2
 649 564 653 565 654 565 c 0
 660 565 663 561 663 555 c 0
 663 543 652 514 632 504 c 2
 129 250 l 2
 127 249 128 246 130 245 c 2
 640 -9 l 2
 659 -18 664 -48 664 -57 c 0
 664 -70 651 -69 644 -66 c 2
EndSplineSet
EndChar

StartChar: uni22D7
Encoding: 8919 8919 159
Width: 714
Flags: HMW
LayerCount: 2
Fore
SplineSet
177 248.09765625 m 4
 177 279.09765625 202 304.09765625 233 304.09765625 c 4
 264 304.09765625 289 279.09765625 289 248.09765625 c 4
 289 217.09765625 264 192.09765625 233 192.09765625 c 4
 202 192.09765625 177 217.09765625 177 248.09765625 c 4
70 563.09765625 m 2
 623 286.09765625 l 2
 640 278.09765625 664 265.09765625 664 259.09765625 c 0
 664 250.09765625 651 223.09765625 631 213.09765625 c 2
 68 -64.90234375 l 2
 65 -66.90234375 61 -67.90234375 60 -67.90234375 c 0
 54 -67.90234375 51 -63.90234375 51 -57.90234375 c 0
 51 -45.90234375 62 -16.90234375 82 -6.90234375 c 2
 585 247.09765625 l 2
 587 248.09765625 586 251.09765625 584 252.09765625 c 2
 74 506.09765625 l 2
 55 515.09765625 50 545.09765625 50 554.09765625 c 0
 50 567.09765625 63 566.09765625 70 563.09765625 c 2
EndSplineSet
EndChar

StartChar: uni22D8
Encoding: 8920 8920 160
Width: 1314
Flags: HMW
LayerCount: 2
Fore
SplineSet
1244 -66 m 2
 691 211 l 2
 674 219 650 232 650 238 c 0
 650 247 663 274 683 284 c 2
 1246 562 l 2
 1249 564 1253 565 1254 565 c 0
 1260 565 1263 561 1263 555 c 0
 1263 543 1252 514 1232 504 c 2
 729 250 l 2
 727 249 728 246 730 245 c 2
 1240 -9 l 2
 1259 -18 1264 -48 1264 -57 c 0
 1264 -70 1251 -69 1244 -66 c 2
944 -66 m 2
 391 211 l 2
 374 219 350 232 350 238 c 0
 350 247 363 274 383 284 c 2
 946 562 l 2
 949 564 953 565 954 565 c 0
 960 565 963 561 963 555 c 0
 963 543 952 514 932 504 c 2
 429 250 l 2
 427 249 428 246 430 245 c 2
 940 -9 l 2
 959 -18 964 -48 964 -57 c 0
 964 -70 951 -69 944 -66 c 2
644 -66 m 2
 91 211 l 2
 74 219 50 232 50 238 c 0
 50 247 63 274 83 284 c 2
 646 562 l 2
 649 564 653 565 654 565 c 0
 660 565 663 561 663 555 c 0
 663 543 652 514 632 504 c 2
 129 250 l 2
 127 249 128 246 130 245 c 2
 640 -9 l 2
 659 -18 664 -48 664 -57 c 0
 664 -70 651 -69 644 -66 c 2
EndSplineSet
EndChar

StartChar: uni22D9
Encoding: 8921 8921 161
Width: 1314
Flags: HMW
LayerCount: 2
Fore
SplineSet
70 563.09765625 m 2
 623 286.09765625 l 2
 640 278.09765625 664 265.09765625 664 259.09765625 c 0
 664 250.09765625 651 223.09765625 631 213.09765625 c 2
 68 -64.90234375 l 2
 65 -66.90234375 61 -67.90234375 60 -67.90234375 c 0
 54 -67.90234375 51 -63.90234375 51 -57.90234375 c 0
 51 -45.90234375 62 -16.90234375 82 -6.90234375 c 2
 585 247.09765625 l 2
 587 248.09765625 586 251.09765625 584 252.09765625 c 2
 74 506.09765625 l 2
 55 515.09765625 50 545.09765625 50 554.09765625 c 0
 50 567.09765625 63 566.09765625 70 563.09765625 c 2
370 563.09765625 m 2
 923 286.09765625 l 2
 940 278.09765625 964 265.09765625 964 259.09765625 c 0
 964 250.09765625 951 223.09765625 931 213.09765625 c 2
 368 -64.90234375 l 2
 365 -66.90234375 361 -67.90234375 360 -67.90234375 c 0
 354 -67.90234375 351 -63.90234375 351 -57.90234375 c 0
 351 -45.90234375 362 -16.90234375 382 -6.90234375 c 2
 885 247.09765625 l 2
 887 248.09765625 886 251.09765625 884 252.09765625 c 2
 374 506.09765625 l 2
 355 515.09765625 350 545.09765625 350 554.09765625 c 0
 350 567.09765625 363 566.09765625 370 563.09765625 c 2
670 563.09765625 m 2
 1223 286.09765625 l 2
 1240 278.09765625 1264 265.09765625 1264 259.09765625 c 0
 1264 250.09765625 1251 223.09765625 1231 213.09765625 c 2
 668 -64.90234375 l 2
 665 -66.90234375 661 -67.90234375 660 -67.90234375 c 0
 654 -67.90234375 651 -63.90234375 651 -57.90234375 c 0
 651 -45.90234375 662 -16.90234375 682 -6.90234375 c 2
 1185 247.09765625 l 2
 1187 248.09765625 1186 251.09765625 1184 252.09765625 c 2
 674 506.09765625 l 2
 655 515.09765625 650 545.09765625 650 554.09765625 c 0
 650 567.09765625 663 566.09765625 670 563.09765625 c 2
EndSplineSet
EndChar

StartChar: uni22DA
Encoding: 8922 8922 162
Width: 719
Flags: HMW
LayerCount: 2
Fore
SplineSet
658 -409 m 0
 657 -409 656 -408 655 -408 c 2
 96 -156 l 2
 78 -148 55 -135 55 -129 c 0
 55 -120 68 -92 88 -83 c 2
 655 169 l 2
 659 169 668 172 668 160 c 0
 668 148 659 118 637 109 c 2
 134 -117 l 2
 131 -118 132 -121 135 -122 c 2
 645 -348 l 2
 664 -356 669 -387 669 -396 c 0
 669 -401 664 -409 658 -409 c 0
658 331 m 0
 657 331 656 332 655 332 c 2
 96 584 l 2
 78 592 55 605 55 611 c 0
 55 620 68 648 88 657 c 2
 655 909 l 2
 659 909 668 912 668 900 c 0
 668 888 659 858 637 849 c 2
 134 623 l 2
 131 622 132 619 135 618 c 2
 645 392 l 2
 664 384 669 353 669 344 c 0
 669 339 664 331 658 331 c 0
655 275 m 2
 662 275 669 269 669 263 c 0
 669 254 666 225 645 225 c 2
 63 225 l 2
 57 225 50 230 50 236 c 0
 50 258 63 275 80 275 c 2
 655 275 l 2
EndSplineSet
EndChar

StartChar: uni22DB
Encoding: 8923 8923 163
Width: 719
Flags: HMW
LayerCount: 2
Fore
SplineSet
66 169 m 0
 67 169 68 168 69 168 c 2
 628 -84 l 2
 646 -92 669 -105 669 -111 c 0
 669 -120 656 -148 636 -157 c 2
 69 -409 l 2
 65 -409 56 -412 56 -400 c 0
 56 -388 65 -358 87 -349 c 2
 590 -123 l 2
 593 -122 592 -119 589 -118 c 2
 79 108 l 2
 60 116 55 147 55 156 c 0
 55 161 60 169 66 169 c 0
658 331 m 0
 657 331 656 332 655 332 c 2
 96 584 l 2
 78 592 55 605 55 611 c 0
 55 620 68 648 88 657 c 2
 655 909 l 2
 659 909 668 912 668 900 c 0
 668 888 659 858 637 849 c 2
 134 623 l 2
 131 622 132 619 135 618 c 2
 645 392 l 2
 664 384 669 353 669 344 c 0
 669 339 664 331 658 331 c 0
655 275 m 2
 662 275 669 269 669 263 c 0
 669 254 666 225 645 225 c 2
 63 225 l 2
 57 225 50 230 50 236 c 0
 50 258 63 275 80 275 c 2
 655 275 l 2
EndSplineSet
EndChar

StartChar: uni22DC
Encoding: 8924 8924 164
Width: 719
Flags: HMW
LayerCount: 2
Fore
SplineSet
658 -92 m 0
 657 -92 656 -91 655 -91 c 2
 96 161 l 2
 78 169 55 182 55 188 c 0
 55 197 68 225 88 234 c 2
 655 486 l 2
 659 486 668 489 668 477 c 0
 668 465 659 435 637 426 c 2
 134 200 l 2
 131 199 132 196 135 195 c 2
 645 -31 l 2
 664 -39 669 -70 669 -79 c 0
 669 -84 664 -92 658 -92 c 0
655 592 m 2
 662 592 669 586 669 580 c 0
 669 571 666 542 645 542 c 2
 63 542 l 2
 57 542 50 547 50 553 c 0
 50 575 63 592 80 592 c 2
 655 592 l 2
EndSplineSet
EndChar

StartChar: uni22DD
Encoding: 8925 8925 165
Width: 719
Flags: HMW
LayerCount: 2
Fore
SplineSet
61 486.333007812 m 0
 62 486.333007812 63 485.333007812 64 485.333007812 c 2
 623 233.333007812 l 2
 641 225.333007812 664 212.333007812 664 206.333007812 c 0
 664 197.333007812 651 169.333007812 631 160.333007812 c 2
 64 -91.6669921875 l 2
 60 -91.6669921875 51 -94.6669921875 51 -82.6669921875 c 0
 51 -70.6669921875 60 -40.6669921875 82 -31.6669921875 c 2
 585 194.333007812 l 2
 588 195.333007812 587 198.333007812 584 199.333007812 c 2
 74 425.333007812 l 2
 55 433.333007812 50 464.333007812 50 473.333007812 c 0
 50 478.333007812 55 486.333007812 61 486.333007812 c 0
64 542.333007812 m 2
 57 542.333007812 50 548.333007812 50 554.333007812 c 0
 50 563.333007812 53 592.333007812 74 592.333007812 c 2
 656 592.333007812 l 2
 662 592.333007812 669 587.333007812 669 581.333007812 c 0
 669 559.333007812 656 542.333007812 639 542.333007812 c 2
 64 542.333007812 l 2
EndSplineSet
EndChar

StartChar: uni22DE
Encoding: 8926 8926 166
Width: 699
Flags: HMW
LayerCount: 2
Fore
SplineSet
80 333 m 0
 332 369 452 390 521 570 c 0
 528.158203125 588.674804688 560 594 569 594 c 0
 582 594 583 581.483398438 580 574 c 0
 497 367 395 326 66 281 c 0
 58.01171875 279.907226562 50 286 50 292 c 0
 50 311 61.0869140625 330.297851562 80 333 c 0
214 190 m 0
 207.703125 189.408203125 207.697265625 185.52734375 214 185 c 0
 394.697265625 169.869140625 567 124 645 -74 c 0
 648.505859375 -82.8984375 655.625 -103 639 -103 c 0
 630 -103 598.24609375 -96.357421875 590 -78 c 0
 506 109 369 121 65 162 c 0
 57.009765625 163.077148438 50 170 50 176 c 0
 50 194 60.0703125 213.454101562 79 216 c 0
 369 255 506 267 591 455 c 0
 599.291015625 473.337890625 630 479 639 479 c 0
 655.590820312 479 648.495117188 458.872070312 645 450 c 0
 567 252 395 207 214 190 c 0
EndSplineSet
EndChar

StartChar: uni22DF
Encoding: 8927 8927 167
Width: 699
Flags: HMW
LayerCount: 2
Fore
SplineSet
619.5546875 333 m 0
 638.467773438 330.297851562 649.5546875 311 649.5546875 292 c 0
 649.5546875 286 641.54296875 279.907226562 633.5546875 281 c 0
 304.5546875 326 202.5546875 367 119.5546875 574 c 0
 116.5546875 581.483398438 117.5546875 594 130.5546875 594 c 0
 139.5546875 594 171.396484375 588.674804688 178.5546875 570 c 0
 247.5546875 390 367.5546875 369 619.5546875 333 c 0
485.5546875 186 m 0
 491.8515625 186.591796875 491.857421875 190.47265625 485.5546875 191 c 0
 304.857421875 206.130859375 132.5546875 252 54.5546875 450 c 0
 51.048828125 458.8984375 43.9296875 479 60.5546875 479 c 0
 69.5546875 479 101.30859375 472.357421875 109.5546875 454 c 0
 193.5546875 267 330.5546875 255 634.5546875 214 c 0
 642.544921875 212.922851562 649.5546875 206 649.5546875 200 c 0
 649.5546875 182 639.484375 162.545898438 620.5546875 160 c 0
 330.5546875 121 193.5546875 109 108.5546875 -79 c 0
 100.263671875 -97.337890625 69.5546875 -103 60.5546875 -103 c 0
 43.9638671875 -103 51.0595703125 -82.8720703125 54.5546875 -74 c 0
 132.5546875 124 304.5546875 169 485.5546875 186 c 0
EndSplineSet
EndChar

StartChar: uni22E0
Encoding: 8928 8928 168
Width: 699
Flags: HMW
LayerCount: 2
Fore
SplineSet
80 158 m 0
 61.0869140625 160.702148438 50 180 50 199 c 0
 50 205 58.01171875 211.092773438 66 210 c 0
 395 165 497 124 580 -83 c 0
 583 -90.4833984375 582 -103 569 -103 c 0
 560 -103 528.158203125 -97.6748046875 521 -79 c 0
 452 101 332 122 80 158 c 0
214 305 m 0
 207.703125 304.408203125 207.697265625 300.52734375 214 300 c 0
 394.697265625 284.869140625 567 239 645 41 c 0
 648.505859375 32.1015625 655.625 12 639 12 c 0
 630 12 598.24609375 18.642578125 590 37 c 0
 506 224 369 236 65 277 c 0
 57.009765625 278.077148438 50 285 50 291 c 0
 50 309 60.0703125 328.454101562 79 331 c 0
 369 370 506 382 591 570 c 0
 599.291015625 588.337890625 630 594 639 594 c 0
 655.590820312 594 648.495117188 573.872070312 645 565 c 0
 567 367 395 322 214 305 c 0
568 709 m 2
 318 -194 l 2
 312 -214 289 -225 269 -225 c 0
 262 -225 258 -217 260 -209 c 2
 510 694 l 2
 516 714 539 725 559 725 c 0
 566 725 570 717 568 709 c 2
EndSplineSet
EndChar

StartChar: uni22E1
Encoding: 8929 8929 169
Width: 699
Flags: HMW
LayerCount: 2
Fore
SplineSet
619.5546875 158 m 0
 367.5546875 122 247.5546875 101 178.5546875 -79 c 0
 171.396484375 -97.6748046875 139.5546875 -103 130.5546875 -103 c 0
 117.5546875 -103 116.5546875 -90.4833984375 119.5546875 -83 c 0
 202.5546875 124 304.5546875 165 633.5546875 210 c 0
 641.54296875 211.092773438 649.5546875 205 649.5546875 199 c 0
 649.5546875 180 638.467773438 160.702148438 619.5546875 158 c 0
485.5546875 301 m 0
 491.8515625 301.591796875 491.857421875 305.47265625 485.5546875 306 c 0
 304.857421875 321.130859375 132.5546875 367 54.5546875 565 c 0
 51.048828125 573.8984375 43.9296875 594 60.5546875 594 c 0
 69.5546875 594 101.30859375 587.357421875 109.5546875 569 c 0
 193.5546875 382 330.5546875 370 634.5546875 329 c 0
 642.544921875 327.922851562 649.5546875 321 649.5546875 315 c 0
 649.5546875 297 639.484375 277.545898438 620.5546875 275 c 0
 330.5546875 236 193.5546875 224 108.5546875 36 c 0
 100.263671875 17.662109375 69.5546875 12 60.5546875 12 c 0
 43.9638671875 12 51.0595703125 32.1279296875 54.5546875 41 c 0
 132.5546875 239 304.5546875 284 485.5546875 301 c 0
448 709 m 2
 198 -194 l 2
 192 -214 169 -225 149 -225 c 0
 142 -225 138 -217 140 -209 c 2
 390 694 l 2
 396 714 419 725 439 725 c 0
 446 725 450 717 448 709 c 2
EndSplineSet
EndChar

StartChar: uni22E2
Encoding: 8930 8930 170
Width: 719
Flags: HMW
LayerCount: 2
Fore
SplineSet
572 709 m 2
 322 -194 l 2
 316 -214 293 -225 273 -225 c 0
 266 -225 262 -217 264 -209 c 2
 514 694 l 2
 520 714 543 725 563 725 c 0
 570 725 574 717 572 709 c 2
122 508 m 2
 111 508 107 501 107 492 c 2
 107 152 l 2
 107 125 118 112 143 112 c 2
 654 112 l 2
 661 112 668 106 668 100 c 0
 668 91 662 62 644 62 c 2
 83 62 l 2
 66 62 54 67 54 75 c 0
 54 172 54 370 55 531 c 0
 55 553 67 558 87 558 c 2
 654 558 l 2
 661 558 668 552 668 546 c 0
 668 537 662 508 644 508 c 2
 122 508 l 2
655 -8 m 2
 662 -8 669 -14 669 -20 c 0
 669 -29 666 -58 645 -58 c 2
 63 -58 l 2
 57 -58 50 -53 50 -47 c 0
 50 -25 63 -8 80 -8 c 2
 655 -8 l 2
EndSplineSet
EndChar

StartChar: uni22E3
Encoding: 8931 8931 171
Width: 719
Flags: HMW
LayerCount: 2
Fore
SplineSet
462 709 m 2
 212 -194 l 2
 206 -214 183 -225 163 -225 c 0
 156 -225 152 -217 154 -209 c 2
 404 694 l 2
 410 714 433 725 453 725 c 0
 460 725 464 717 462 709 c 2
597 112 m 2
 608 112 612 119 612 128 c 2
 612 468 l 2
 612 495 601 508 576 508 c 2
 65 508 l 2
 58 508 51 514 51 520 c 0
 51 529 57 558 75 558 c 2
 636 558 l 2
 653 558 665 553 665 545 c 0
 665 448 665 250 664 89 c 0
 664 67 652 62 632 62 c 2
 65 62 l 2
 58 62 51 68 51 74 c 0
 51 83 57 112 75 112 c 2
 597 112 l 2
64 -58 m 2
 57 -58 50 -52 50 -46 c 0
 50 -37 53 -8 74 -8 c 2
 656 -8 l 2
 662 -8 669 -13 669 -19 c 0
 669 -41 656 -58 639 -58 c 2
 64 -58 l 2
EndSplineSet
EndChar

StartChar: uni22E4
Encoding: 8932 8932 172
Width: 719
Flags: HMW
LayerCount: 2
Fore
SplineSet
424 31 m 2
 368 -176 l 2
 363 -196 339 -207 319 -207 c 0
 312 -207 308 -199 310 -191 c 2
 366 16 l 2
 371 36 395 47 415 47 c 0
 422 47 426 39 424 31 c 2
122 508 m 2
 111 508 107 501 107 492 c 2
 107 152 l 2
 107 125 118 112 143 112 c 2
 654 112 l 2
 661 112 668 106 668 100 c 0
 668 91 662 62 644 62 c 2
 83 62 l 2
 66 62 54 67 54 75 c 0
 54 172 54 370 55 531 c 0
 55 553 67 558 87 558 c 2
 654 558 l 2
 661 558 668 552 668 546 c 0
 668 537 662 508 644 508 c 2
 122 508 l 2
655 -8 m 2
 662 -8 669 -14 669 -20 c 0
 669 -29 666 -58 645 -58 c 2
 63 -58 l 2
 57 -58 50 -53 50 -47 c 0
 50 -25 63 -8 80 -8 c 2
 655 -8 l 2
EndSplineSet
EndChar

StartChar: uni22E5
Encoding: 8933 8933 173
Width: 719
Flags: HMW
LayerCount: 2
Fore
SplineSet
397 31 m 2
 341 -176 l 2
 336 -196 312 -207 292 -207 c 0
 285 -207 281 -199 283 -191 c 2
 339 16 l 2
 344 36 368 47 388 47 c 0
 395 47 399 39 397 31 c 2
597 112 m 2
 608 112 612 119 612 128 c 2
 612 468 l 2
 612 495 601 508 576 508 c 2
 65 508 l 2
 58 508 51 514 51 520 c 0
 51 529 57 558 75 558 c 2
 636 558 l 2
 653 558 665 553 665 545 c 0
 665 448 665 250 664 89 c 0
 664 67 652 62 632 62 c 2
 65 62 l 2
 58 62 51 68 51 74 c 0
 51 83 57 112 75 112 c 2
 597 112 l 2
64 -58 m 2
 57 -58 50 -52 50 -46 c 0
 50 -37 53 -8 74 -8 c 2
 656 -8 l 2
 662 -8 669 -13 669 -19 c 0
 669 -41 656 -58 639 -58 c 2
 64 -58 l 2
EndSplineSet
EndChar

StartChar: uni22E6
Encoding: 8934 8934 174
Width: 726
Flags: HMW
LayerCount: 2
Fore
SplineSet
506 -175 m 0
 383 -175 318 -25 221 -25 c 0
 133 -25 74 -127 69 -127 c 0
 61 -127 50 -120 50 -113 c 0
 50 -86 121 28 228 28 c 0
 349 28 418 -122 506 -122 c 0
 588 -122 651 -10 656 -10 c 0
 661 -10 676 -17 676 -30 c 0
 676 -71 592 -175 506 -175 c 0
658 14 m 0
 657 14 656 15 655 15 c 2
 96 267 l 2
 78 275 55 288 55 294 c 0
 55 303 68 331 88 340 c 2
 655 592 l 2
 659 592 668 595 668 583 c 0
 668 571 659 541 637 532 c 2
 134 306 l 2
 131 305 132 302 135 301 c 2
 645 75 l 2
 664 67 669 36 669 27 c 0
 669 22 664 14 658 14 c 0
420 37 m 2
 364 -170 l 2
 359 -190 335 -201 315 -201 c 0
 308 -201 304 -193 306 -185 c 2
 362 22 l 2
 367 42 391 53 411 53 c 0
 418 53 422 45 420 37 c 2
EndSplineSet
EndChar

StartChar: uni22E7
Encoding: 8935 8935 175
Width: 726
Flags: HMW
LayerCount: 2
Fore
SplineSet
420 37 m 2
 364 -170 l 2
 359 -190 335 -201 315 -201 c 0
 308 -201 304 -193 306 -185 c 2
 362 22 l 2
 367 42 391 53 411 53 c 0
 418 53 422 45 420 37 c 2
506 -175 m 0
 383 -175 318 -25 221 -25 c 0
 133 -25 74 -127 69 -127 c 0
 61 -127 50 -120 50 -113 c 0
 50 -86 121 28 228 28 c 0
 349 28 418 -122 506 -122 c 0
 588 -122 651 -10 656 -10 c 0
 661 -10 676 -17 676 -30 c 0
 676 -71 592 -175 506 -175 c 0
61 592 m 0
 62 592 63 591 64 591 c 2
 623 339 l 2
 641 331 664 318 664 312 c 0
 664 303 651 275 631 266 c 2
 64 14 l 2
 60 14 51 11 51 23 c 0
 51 35 60 65 82 74 c 2
 585 300 l 2
 588 301 587 304 584 305 c 2
 74 531 l 2
 55 539 50 570 50 579 c 0
 50 584 55 592 61 592 c 0
EndSplineSet
EndChar

StartChar: uni22E8
Encoding: 8936 8936 176
Width: 726
Flags: HMW
LayerCount: 2
Fore
SplineSet
214 305 m 0
 207.703125 304.408203125 207.697265625 300.52734375 214 300 c 0
 394.697265625 284.869140625 567 239 645 41 c 0
 648.505859375 32.1015625 655.625 12 639 12 c 0
 630 12 598.24609375 18.642578125 590 37 c 0
 506 224 369 236 65 277 c 0
 57.009765625 278.077148438 50 285 50 291 c 0
 50 309 60.0703125 328.454101562 79 331 c 0
 369 370 506 382 591 570 c 0
 599.291015625 588.337890625 630 594 639 594 c 0
 655.590820312 594 648.495117188 573.872070312 645 565 c 0
 567 367 395 322 214 305 c 0
506 -175 m 0
 383 -175 318 -25 221 -25 c 0
 133 -25 74 -127 69 -127 c 0
 61 -127 50 -120 50 -113 c 0
 50 -86 121 28 228 28 c 0
 349 28 418 -122 506 -122 c 0
 588 -122 651 -10 656 -10 c 0
 661 -10 676 -17 676 -30 c 0
 676 -71 592 -175 506 -175 c 0
420 37 m 2
 364 -170 l 2
 359 -190 335 -201 315 -201 c 0
 308 -201 304 -193 306 -185 c 2
 362 22 l 2
 367 42 391 53 411 53 c 0
 418 53 422 45 420 37 c 2
EndSplineSet
EndChar

StartChar: uni22E9
Encoding: 8937 8937 177
Width: 726
Flags: HMW
LayerCount: 2
Fore
SplineSet
485.5546875 301 m 0
 491.8515625 301.591796875 491.857421875 305.47265625 485.5546875 306 c 0
 304.857421875 321.130859375 132.5546875 367 54.5546875 565 c 0
 51.048828125 573.8984375 43.9296875 594 60.5546875 594 c 0
 69.5546875 594 101.30859375 587.357421875 109.5546875 569 c 0
 193.5546875 382 330.5546875 370 634.5546875 329 c 0
 642.544921875 327.922851562 649.5546875 321 649.5546875 315 c 0
 649.5546875 297 639.484375 277.545898438 620.5546875 275 c 0
 330.5546875 236 193.5546875 224 108.5546875 36 c 0
 100.263671875 17.662109375 69.5546875 12 60.5546875 12 c 0
 43.9638671875 12 51.0595703125 32.1279296875 54.5546875 41 c 0
 132.5546875 239 304.5546875 284 485.5546875 301 c 0
420 37 m 2
 364 -170 l 2
 359 -190 335 -201 315 -201 c 0
 308 -201 304 -193 306 -185 c 2
 362 22 l 2
 367 42 391 53 411 53 c 0
 418 53 422 45 420 37 c 2
506 -175 m 0
 383 -175 318 -25 221 -25 c 0
 133 -25 74 -127 69 -127 c 0
 61 -127 50 -120 50 -113 c 0
 50 -86 121 28 228 28 c 0
 349 28 418 -122 506 -122 c 0
 588 -122 651 -10 656 -10 c 0
 661 -10 676 -17 676 -30 c 0
 676 -71 592 -175 506 -175 c 0
EndSplineSet
EndChar

StartChar: uni22EA
Encoding: 8938 8938 178
Width: 712
Flags: HMW
LayerCount: 2
Fore
SplineSet
606 49 m 2
 606 93 l 2
 606 137 607 347 607 389 c 0
 607 443 605 484 596 484 c 0
 576 484 364 370 141 259 c 0
 128.989257812 253.021484375 128 253 128 250 c 0
 128 248 129 247 140 241 c 2
 577 24 l 2
 597 14 605 27 606 49 c 2
661 -2 m 0
 661 -9 662 -14 662 -20 c 0
 662 -41 660 -57 643 -57 c 0
 635 -57 625 -54 610 -47 c 0
 439 35 220 145 75 220 c 0
 60 227 50 240 50 253 c 0
 50 264 59 276 81 287 c 0
 240 363 531 511 622 555 c 0
 630 558 636 560 642 560 c 0
 654 560 659 549 659 518 c 0
 659 479 661 22 661 -2 c 0
560 671 m 2
 332 -156 l 2
 326 -176 303 -187 283 -187 c 0
 276 -187 272 -179 274 -171 c 2
 502 656 l 2
 508 676 531 687 551 687 c 0
 558 687 562 679 560 671 c 2
EndSplineSet
EndChar

StartChar: uni22EB
Encoding: 8939 8939 179
Width: 712
Flags: HMW
LayerCount: 2
Fore
SplineSet
106 454 m 2
 106 410 l 2
 106 366 105 156 105 114 c 0
 105 60 107 19 116 19 c 0
 136 19 348 133 571 244 c 0
 583.010742188 249.978515625 584 250 584 253 c 0
 584 255 583 256 572 262 c 2
 135 479 l 2
 115 489 107 476 106 454 c 2
51 505 m 0
 51 512 50 517 50 523 c 0
 50 544 52 560 69 560 c 0
 77 560 87 557 102 550 c 0
 273 468 492 358 637 283 c 0
 652 276 662 263 662 250 c 0
 662 239 653 227 631 216 c 0
 472 140 181 -8 90 -52 c 0
 82 -55 76 -57 70 -57 c 0
 58 -57 53 -46 53 -15 c 0
 53 24 51 481 51 505 c 0
420 671 m 2
 192 -156 l 2
 186 -176 163 -187 143 -187 c 0
 136 -187 132 -179 134 -171 c 2
 362 656 l 2
 368 676 391 687 411 687 c 0
 418 687 422 679 420 671 c 2
EndSplineSet
EndChar

StartChar: uni22EC
Encoding: 8940 8940 180
Width: 720
Flags: HMW
LayerCount: 2
Fore
SplineSet
615 137 m 0
 614 150 614 164 614 179 c 0
 614 220 615 402 615 436 c 0
 615 480 613 512 605 512 c 0
 576 512 363 407 150 317 c 0
 138 312 141 311 141 308 c 0
 141 306 137 304 149 299 c 2
 585 111 l 2
 606 103 613 114 615 137 c 0
670 86 m 2
 670 65 l 2
 670 45 668 31 651 31 c 0
 644 31 633 34 619 41 c 0
 448 117 229 205 84 280 c 0
 68 287 58 298 58 311 c 0
 58 322 67 334 90 345 c 0
 249 421 540 549 631 583 c 0
 638 586 645 587 650 587 c 0
 662 587 668 577 668 546 c 0
 668 507 670 110 670 86 c 2
568 709 m 2
 318 -194 l 2
 312 -214 289 -225 269 -225 c 0
 262 -225 258 -217 260 -209 c 2
 510 694 l 2
 516 714 539 725 559 725 c 0
 566 725 570 717 568 709 c 2
655 -42 m 2
 662 -42 669 -48 669 -54 c 0
 669 -63 666 -92 645 -92 c 2
 63 -92 l 2
 57 -92 50 -87 50 -81 c 0
 50 -59 63 -42 80 -42 c 2
 655 -42 l 2
EndSplineSet
EndChar

StartChar: uni22ED
Encoding: 8941 8941 181
Width: 719
Flags: HMW
LayerCount: 2
Fore
SplineSet
105 486 m 0
 106 473 106 459 106 444 c 0
 106 403 105 221 105 187 c 0
 105 143 107 111 115 111 c 0
 144 111 357 216 570 306 c 0
 582 311 579 312 579 315 c 0
 579 317 583 319 571 324 c 2
 135 512 l 2
 114 520 107 509 105 486 c 0
50 532 m 2
 50 553 l 2
 50 573 52 587 69 587 c 0
 76 587 87 584 101 577 c 0
 272 501 491 413 636 338 c 0
 652 331 662 320 662 307 c 0
 662 296 653 284 630 273 c 0
 471 197 180 69 89 35 c 0
 82 32 75 31 70 31 c 0
 58 31 52 41 52 72 c 0
 52 111 50 508 50 532 c 2
478 709 m 2
 228 -194 l 2
 222 -214 199 -225 179 -225 c 0
 172 -225 168 -217 170 -209 c 2
 420 694 l 2
 426 714 449 725 469 725 c 0
 476 725 480 717 478 709 c 2
64 -92 m 2
 57 -92 50 -86 50 -80 c 0
 50 -71 53 -42 74 -42 c 2
 656 -42 l 2
 662 -42 669 -47 669 -53 c 0
 669 -75 656 -92 639 -92 c 2
 64 -92 l 2
EndSplineSet
EndChar

StartChar: revlogicalnot
Encoding: 8976 8976 182
Width: 791
Flags: HMW
LayerCount: 2
Fore
SplineSet
710 224 m 2
 112 224 l 2
 105 224 102 221 102 214 c 2
 102 -54 l 2
 102 -74 83 -85 63 -85 c 0
 57 -85 50 -77 50 -69 c 2
 50 246 l 2
 50 266 60 276 80 276 c 2
 725 276 l 2
 733 276 741 269 741 263 c 0
 741 243 730 224 710 224 c 2
EndSplineSet
EndChar

StartChar: uni2319
Encoding: 8985 8985 183
Width: 791
Flags: HMW
LayerCount: 2
Fore
SplineSet
710 224 m 2
 80 224 l 2
 60 224 50 234 50 254 c 2
 50 554 l 2
 50 574 69 585 89 585 c 0
 95 585 102 577 102 569 c 2
 102 286 l 2
 102 279 105 276 112 276 c 2
 725 276 l 2
 733 276 741 269 741 263 c 0
 741 243 730 224 710 224 c 2
EndSplineSet
EndChar

StartChar: uni27C2
Encoding: 10178 10178 184
Width: 654
Flags: HMW
LayerCount: 2
Fore
SplineSet
64 0 m 2
 57 0 50 6 50 12 c 0
 50 21 56 50 74 50 c 2
 289 50 l 2
 295 50 299 53 299 60 c 2
 299 597 l 2
 299 617 318 628 338 628 c 0
 344 628 351 620 351 612 c 2
 351 60 l 2
 351 53 354 50 361 50 c 2
 590 50 l 2
 596 50 604 45 604 39 c 0
 604 25 588 0 572 0 c 2
 64 0 l 2
EndSplineSet
EndChar

StartChar: uni27DA
Encoding: 10202 10202 185
Width: 864
Flags: HMW
LayerCount: 2
Fore
SplineSet
369 559 m 2
 369 -44 l 2
 369 -64 350 -75 330 -75 c 0
 324 -75 317 -67 317 -59 c 2
 317 133 l 2
 317 139 314 143 307 143 c 2
 64 143 l 2
 58 143 50 148 50 154 c 0
 50 168 66 193 82 193 c 2
 307 193 l 2
 314 193 317 196 317 203 c 2
 317 304 l 2
 317 310 314 314 307 314 c 2
 64 314 l 2
 58 314 50 319 50 325 c 0
 50 343 66 364 82 364 c 2
 307 364 l 2
 314 364 317 367 317 374 c 2
 317 544 l 2
 317 564 336 575 356 575 c 0
 362 575 369 567 369 559 c 2
514 -75 m 0
 508 -75 501 -67 501 -59 c 2
 501 544 l 2
 501 564 520 575 540 575 c 0
 546 575 553 567 553 559 c 2
 553 374 l 2
 553 367 556 364 563 364 c 2
 800 364 l 2
 806 364 814 359 814 353 c 0
 814 339 798 314 782 314 c 2
 563 314 l 2
 556 314 553 310 553 304 c 2
 553 203 l 2
 553 196 556 193 563 193 c 2
 800 193 l 2
 806 193 814 188 814 182 c 0
 814 164 798 143 782 143 c 2
 563 143 l 2
 556 143 553 139 553 133 c 2
 553 -44 l 2
 553 -64 534 -75 514 -75 c 0
EndSplineSet
EndChar

StartChar: uni27DB
Encoding: 10203 10203 186
Width: 854
Flags: HMW
LayerCount: 2
Fore
SplineSet
359 559 m 2
 359 -44 l 2
 359 -64 340 -75 320 -75 c 0
 314 -75 307 -67 307 -59 c 2
 307 215 l 2
 307 221 304 225 297 225 c 2
 64 225 l 2
 58 225 50 230 50 236 c 0
 50 250 66 275 82 275 c 2
 297 275 l 2
 304 275 307 278 307 285 c 2
 307 544 l 2
 307 564 326 575 346 575 c 0
 352 575 359 567 359 559 c 2
491 -59 m 2
 491 544 l 2
 491 564 510 575 530 575 c 0
 536 575 543 567 543 559 c 2
 543 285 l 2
 543 278 546 275 553 275 c 2
 790 275 l 2
 796 275 804 270 804 264 c 0
 804 250 788 225 772 225 c 2
 553 225 l 2
 546 225 543 221 543 215 c 2
 543 -44 l 2
 543 -64 524 -75 504 -75 c 0
 498 -75 491 -67 491 -59 c 2
EndSplineSet
EndChar

StartChar: uni2A2F
Encoding: 10799 10799 187
Width: 612
Flags: HMW
LayerCount: 2
Fore
SplineSet
532 -10 m 0
 528 -10 525 -9 522 -6 c 2
 310 207 l 2
 308 209 305 209 303 207 c 2
 90 -6 l 2
 85 -11 76 -11 72 -7 c 0
 67 -2 50 17 50 32 c 0
 50 36 52 41 55 44 c 2
 259 248 l 2
 263 252 262 254 258 258 c 2
 59 456 l 2
 55 460 54 465 54 470 c 0
 54 486 67 507 70 511 c 0
 75 516 84 516 89 511 c 2
 302 299 l 2
 307 294 307 296 309 298 c 2
 523 511 l 2
 526 514 529 516 533 516 c 0
 536 516 540 514 542 511 c 0
 549 498 559 483 559 471 c 0
 559 466 557 461 552 456 c 2
 351 255 l 2
 349 253 349 252 351 250 c 2
 557 44 l 2
 560 41 562 37 562 32 c 0
 562 14 543 -10 532 -10 c 0
EndSplineSet
EndChar

StartChar: uni2A74
Encoding: 10868 10868 188
Width: 1186
Flags: HMW
LayerCount: 2
Fore
SplineSet
105 57 m 4
 75 57 50 82 50 112 c 4
 50 142 75 167 105 167 c 4
 135 167 160 142 160 112 c 4
 160 82 135 57 105 57 c 4
105 333 m 4
 75 333 50 358 50 388 c 4
 50 418 75 443 105 443 c 4
 135 443 160 418 160 388 c 4
 160 358 135 333 105 333 c 4
335 57 m 0
 305 57 280 82 280 112 c 0
 280 142 305 167 335 167 c 0
 365 167 390 142 390 112 c 0
 390 82 365 57 335 57 c 0
335 333 m 0
 305 333 280 358 280 388 c 0
 280 418 305 443 335 443 c 0
 365 443 390 418 390 388 c 0
 390 358 365 333 335 333 c 0
524 321 m 2
 517 321 510 327 510 333 c 0
 510 342 516 371 534 371 c 2
 1122 371 l 2
 1128 371 1136 366 1136 360 c 0
 1136 346 1120 321 1104 321 c 2
 524 321 l 2
524 130 m 2
 517 130 510 136 510 142 c 0
 510 151 516 180 534 180 c 2
 1122 180 l 2
 1128 180 1136 175 1136 169 c 0
 1136 151 1120 130 1104 130 c 2
 524 130 l 2
EndSplineSet
EndChar

StartChar: uni2A75
Encoding: 10869 10869 189
Width: 1526
Flags: HMW
LayerCount: 2
Fore
SplineSet
864 321 m 6
 857 321 850 327 850 333 c 4
 850 342 856 371 874 371 c 6
 1462 371 l 6
 1468 371 1476 366 1476 360 c 4
 1476 346 1460 321 1444 321 c 6
 864 321 l 6
864 130 m 6
 857 130 850 136 850 142 c 4
 850 151 856 180 874 180 c 6
 1462 180 l 6
 1468 180 1476 175 1476 169 c 4
 1476 151 1460 130 1444 130 c 6
 864 130 l 6
64 321 m 2
 57 321 50 327 50 333 c 0
 50 342 56 371 74 371 c 2
 662 371 l 2
 668 371 676 366 676 360 c 0
 676 346 660 321 644 321 c 2
 64 321 l 2
64 130 m 2
 57 130 50 136 50 142 c 0
 50 151 56 180 74 180 c 2
 662 180 l 2
 668 180 676 175 676 169 c 0
 676 151 660 130 644 130 c 2
 64 130 l 2
EndSplineSet
EndChar

StartChar: uni2A76
Encoding: 10870 10870 190
Width: 2326
Flags: HMW
LayerCount: 2
Fore
SplineSet
64 321 m 6
 57 321 50 327 50 333 c 4
 50 342 56 371 74 371 c 6
 662 371 l 6
 668 371 676 366 676 360 c 4
 676 346 660 321 644 321 c 6
 64 321 l 6
64 130 m 6
 57 130 50 136 50 142 c 4
 50 151 56 180 74 180 c 6
 662 180 l 6
 668 180 676 175 676 169 c 4
 676 151 660 130 644 130 c 6
 64 130 l 6
1664 321 m 2
 1657 321 1650 327 1650 333 c 0
 1650 342 1656 371 1674 371 c 2
 2262 371 l 2
 2268 371 2276 366 2276 360 c 0
 2276 346 2260 321 2244 321 c 2
 1664 321 l 2
1664 130 m 2
 1657 130 1650 136 1650 142 c 0
 1650 151 1656 180 1674 180 c 2
 2262 180 l 2
 2268 180 2276 175 2276 169 c 0
 2276 151 2260 130 2244 130 c 2
 1664 130 l 2
864 321 m 2
 857 321 850 327 850 333 c 0
 850 342 856 371 874 371 c 2
 1462 371 l 2
 1468 371 1476 366 1476 360 c 0
 1476 346 1460 321 1444 321 c 2
 864 321 l 2
864 130 m 2
 857 130 850 136 850 142 c 0
 850 151 856 180 874 180 c 2
 1462 180 l 2
 1468 180 1476 175 1476 169 c 0
 1476 151 1460 130 1444 130 c 2
 864 130 l 2
EndSplineSet
EndChar

StartChar: uni2A7D
Encoding: 10877 10877 191
Width: 714
Flags: HMW
LayerCount: 2
Fore
SplineSet
640 -49 m 2
 659 -57 664 -88 664 -97 c 0
 664 -102 659 -110 653 -110 c 0
 652 -110 651 -109 650 -109 c 2
 74 150 l 2
 55 158 50 189 50 198 c 0
 50 203 55 211 61 211 c 0
 62 211 63 210 64 210 c 2
 640 -49 l 2
653 31 m 0
 652 31 651 32 650 32 c 2
 91 284 l 2
 73 292 50 305 50 311 c 0
 50 320 63 348 83 357 c 2
 650 609 l 2
 654 609 663 612 663 600 c 0
 663 588 654 558 632 549 c 2
 129 323 l 2
 126 322 127 319 130 318 c 2
 640 92 l 2
 659 84 664 53 664 44 c 0
 664 39 659 31 653 31 c 0
EndSplineSet
EndChar

StartChar: uni2A7E
Encoding: 10878 10878 192
Width: 714
Flags: HMW
LayerCount: 2
Fore
SplineSet
74 -49 m 2
 650 210 l 2
 651 210 652 211 653 211 c 0
 659 211 664 203 664 198 c 0
 664 189 659 158 640 150 c 2
 64 -109 l 2
 63 -109 62 -110 61 -110 c 0
 55 -110 50 -102 50 -97 c 0
 50 -88 55 -57 74 -49 c 2
61 31 m 0
 55 31 50 39 50 44 c 0
 50 53 55 84 74 92 c 2
 584 318 l 2
 587 319 588 322 585 323 c 2
 82 549 l 2
 60 558 51 588 51 600 c 0
 51 612 60 609 64 609 c 2
 631 357 l 2
 651 348 664 320 664 311 c 0
 664 305 641 292 623 284 c 2
 64 32 l 2
 63 32 62 31 61 31 c 0
EndSplineSet
EndChar
